<svg width="412" height="309" viewBox="0 0 412 309" fill="none" xmlns="http://www.w3.org/2000/svg">
<g clip-path="url(#clip0_185_876)">
<path d="M300.26 26.4136C306.132 26.4136 404.938 27.0995 411.124 26.8869C411.571 26.8869 411.78 26.201 411.367 25.9609C407.431 23.9032 403.016 24.3422 398.949 22.9087C396.555 22.0651 395.085 20.4258 393.426 18.5533C392.048 16.9163 390.27 15.7023 388.283 15.0415C386.465 14.47 384.536 14.4062 382.687 14.8564C380.68 15.3571 378.941 16.5574 377.026 17.3118C372.276 19.1843 367.664 17.4079 364.28 13.7315C361.485 10.7067 358.736 7.85343 354.938 6.22101C351.756 4.84924 348.221 4.57488 345.039 6.07698C341.411 7.7917 338.925 11.2486 335.52 13.3268C331.486 15.7892 326.658 15.2062 322.204 15.9538C317.749 16.7014 314.332 20.6178 310.396 22.8813C309.12 23.7363 307.646 24.2106 306.132 24.253C305.251 24.1738 304.375 24.0456 303.508 23.8689C302.196 23.6975 300.884 23.7386 299.978 24.9115C299.808 25.1653 299.873 26.4136 300.26 26.4136Z" fill="#EBEBEB"/>
<path d="M0.625395 15.5903C4.90907 15.5903 77.0494 16.0842 81.5823 15.9333C81.6588 15.9314 81.7326 15.9038 81.7927 15.8544C81.8529 15.8051 81.8961 15.7367 81.9161 15.6596C81.936 15.5824 81.9315 15.5005 81.9033 15.4263C81.8751 15.352 81.8246 15.2892 81.7595 15.2474C78.8993 13.7727 75.6587 14.0677 72.687 13.0183C70.942 12.4078 69.8662 11.2075 68.6526 9.84259C67.6493 8.64536 66.3516 7.75821 64.9003 7.27736C63.5723 6.86088 62.1631 6.81595 60.8134 7.14704C59.3505 7.51057 58.0779 8.38165 56.6872 8.93721C53.2169 10.309 49.8516 9.0058 47.3785 6.32398C45.3384 4.11541 43.331 2.03031 40.5561 0.836862C39.4238 0.305272 38.1994 0.0218892 36.9583 0.00419433C35.7172 -0.0135006 34.4858 0.234869 33.3401 0.73398C30.7161 1.98916 28.8793 4.50637 26.3931 6.02219C23.4476 7.82607 19.9249 7.39396 16.6712 7.94268C13.4174 8.49139 10.918 11.3721 8.06443 12.9977C7.13658 13.6268 6.06052 13.9758 4.95499 14.0059C4.31895 13.9487 3.68616 13.8571 3.05915 13.7316C2.07515 13.6013 1.14363 13.6287 0.481074 14.4861C0.310514 14.7055 0.343315 15.5903 0.625395 15.5903Z" fill="#EBEBEB"/>
<path d="M31.0707 85.2492C35.3544 85.2492 107.495 85.743 112.028 85.5921C112.349 85.5921 112.526 85.0846 112.205 84.9062C109.345 83.4247 106.104 83.7265 103.132 82.6771C101.387 82.0598 100.311 80.8664 99.0979 79.5014C98.0964 78.3021 96.7981 77.4145 95.3456 76.9362C94.0177 76.5209 92.6093 76.4737 91.2587 76.799C89.7958 77.1694 88.5232 78.0405 87.1259 78.5961C83.6622 79.9678 80.2969 78.6647 77.8238 75.9828C75.7837 73.7743 73.7763 71.6892 71.0014 70.4957C69.8691 69.9641 68.6447 69.6807 67.4036 69.663C66.1625 69.6453 64.9312 69.8937 63.7854 70.3928C61.1614 71.648 59.3246 74.1652 56.8384 75.681C53.8929 77.4849 50.3702 77.0528 47.1165 77.6015C43.8627 78.1502 41.3633 81.031 38.5097 82.6565C37.5819 83.2857 36.5058 83.6346 35.4003 83.6648C34.7638 83.6086 34.1308 83.5147 33.5045 83.3836C32.5205 83.2601 31.5889 83.2875 30.9264 84.1449C30.7558 84.3644 30.7886 85.2492 31.0707 85.2492Z" fill="#EBEBEB"/>
<path d="M300.989 77.2654C305.272 77.2654 377.413 77.7661 381.946 77.6152C382.274 77.6152 382.444 77.1008 382.123 76.9293C379.263 75.4478 376.022 75.7428 373.05 74.7002C371.305 74.0829 370.229 72.8895 369.022 71.5177C368.016 70.3215 366.716 69.4347 365.264 68.9525C363.936 68.536 362.526 68.491 361.177 68.8221C359.714 69.1857 358.441 70.0636 357.05 70.6123C353.58 71.9841 350.215 70.6809 347.742 67.9991C345.702 65.7905 343.694 63.7054 340.919 62.512C339.788 61.9777 338.564 61.6923 337.322 61.6734C336.081 61.6545 334.849 61.9026 333.703 62.4022C331.079 63.6574 329.243 66.1815 326.756 67.6973C323.811 69.4943 320.288 69.0691 317.034 69.6109C313.781 70.1528 311.281 73.0404 308.428 74.6728C307.497 75.2959 306.423 75.6443 305.318 75.681C304.662 75.681 304.052 75.4821 303.422 75.3998C302.438 75.2764 301.507 75.3038 300.844 76.1611C300.674 76.3806 300.707 77.2654 300.989 77.2654Z" fill="#EBEBEB"/>
<path d="M85.8271 34.4934C85.9058 34.7472 199.518 34.4934 198.088 34.4934C197.432 34.4934 199.079 33.4714 198.443 33.1216C194.743 31.2011 190.695 31.1462 186.635 30.7621C184.286 30.5358 181.872 30.1791 179.76 29.02C177.647 27.8608 176.283 25.81 174.761 23.9307C172.42 21.0405 169.414 18.8203 166.027 17.4788C162.639 16.1374 158.981 15.7188 155.396 16.2624C147.314 17.5862 140.964 24.0198 132.856 25.179C127.995 25.8649 123.396 23.9238 118.647 23.2311C114.711 22.6618 111.477 23.4574 107.974 25.2887C105.415 26.6194 103.047 27.7374 100.148 27.9431C97.9238 28.1077 95.6868 27.8403 93.463 27.8197C89.8135 27.8948 86.3152 29.3578 83.623 31.935C83.2622 32.2711 82.1142 34.4934 85.8271 34.4934Z" fill="#EBEBEB"/>
<path d="M97.1689 268.834H137.146L137.146 49.727H97.1689L97.1689 268.834Z" fill="#DBDBDB"/>
<path d="M123.167 65.2075H130.94V56.8396H123.167V65.2075Z" fill="#EBEBEB"/>
<path d="M113.222 65.2075H120.995V56.8396H113.222V65.2075Z" fill="#EBEBEB"/>
<path d="M123.167 79.4054H130.94V71.0376H123.167V79.4054Z" fill="#EBEBEB"/>
<path d="M113.222 79.4054H120.995V71.0376H113.222V79.4054Z" fill="#EBEBEB"/>
<path d="M123.167 93.6102H130.94V85.2423H123.167V93.6102Z" fill="#EBEBEB"/>
<path d="M113.222 93.6102H120.995V85.2423H113.222V93.6102Z" fill="#EBEBEB"/>
<path d="M123.167 107.815H130.94V99.4471H123.167V107.815Z" fill="#EBEBEB"/>
<path d="M113.222 107.815H120.995V99.4471H113.222V107.815Z" fill="#EBEBEB"/>
<path d="M123.167 122.02H130.94V113.652H123.167V122.02Z" fill="#EBEBEB"/>
<path d="M113.222 122.02H120.995V113.652H113.222V122.02Z" fill="#EBEBEB"/>
<path d="M123.167 136.224H130.94V127.857H123.167V136.224Z" fill="#EBEBEB"/>
<path d="M113.222 136.224H120.995V127.857H113.222V136.224Z" fill="#EBEBEB"/>
<path d="M123.167 150.429H130.94V142.061H123.167V150.429Z" fill="#EBEBEB"/>
<path d="M113.222 150.429H120.995V142.061H113.222V150.429Z" fill="#EBEBEB"/>
<path d="M123.167 164.634H130.94V156.266H123.167V164.634Z" fill="#EBEBEB"/>
<path d="M113.222 164.634H120.995V156.266H113.222V164.634Z" fill="#EBEBEB"/>
<path d="M123.167 178.839H130.94V170.471H123.167V178.839Z" fill="#EBEBEB"/>
<path d="M113.222 178.839H120.995V170.471H113.222V178.839Z" fill="#EBEBEB"/>
<path d="M123.167 193.044H130.94V184.676H123.167V193.044Z" fill="#EBEBEB"/>
<path d="M113.222 193.044H120.995V184.676H113.222V193.044Z" fill="#EBEBEB"/>
<path d="M123.167 207.241H130.94V198.874H123.167V207.241Z" fill="#EBEBEB"/>
<path d="M113.222 207.241H120.995V198.874H113.222V207.241Z" fill="#EBEBEB"/>
<path d="M123.167 221.446H130.94V213.078H123.167V221.446Z" fill="#EBEBEB"/>
<path d="M113.222 221.446H120.995V213.078H113.222V221.446Z" fill="#EBEBEB"/>
<path d="M123.167 235.651H130.94V227.283H123.167V235.651Z" fill="#EBEBEB"/>
<path d="M113.222 235.651H120.995V227.283H113.222V235.651Z" fill="#EBEBEB"/>
<path d="M123.167 249.856H130.94V241.488H123.167V249.856Z" fill="#EBEBEB"/>
<path d="M111.149 241.488H103.375V249.856H111.149V241.488Z" fill="#EBEBEB"/>
<path d="M111.149 227.283H103.375V235.651H111.149V227.283Z" fill="#EBEBEB"/>
<path d="M111.149 213.085H103.375V221.453H111.149V213.085Z" fill="#EBEBEB"/>
<path d="M111.149 198.88H103.375V207.248H111.149V198.88Z" fill="#EBEBEB"/>
<path d="M111.149 184.676H103.375V193.044H111.149V184.676Z" fill="#EBEBEB"/>
<path d="M111.149 170.471H103.375V178.839H111.149V170.471Z" fill="#EBEBEB"/>
<path d="M111.149 156.266H103.375V164.634H111.149V156.266Z" fill="#EBEBEB"/>
<path d="M111.149 142.061H103.375V150.429H111.149V142.061Z" fill="#EBEBEB"/>
<path d="M111.149 127.857H103.375V136.224H111.149V127.857Z" fill="#EBEBEB"/>
<path d="M111.149 113.652H103.375V122.02H111.149V113.652Z" fill="#EBEBEB"/>
<path d="M111.149 99.4471H103.375V107.815H111.149V99.4471Z" fill="#EBEBEB"/>
<path d="M111.149 85.2492H103.375V93.617H111.149V85.2492Z" fill="#EBEBEB"/>
<path d="M111.149 71.0444H103.375V79.4123H111.149V71.0444Z" fill="#EBEBEB"/>
<path d="M111.149 56.8396H103.375V65.2075H111.149V56.8396Z" fill="#EBEBEB"/>
<path d="M113.222 249.856H120.995V241.488H113.222V249.856Z" fill="#EBEBEB"/>
<path d="M65.6481 268.834H97.1689L97.1689 49.727H65.6481L65.6481 268.834Z" fill="#A6A6A6"/>
<path d="M75.3112 241.488H68.8955V249.856H75.3112V241.488Z" fill="#C7C7C7"/>
<path d="M83.5241 241.488H77.1084V249.856H83.5241V241.488Z" fill="#C7C7C7"/>
<path d="M75.3112 227.283H68.8955V235.651H75.3112V227.283Z" fill="#C7C7C7"/>
<path d="M83.5241 227.283H77.1084V235.651H83.5241V227.283Z" fill="#C7C7C7"/>
<path d="M75.3112 213.085H68.8955V221.453H75.3112V213.085Z" fill="#C7C7C7"/>
<path d="M83.5241 213.085H77.1084V221.453H83.5241V213.085Z" fill="#C7C7C7"/>
<path d="M75.3112 198.88H68.8955V207.248H75.3112V198.88Z" fill="#C7C7C7"/>
<path d="M83.5241 198.88H77.1084V207.248H83.5241V198.88Z" fill="#C7C7C7"/>
<path d="M75.3112 184.676H68.8955V193.044H75.3112V184.676Z" fill="#C7C7C7"/>
<path d="M83.5241 184.676H77.1084V193.044H83.5241V184.676Z" fill="#C7C7C7"/>
<path d="M75.3112 170.471H68.8955V178.839H75.3112V170.471Z" fill="#C7C7C7"/>
<path d="M83.5241 170.471H77.1084V178.839H83.5241V170.471Z" fill="#C7C7C7"/>
<path d="M75.3112 156.266H68.8955V164.634H75.3112V156.266Z" fill="#C7C7C7"/>
<path d="M83.5241 156.266H77.1084V164.634H83.5241V156.266Z" fill="#C7C7C7"/>
<path d="M75.3112 142.061H68.8955V150.429H75.3112V142.061Z" fill="#C7C7C7"/>
<path d="M83.5241 142.061H77.1084V150.429H83.5241V142.061Z" fill="#C7C7C7"/>
<path d="M75.3112 127.857H68.8955V136.224H75.3112V127.857Z" fill="#C7C7C7"/>
<path d="M83.5241 127.857H77.1084V136.224H83.5241V127.857Z" fill="#C7C7C7"/>
<path d="M75.3112 113.652H68.8955V122.02H75.3112V113.652Z" fill="#C7C7C7"/>
<path d="M83.5241 113.652H77.1084V122.02H83.5241V113.652Z" fill="#C7C7C7"/>
<path d="M75.3112 99.4471H68.8955V107.815H75.3112V99.4471Z" fill="#C7C7C7"/>
<path d="M83.5241 99.4471H77.1084V107.815H83.5241V99.4471Z" fill="#C7C7C7"/>
<path d="M75.3112 85.2492H68.8955V93.617H75.3112V85.2492Z" fill="#C7C7C7"/>
<path d="M83.5241 85.2492H77.1084V93.617H83.5241V85.2492Z" fill="#C7C7C7"/>
<path d="M75.3112 71.0444H68.8955V79.4123H75.3112V71.0444Z" fill="#C7C7C7"/>
<path d="M83.5241 71.0444H77.1084V79.4123H83.5241V71.0444Z" fill="#C7C7C7"/>
<path d="M75.3112 56.8396H68.8955V65.2075H75.3112V56.8396Z" fill="#C7C7C7"/>
<path d="M85.2494 65.2075H91.665V56.8396H85.2494V65.2075Z" fill="#C7C7C7"/>
<path d="M85.2494 79.4054H91.665V71.0376H85.2494V79.4054Z" fill="#C7C7C7"/>
<path d="M85.2494 93.6102H91.665V85.2423H85.2494V93.6102Z" fill="#C7C7C7"/>
<path d="M85.2494 107.815H91.665V99.4471H85.2494V107.815Z" fill="#C7C7C7"/>
<path d="M85.2494 122.02H91.665V113.652H85.2494V122.02Z" fill="#C7C7C7"/>
<path d="M85.2494 136.224H91.665V127.857H85.2494V136.224Z" fill="#C7C7C7"/>
<path d="M85.2494 150.429H91.665V142.061H85.2494V150.429Z" fill="#C7C7C7"/>
<path d="M85.2494 164.634H91.665V156.266H85.2494V164.634Z" fill="#C7C7C7"/>
<path d="M85.2494 178.839H91.665V170.471H85.2494V178.839Z" fill="#C7C7C7"/>
<path d="M85.2494 193.044H91.665V184.676H85.2494V193.044Z" fill="#C7C7C7"/>
<path d="M85.2494 207.241H91.665V198.874H85.2494V207.241Z" fill="#C7C7C7"/>
<path d="M85.2494 221.446H91.665V213.078H85.2494V221.446Z" fill="#C7C7C7"/>
<path d="M85.2494 235.651H91.665V227.283H85.2494V235.651Z" fill="#C7C7C7"/>
<path d="M85.2494 249.856H91.665V241.488H85.2494V249.856Z" fill="#C7C7C7"/>
<path d="M83.5241 56.8396H77.1084V65.2075H83.5241V56.8396Z" fill="#C7C7C7"/>
<path d="M309.169 268.827H353.764V51.0782H309.169V268.827Z" fill="#EBEBEB"/>
<path d="M309.169 51.0782L354.84 51.0782V46.3113L309.169 46.3113V51.0782Z" fill="#C7C7C7"/>
<path d="M345.21 268.827H349.729V58.1086H345.21V268.827Z" fill="white"/>
<path d="M337.207 268.827H341.727V58.1086H337.207V268.827Z" fill="white"/>
<path d="M329.203 268.827H333.723V58.1086H329.203V268.827Z" fill="white"/>
<path d="M321.2 268.827H325.72V58.1086H321.2V268.827Z" fill="white"/>
<path d="M313.197 268.827H317.717V58.1086H313.197V268.827Z" fill="white"/>
<path d="M345.21 73.541H349.729V64.1306H345.21V73.541Z" fill="#EBEBEB"/>
<path d="M337.207 73.541H341.727V64.1306H337.207V73.541Z" fill="#EBEBEB"/>
<path d="M329.203 73.541H333.723V64.1306H329.203V73.541Z" fill="#EBEBEB"/>
<path d="M321.2 73.541H325.72V64.1306H321.2V73.541Z" fill="#EBEBEB"/>
<path d="M313.197 73.541H317.717V64.1306H313.197V73.541Z" fill="#EBEBEB"/>
<path d="M345.21 88.8364H349.729V79.426H345.21V88.8364Z" fill="#EBEBEB"/>
<path d="M337.207 88.8364H341.727V79.426H337.207V88.8364Z" fill="#EBEBEB"/>
<path d="M329.203 88.8364H333.723V79.426H329.203V88.8364Z" fill="#EBEBEB"/>
<path d="M321.2 88.8364H325.72V79.426H321.2V88.8364Z" fill="#EBEBEB"/>
<path d="M313.197 88.8364H317.717V79.426H313.197V88.8364Z" fill="#EBEBEB"/>
<path d="M345.21 104.132H349.729V94.7213H345.21V104.132Z" fill="#EBEBEB"/>
<path d="M337.207 104.132H341.727V94.7213H337.207V104.132Z" fill="#EBEBEB"/>
<path d="M329.203 104.132H333.723V94.7213H329.203V104.132Z" fill="#EBEBEB"/>
<path d="M321.2 104.132H325.72V94.7213H321.2V104.132Z" fill="#EBEBEB"/>
<path d="M313.197 104.132H317.717V94.7213H313.197V104.132Z" fill="#EBEBEB"/>
<path d="M345.21 119.427H349.729V110.017H345.21V119.427Z" fill="#EBEBEB"/>
<path d="M337.207 119.427H341.727V110.017H337.207V119.427Z" fill="#EBEBEB"/>
<path d="M329.203 119.427H333.723V110.017H329.203V119.427Z" fill="#EBEBEB"/>
<path d="M321.2 119.427H325.72V110.017H321.2V119.427Z" fill="#EBEBEB"/>
<path d="M313.197 119.427H317.717V110.017H313.197V119.427Z" fill="#EBEBEB"/>
<path d="M345.21 134.722H349.729V125.312H345.21V134.722Z" fill="#EBEBEB"/>
<path d="M337.207 134.722H341.727V125.312H337.207V134.722Z" fill="#EBEBEB"/>
<path d="M329.203 134.722H333.723V125.312H329.203V134.722Z" fill="#EBEBEB"/>
<path d="M321.2 134.722H325.72V125.312H321.2V134.722Z" fill="#EBEBEB"/>
<path d="M313.197 134.722H317.717V125.312H313.197V134.722Z" fill="#EBEBEB"/>
<path d="M345.21 150.018H349.729V140.607H345.21V150.018Z" fill="#EBEBEB"/>
<path d="M337.207 150.018H341.727V140.607H337.207V150.018Z" fill="#EBEBEB"/>
<path d="M329.203 150.018H333.723V140.607H329.203V150.018Z" fill="#EBEBEB"/>
<path d="M321.2 150.018H325.72V140.607H321.2V150.018Z" fill="#EBEBEB"/>
<path d="M313.197 150.018H317.717V140.607H313.197V150.018Z" fill="#EBEBEB"/>
<path d="M345.21 165.313H349.729V155.903H345.21V165.313Z" fill="#EBEBEB"/>
<path d="M337.207 165.313H341.727V155.903H337.207V165.313Z" fill="#EBEBEB"/>
<path d="M329.203 165.313H333.723V155.903H329.203V165.313Z" fill="#EBEBEB"/>
<path d="M321.2 165.313H325.72V155.903H321.2V165.313Z" fill="#EBEBEB"/>
<path d="M313.197 165.313H317.717V155.903H313.197V165.313Z" fill="#EBEBEB"/>
<path d="M345.21 180.602H349.729V171.191H345.21V180.602Z" fill="#EBEBEB"/>
<path d="M337.207 180.602H341.727V171.191H337.207V180.602Z" fill="#EBEBEB"/>
<path d="M329.203 180.602H333.723V171.191H329.203V180.602Z" fill="#EBEBEB"/>
<path d="M321.2 180.602H325.72V171.191H321.2V180.602Z" fill="#EBEBEB"/>
<path d="M313.197 180.602H317.717V171.191H313.197V180.602Z" fill="#EBEBEB"/>
<path d="M345.21 195.897H349.729V186.486H345.21V195.897Z" fill="#EBEBEB"/>
<path d="M337.207 195.897H341.727V186.486H337.207V195.897Z" fill="#EBEBEB"/>
<path d="M329.203 195.897H333.723V186.486H329.203V195.897Z" fill="#EBEBEB"/>
<path d="M321.2 195.897H325.72V186.486H321.2V195.897Z" fill="#EBEBEB"/>
<path d="M313.197 195.897H317.717V186.486H313.197V195.897Z" fill="#EBEBEB"/>
<path d="M345.21 211.192H349.729V201.782H345.21V211.192Z" fill="#EBEBEB"/>
<path d="M337.207 211.192H341.727V201.782H337.207V211.192Z" fill="#EBEBEB"/>
<path d="M329.203 211.192H333.723V201.782H329.203V211.192Z" fill="#EBEBEB"/>
<path d="M321.2 211.192H325.72V201.782H321.2V211.192Z" fill="#EBEBEB"/>
<path d="M313.197 211.192H317.717V201.782H313.197V211.192Z" fill="#EBEBEB"/>
<path d="M345.21 226.488H349.729V217.077H345.21V226.488Z" fill="#EBEBEB"/>
<path d="M337.207 226.488H341.727V217.077H337.207V226.488Z" fill="#EBEBEB"/>
<path d="M329.203 226.488H333.723V217.077H329.203V226.488Z" fill="#EBEBEB"/>
<path d="M321.2 226.488H325.72V217.077H321.2V226.488Z" fill="#EBEBEB"/>
<path d="M313.197 226.488H317.717V217.077H313.197V226.488Z" fill="#EBEBEB"/>
<path d="M345.21 241.783H349.729V232.372H345.21V241.783Z" fill="#EBEBEB"/>
<path d="M337.207 241.783H341.727V232.372H337.207V241.783Z" fill="#EBEBEB"/>
<path d="M329.203 241.783H333.723V232.372H329.203V241.783Z" fill="#EBEBEB"/>
<path d="M321.2 241.783H325.72V232.372H321.2V241.783Z" fill="#EBEBEB"/>
<path d="M313.197 241.783H317.717V232.372H313.197V241.783Z" fill="#EBEBEB"/>
<path d="M345.21 257.085H349.729V247.675H345.21V257.085Z" fill="#EBEBEB"/>
<path d="M337.207 257.085H341.727V247.675H337.207V257.085Z" fill="#EBEBEB"/>
<path d="M329.203 257.085H333.723V247.675H329.203V257.085Z" fill="#EBEBEB"/>
<path d="M321.2 257.085H325.72V247.675H321.2V257.085Z" fill="#EBEBEB"/>
<path d="M313.197 257.085H317.717V247.675H313.197V257.085Z" fill="#EBEBEB"/>
<path d="M345.21 268.834H349.729V262.97H345.21V268.834Z" fill="#EBEBEB"/>
<path d="M337.207 268.834H341.727V262.97H337.207V268.834Z" fill="#EBEBEB"/>
<path d="M329.203 268.834H333.723V262.97H329.203V268.834Z" fill="#EBEBEB"/>
<path d="M321.2 268.834H325.72V262.97H321.2V268.834Z" fill="#EBEBEB"/>
<path d="M313.197 268.834H317.717V262.97H313.197V268.834Z" fill="#EBEBEB"/>
<path d="M280.541 268.827H309.169V51.0782H280.541V268.827Z" fill="#DBDBDB"/>
<path d="M279.301 51.0782L309.169 51.0782V46.3113H279.301V51.0782Z" fill="#C7C7C7"/>
<path d="M300.615 268.827H305.135V58.1086H300.615V268.827Z" fill="#C7C7C7"/>
<path d="M292.611 268.827H297.131V58.1086H292.611V268.827Z" fill="#C7C7C7"/>
<path d="M284.608 268.827H289.128V58.1086H284.608V268.827Z" fill="#C7C7C7"/>
<path d="M300.615 73.541H305.135V64.1306H300.615V73.541Z" fill="#DBDBDB"/>
<path d="M292.611 73.541H297.131V64.1306H292.611V73.541Z" fill="#DBDBDB"/>
<path d="M284.608 73.541H289.128V64.1306H284.608V73.541Z" fill="#DBDBDB"/>
<path d="M300.615 88.8364H305.135V79.426H300.615V88.8364Z" fill="#DBDBDB"/>
<path d="M292.611 88.8364H297.131V79.426H292.611V88.8364Z" fill="#DBDBDB"/>
<path d="M284.608 88.8364H289.128V79.426H284.608V88.8364Z" fill="#DBDBDB"/>
<path d="M300.615 104.132H305.135V94.7213H300.615V104.132Z" fill="#DBDBDB"/>
<path d="M292.611 104.132H297.131V94.7213H292.611V104.132Z" fill="#DBDBDB"/>
<path d="M284.608 104.132H289.128V94.7213H284.608V104.132Z" fill="#DBDBDB"/>
<path d="M300.615 119.427H305.135V110.017H300.615V119.427Z" fill="#DBDBDB"/>
<path d="M292.611 119.427H297.131V110.017H292.611V119.427Z" fill="#DBDBDB"/>
<path d="M284.608 119.427H289.128V110.017H284.608V119.427Z" fill="#DBDBDB"/>
<path d="M300.615 134.722H305.135V125.312H300.615V134.722Z" fill="#DBDBDB"/>
<path d="M292.611 134.722H297.131V125.312H292.611V134.722Z" fill="#DBDBDB"/>
<path d="M284.608 134.722H289.128V125.312H284.608V134.722Z" fill="#DBDBDB"/>
<path d="M300.615 150.018H305.135V140.607H300.615V150.018Z" fill="#DBDBDB"/>
<path d="M292.611 150.018H297.131V140.607H292.611V150.018Z" fill="#DBDBDB"/>
<path d="M284.608 150.018H289.128V140.607H284.608V150.018Z" fill="#DBDBDB"/>
<path d="M300.615 165.313H305.135V155.903H300.615V165.313Z" fill="#DBDBDB"/>
<path d="M292.611 165.313H297.131V155.903H292.611V165.313Z" fill="#DBDBDB"/>
<path d="M284.608 165.313H289.128V155.903H284.608V165.313Z" fill="#DBDBDB"/>
<path d="M300.615 180.602H305.135V171.191H300.615V180.602Z" fill="#DBDBDB"/>
<path d="M292.611 180.602H297.131V171.191H292.611V180.602Z" fill="#DBDBDB"/>
<path d="M284.608 180.602H289.128V171.191H284.608V180.602Z" fill="#DBDBDB"/>
<path d="M300.615 195.897H305.135V186.486H300.615V195.897Z" fill="#DBDBDB"/>
<path d="M292.611 195.897H297.131V186.486H292.611V195.897Z" fill="#DBDBDB"/>
<path d="M284.608 195.897H289.128V186.486H284.608V195.897Z" fill="#DBDBDB"/>
<path d="M300.615 211.192H305.135V201.782H300.615V211.192Z" fill="#DBDBDB"/>
<path d="M292.611 211.192H297.131V201.782H292.611V211.192Z" fill="#DBDBDB"/>
<path d="M284.608 211.192H289.128V201.782H284.608V211.192Z" fill="#DBDBDB"/>
<path d="M300.615 226.488H305.135V217.077H300.615V226.488Z" fill="#DBDBDB"/>
<path d="M292.611 226.488H297.131V217.077H292.611V226.488Z" fill="#DBDBDB"/>
<path d="M284.608 226.488H289.128V217.077H284.608V226.488Z" fill="#DBDBDB"/>
<path d="M300.615 241.783H305.135V232.372H300.615V241.783Z" fill="#DBDBDB"/>
<path d="M292.611 241.783H297.131V232.372H292.611V241.783Z" fill="#DBDBDB"/>
<path d="M284.608 241.783H289.128V232.372H284.608V241.783Z" fill="#DBDBDB"/>
<path d="M300.615 257.085H305.135V247.675H300.615V257.085Z" fill="#DBDBDB"/>
<path d="M292.611 257.085H297.131V247.675H292.611V257.085Z" fill="#DBDBDB"/>
<path d="M284.608 257.085H289.128V247.675H284.608V257.085Z" fill="#DBDBDB"/>
<path d="M300.615 268.834H305.135V262.97H300.615V268.834Z" fill="#DBDBDB"/>
<path d="M292.611 268.834H297.131V262.97H292.611V268.834Z" fill="#DBDBDB"/>
<path d="M284.608 268.834H289.128V262.97H284.608V268.834Z" fill="#DBDBDB"/>
<path d="M365.978 268.827H413.072V122.767H365.978V268.827Z" fill="#EBEBEB"/>
<path d="M365.985 122.774H406.375V110.387H365.985V122.774Z" fill="#C7C7C7"/>
<path d="M371.148 268.834H407.91V129.242H371.148V268.834Z" fill="#DBDBDB"/>
<path d="M371.148 145.854H407.91V142.555H371.148V145.854Z" fill="white"/>
<path d="M371.148 159.517H407.91V156.218H371.148V159.517Z" fill="white"/>
<path d="M371.148 173.18H407.91V169.881H371.148V173.18Z" fill="white"/>
<path d="M371.148 186.85H407.91V183.551H371.148V186.85Z" fill="white"/>
<path d="M371.148 200.513H407.91V197.214H371.148V200.513Z" fill="white"/>
<path d="M371.148 214.176H407.91V210.877H371.148V214.176Z" fill="white"/>
<path d="M371.148 227.839H407.91V224.54H371.148V227.839Z" fill="white"/>
<path d="M371.148 241.502H407.91V238.203H371.148V241.502Z" fill="white"/>
<path d="M371.148 255.165H407.91V251.865H371.148V255.165Z" fill="white"/>
<path d="M371.148 268.827H407.91V265.528H371.148V268.827Z" fill="white"/>
<path d="M336.485 268.827H365.979V122.767H336.485V268.827Z" fill="#DBDBDB"/>
<path d="M340.906 122.774H365.979V110.387H340.906V122.774Z" fill="#A6A6A6"/>
<path d="M339.233 268.834H361.911V129.242H339.233V268.834Z" fill="#C7C7C7"/>
<path d="M339.233 145.854H361.911V142.555H339.233V145.854Z" fill="white"/>
<path d="M339.233 159.517H361.911V156.218H339.233V159.517Z" fill="white"/>
<path d="M339.233 173.18H361.911V169.881H339.233V173.18Z" fill="white"/>
<path d="M339.233 186.85H361.911V183.551H339.233V186.85Z" fill="white"/>
<path d="M339.233 200.513H361.911V197.214H339.233V200.513Z" fill="white"/>
<path d="M339.233 214.176H361.911V210.877H339.233V214.176Z" fill="white"/>
<path d="M339.233 227.839H361.911V224.54H339.233V227.839Z" fill="white"/>
<path d="M339.233 241.502H361.911V238.203H339.233V241.502Z" fill="white"/>
<path d="M339.233 255.165H361.911V251.865H339.233V255.165Z" fill="white"/>
<path d="M339.233 268.827H361.911V265.528H339.233V268.827Z" fill="white"/>
<path d="M252.326 268.827H292.23V122.767H252.326V268.827Z" fill="#DBDBDB"/>
<path d="M278.895 144.366H285.953V135.415H278.895V144.366Z" fill="#C7C7C7"/>
<path d="M278.895 163.475H285.953V154.524H278.895V163.475Z" fill="#C7C7C7"/>
<path d="M278.895 182.591H285.953V173.64H278.895V182.591Z" fill="#C7C7C7"/>
<path d="M278.895 201.699H285.953V192.749H278.895V201.699Z" fill="#C7C7C7"/>
<path d="M278.895 220.815H285.953V211.864H278.895V220.815Z" fill="#C7C7C7"/>
<path d="M278.895 239.931H285.953V230.98H278.895V239.931Z" fill="#C7C7C7"/>
<path d="M278.895 259.04H285.953V250.089H278.895V259.04Z" fill="#C7C7C7"/>
<path d="M268.739 144.366H275.798V135.415H268.739V144.366Z" fill="#C7C7C7"/>
<path d="M268.739 163.475H275.798V154.524H268.739V163.475Z" fill="#C7C7C7"/>
<path d="M268.739 182.591H275.798V173.64H268.739V182.591Z" fill="#C7C7C7"/>
<path d="M268.739 201.699H275.798V192.749H268.739V201.699Z" fill="#C7C7C7"/>
<path d="M268.739 220.815H275.798V211.864H268.739V220.815Z" fill="#C7C7C7"/>
<path d="M268.739 239.931H275.798V230.98H268.739V239.931Z" fill="#C7C7C7"/>
<path d="M268.739 259.04H275.798V250.089H268.739V259.04Z" fill="#C7C7C7"/>
<path d="M258.605 144.366H265.663V135.415H258.605V144.366Z" fill="#C7C7C7"/>
<path d="M258.605 163.475H265.663V154.524H258.605V163.475Z" fill="#C7C7C7"/>
<path d="M258.605 182.591H265.663V173.64H258.605V182.591Z" fill="#C7C7C7"/>
<path d="M258.605 201.699H265.663V192.749H258.605V201.699Z" fill="#C7C7C7"/>
<path d="M258.605 220.815H265.663V211.864H258.605V220.815Z" fill="#C7C7C7"/>
<path d="M258.605 239.931H265.663V230.98H258.605V239.931Z" fill="#C7C7C7"/>
<path d="M258.605 259.04H265.663V250.089H258.605V259.04Z" fill="#C7C7C7"/>
<path d="M224.328 268.827H252.326L252.326 122.767H224.328L224.328 268.827Z" fill="#A6A6A6"/>
<path d="M232.948 248.662H227.201V257.613H232.948V248.662Z" fill="#C7C7C7"/>
<path d="M232.948 229.553H227.201V238.504H232.948V229.553Z" fill="#C7C7C7"/>
<path d="M232.948 210.438H227.201V219.389H232.948V210.438Z" fill="#C7C7C7"/>
<path d="M232.948 191.329H227.201V200.28H232.948V191.329Z" fill="#C7C7C7"/>
<path d="M232.948 172.213H227.201V181.164H232.948V172.213Z" fill="#C7C7C7"/>
<path d="M232.948 153.097H227.201V162.048H232.948V153.097Z" fill="#C7C7C7"/>
<path d="M232.948 133.988H227.201V142.939H232.948V133.988Z" fill="#C7C7C7"/>
<path d="M241.213 248.662H235.467V257.613H241.213V248.662Z" fill="#C7C7C7"/>
<path d="M241.213 229.553H235.467V238.504H241.213V229.553Z" fill="#C7C7C7"/>
<path d="M241.213 210.438H235.467V219.389H241.213V210.438Z" fill="#C7C7C7"/>
<path d="M241.213 191.329H235.467V200.28H241.213V191.329Z" fill="#C7C7C7"/>
<path d="M241.213 172.213H235.467V181.164H241.213V172.213Z" fill="#C7C7C7"/>
<path d="M241.213 153.097H235.467V162.048H241.213V153.097Z" fill="#C7C7C7"/>
<path d="M241.213 133.988H235.467V142.939H241.213V133.988Z" fill="#C7C7C7"/>
<path d="M249.459 248.662H243.713V257.613H249.459V248.662Z" fill="#C7C7C7"/>
<path d="M249.459 229.553H243.713V238.504H249.459V229.553Z" fill="#C7C7C7"/>
<path d="M249.459 210.438H243.713V219.389H249.459V210.438Z" fill="#C7C7C7"/>
<path d="M249.459 191.329H243.713V200.28H249.459V191.329Z" fill="#C7C7C7"/>
<path d="M249.459 172.213H243.713V181.164H249.459V172.213Z" fill="#C7C7C7"/>
<path d="M249.459 153.097H243.713V162.048H249.459V153.097Z" fill="#C7C7C7"/>
<path d="M249.459 133.988H243.713V142.939H249.459V133.988Z" fill="#C7C7C7"/>
<path d="M37.7552 116.306H62.9062L62.9062 85.2423H37.7552V116.306Z" fill="#DBDBDB"/>
<path d="M21.8085 117.445H37.7559L37.7559 85.2423H21.8085L21.8085 117.445Z" fill="#C7C7C7"/>
<path d="M20.7449 117.445H36.5742V98.9601H20.7449V117.445Z" fill="#DBDBDB"/>
<path d="M10.8723 117.445H20.7451L20.7451 98.9601H10.8723L10.8723 117.445Z" fill="#C7C7C7"/>
<path d="M31.8844 268.834H72.5498L72.5498 114.297H31.8844L31.8844 268.834Z" fill="#EBEBEB"/>
<path d="M55.1198 126.396H67.9053V120.929H55.1198V126.396Z" fill="white"/>
<path d="M38.7595 126.396H51.5449V120.929H38.7595V126.396Z" fill="white"/>
<path d="M55.1198 135.676H67.9053V130.209H55.1198V135.676Z" fill="white"/>
<path d="M38.7595 135.676H51.5449V130.209H38.7595V135.676Z" fill="white"/>
<path d="M55.1198 144.949H67.9053V139.482H55.1198V144.949Z" fill="white"/>
<path d="M38.7595 144.949H51.5449V139.482H38.7595V144.949Z" fill="white"/>
<path d="M55.1198 154.229H67.9053V148.763H55.1198V154.229Z" fill="white"/>
<path d="M38.7595 154.229H51.5449V148.763H38.7595V154.229Z" fill="white"/>
<path d="M55.1198 163.495H67.9053V158.029H55.1198V163.495Z" fill="white"/>
<path d="M38.7595 163.495H51.5449V158.029H38.7595V163.495Z" fill="white"/>
<path d="M55.1198 172.776H67.9053V167.309H55.1198V172.776Z" fill="white"/>
<path d="M38.7595 172.776H51.5449V167.309H38.7595V172.776Z" fill="white"/>
<path d="M55.1198 182.056H67.9053V176.589H55.1198V182.056Z" fill="white"/>
<path d="M38.7595 182.056H51.5449V176.589H38.7595V182.056Z" fill="white"/>
<path d="M55.1198 191.329H67.9053V185.862H55.1198V191.329Z" fill="white"/>
<path d="M38.7595 191.329H51.5449V185.862H38.7595V191.329Z" fill="white"/>
<path d="M55.1198 200.602H67.9053V195.136H55.1198V200.602Z" fill="white"/>
<path d="M38.7595 200.602H51.5449V195.136H38.7595V200.602Z" fill="white"/>
<path d="M55.1198 209.875H67.9053V204.409H55.1198V209.875Z" fill="white"/>
<path d="M38.7595 209.875H51.5449V204.409H38.7595V209.875Z" fill="white"/>
<path d="M55.1198 219.155H67.9053V213.689H55.1198V219.155Z" fill="white"/>
<path d="M38.7595 219.155H51.5449V213.689H38.7595V219.155Z" fill="white"/>
<path d="M55.1198 228.435H67.9053V222.969H55.1198V228.435Z" fill="white"/>
<path d="M38.7595 228.435H51.5449V222.969H38.7595V228.435Z" fill="white"/>
<path d="M55.1198 237.709H67.9053V232.242H55.1198V237.709Z" fill="white"/>
<path d="M38.7595 237.709H51.5449V232.242H38.7595V237.709Z" fill="white"/>
<path d="M55.1198 246.982H67.9053V241.515H55.1198V246.982Z" fill="white"/>
<path d="M38.7595 246.982H51.5449V241.515H38.7595V246.982Z" fill="white"/>
<path d="M-1.07365 268.834H31.8838L31.8838 114.297H-1.07365L-1.07365 268.834Z" fill="#C7C7C7"/>
<path d="M12.736 241.522H2.2334V246.989H12.736V241.522Z" fill="#EBEBEB"/>
<path d="M26.1705 241.522H15.668V246.989H26.1705V241.522Z" fill="#EBEBEB"/>
<path d="M12.736 232.242H2.2334V237.709H12.736V232.242Z" fill="#EBEBEB"/>
<path d="M26.1705 232.242H15.668V237.709H26.1705V232.242Z" fill="#EBEBEB"/>
<path d="M12.736 222.969H2.2334V228.435H12.736V222.969Z" fill="#EBEBEB"/>
<path d="M26.1705 222.969H15.668V228.435H26.1705V222.969Z" fill="#EBEBEB"/>
<path d="M12.736 213.696H2.2334V219.162H12.736V213.696Z" fill="#EBEBEB"/>
<path d="M26.1705 213.696H15.668V219.162H26.1705V213.696Z" fill="#EBEBEB"/>
<path d="M12.736 204.416H2.2334V209.882H12.736V204.416Z" fill="#EBEBEB"/>
<path d="M26.1705 204.416H15.668V209.882H26.1705V204.416Z" fill="#EBEBEB"/>
<path d="M12.736 195.142H2.2334V200.609H12.736V195.142Z" fill="#EBEBEB"/>
<path d="M26.1705 195.142H15.668V200.609H26.1705V195.142Z" fill="#EBEBEB"/>
<path d="M12.736 185.862H2.2334V191.329H12.736V185.862Z" fill="#EBEBEB"/>
<path d="M26.1705 185.862H15.668V191.329H26.1705V185.862Z" fill="#EBEBEB"/>
<path d="M12.736 176.589H2.2334V182.056H12.736V176.589Z" fill="#EBEBEB"/>
<path d="M26.1705 176.589H15.668V182.056H26.1705V176.589Z" fill="#EBEBEB"/>
<path d="M12.736 167.316H2.2334V172.782H12.736V167.316Z" fill="#EBEBEB"/>
<path d="M26.1705 167.316H15.668V172.782H26.1705V167.316Z" fill="#EBEBEB"/>
<path d="M12.736 158.036H2.2334V163.502H12.736V158.036Z" fill="#EBEBEB"/>
<path d="M26.1705 158.036H15.668V163.502H26.1705V158.036Z" fill="#EBEBEB"/>
<path d="M12.736 148.763H2.2334V154.229H12.736V148.763Z" fill="#EBEBEB"/>
<path d="M26.1705 148.763H15.668V154.229H26.1705V148.763Z" fill="#EBEBEB"/>
<path d="M12.736 139.482H2.2334V144.949H12.736V139.482Z" fill="#EBEBEB"/>
<path d="M26.1705 139.482H15.668V144.949H26.1705V139.482Z" fill="#EBEBEB"/>
<path d="M12.736 130.209H2.2334V135.676H12.736V130.209Z" fill="#EBEBEB"/>
<path d="M26.1705 130.209H15.668V135.676H26.1705V130.209Z" fill="#EBEBEB"/>
<path d="M12.736 120.936H2.2334V126.403H12.736V120.936Z" fill="#EBEBEB"/>
<path d="M26.1705 120.936H15.668V126.403H26.1705V120.936Z" fill="#EBEBEB"/>
<path d="M151.185 268.827H199.151V168.125H151.185V268.827Z" fill="#C7C7C7"/>
<path d="M183.119 183.016H191.607V176.85H183.119V183.016Z" fill="#DBDBDB"/>
<path d="M183.119 196.192H191.607V190.026H183.119V196.192Z" fill="#DBDBDB"/>
<path d="M183.119 209.375H191.607V203.202H183.119V209.375Z" fill="#DBDBDB"/>
<path d="M183.119 222.544H191.607V216.378H183.119V222.544Z" fill="#DBDBDB"/>
<path d="M183.119 235.726H191.607V229.553H183.119V235.726Z" fill="#DBDBDB"/>
<path d="M183.119 248.902H191.607V242.729H183.119V248.902Z" fill="#DBDBDB"/>
<path d="M183.119 262.085H191.607V255.912H183.119V262.085Z" fill="#DBDBDB"/>
<path d="M170.904 183.016H179.393V176.85H170.904V183.016Z" fill="#DBDBDB"/>
<path d="M170.904 196.192H179.393V190.026H170.904V196.192Z" fill="#DBDBDB"/>
<path d="M170.904 209.375H179.393V203.202H170.904V209.375Z" fill="#DBDBDB"/>
<path d="M170.904 222.544H179.393V216.378H170.904V222.544Z" fill="#DBDBDB"/>
<path d="M170.904 235.726H179.393V229.553H170.904V235.726Z" fill="#DBDBDB"/>
<path d="M170.904 248.902H179.393V242.729H170.904V248.902Z" fill="#DBDBDB"/>
<path d="M170.904 262.085H179.393V255.912H170.904V262.085Z" fill="#DBDBDB"/>
<path d="M158.722 183.016H167.211V176.85H158.722V183.016Z" fill="#DBDBDB"/>
<path d="M158.722 196.192H167.211V190.026H158.722V196.192Z" fill="#DBDBDB"/>
<path d="M158.722 209.375H167.211V203.202H158.722V209.375Z" fill="#DBDBDB"/>
<path d="M158.722 222.544H167.211V216.378H158.722V222.544Z" fill="#DBDBDB"/>
<path d="M158.722 235.726H167.211V229.553H158.722V235.726Z" fill="#DBDBDB"/>
<path d="M158.722 248.902H167.211V242.729H158.722V248.902Z" fill="#DBDBDB"/>
<path d="M158.722 262.085H167.211V255.912H158.722V262.085Z" fill="#DBDBDB"/>
<path d="M151.184 168.132H183.118V157.638H151.184V168.132Z" fill="#DBDBDB"/>
<path d="M151.185 157.638H171.429V151.143H151.185V157.638Z" fill="#EBEBEB"/>
<path d="M117.525 268.827H151.178V168.125H117.525L117.525 268.827Z" fill="#A6A6A6"/>
<path d="M127.876 254.925H120.969V261.098H127.876V254.925Z" fill="#C7C7C7"/>
<path d="M127.876 241.749H120.969V247.915H127.876V241.749Z" fill="#C7C7C7"/>
<path d="M127.876 228.573H120.969V234.746H127.876V228.573Z" fill="#C7C7C7"/>
<path d="M127.876 215.397H120.969V221.57H127.876V215.397Z" fill="#C7C7C7"/>
<path d="M127.876 202.214H120.969V208.387H127.876V202.214Z" fill="#C7C7C7"/>
<path d="M127.876 189.038H120.969V195.204H127.876V189.038Z" fill="#C7C7C7"/>
<path d="M127.876 175.862H120.969V182.028H127.876V175.862Z" fill="#C7C7C7"/>
<path d="M137.815 254.925H130.907V261.098H137.815V254.925Z" fill="#C7C7C7"/>
<path d="M137.815 241.749H130.907V247.915H137.815V241.749Z" fill="#C7C7C7"/>
<path d="M137.815 228.573H130.907V234.746H137.815V228.573Z" fill="#C7C7C7"/>
<path d="M137.815 215.397H130.907V221.57H137.815V215.397Z" fill="#C7C7C7"/>
<path d="M137.815 202.214H130.907V208.387H137.815V202.214Z" fill="#C7C7C7"/>
<path d="M137.815 189.038H130.907V195.204H137.815V189.038Z" fill="#C7C7C7"/>
<path d="M137.815 175.862H130.907V182.028H137.815V175.862Z" fill="#C7C7C7"/>
<path d="M147.734 254.925H140.826V261.098H147.734V254.925Z" fill="#C7C7C7"/>
<path d="M147.734 241.749H140.826V247.915H147.734V241.749Z" fill="#C7C7C7"/>
<path d="M147.734 228.573H140.826V234.746H147.734V228.573Z" fill="#C7C7C7"/>
<path d="M147.734 215.397H140.826V221.57H147.734V215.397Z" fill="#C7C7C7"/>
<path d="M147.734 202.214H140.826V208.387H147.734V202.214Z" fill="#C7C7C7"/>
<path d="M147.734 189.038H140.826V195.204H147.734V189.038Z" fill="#C7C7C7"/>
<path d="M147.734 175.862H140.826V182.028H147.734V175.862Z" fill="#C7C7C7"/>
<path d="M122.622 168.132H151.178V157.638H122.622V168.132Z" fill="#C7C7C7"/>
<path d="M135.703 157.638H151.178V151.143H135.703V157.638Z" fill="#DBDBDB"/>
<path d="M-1.70898 268.834C131.361 268.409 280.64 268.409 413.71 268.834C280.64 269.253 131.361 269.253 -1.70898 268.834Z" fill="#263238"/>
<path d="M452 284.397V309H-40V284.397L27.6205 268.827H377.82L452 284.397Z" fill="#A6A6A6"/>
<path d="M452 286.77V288.06L365.814 268.827H369.803L452 286.77Z" fill="#FFC727"/>
<path d="M39.6253 268.827L-40 288.06V286.77L35.6368 268.827H39.6253Z" fill="#FFC727"/>
<path d="M210.467 309H201.532L203.92 268.827H208.073L210.467 309Z" fill="#C7C7C7"/>
<path d="M82.6721 95.3112C82.6721 95.3112 76.0727 92.4304 75.0821 90.8117C74.0916 89.193 69.8341 82.3753 68.2991 82.1078C62.6444 81.1133 47.2021 81.7169 42.0197 84.6319C39.1793 86.23 42.1706 98.0273 44.7749 100.791C47.3793 103.556 65.9965 104.139 69.0076 103.501C72.0186 102.863 74.2556 99.6391 74.2556 99.6391L81.6618 101.793L82.6721 95.3112Z" fill="#7E60BF"/>
<path d="M84.5024 86.6278C84.5024 86.6278 79.4906 87.3892 78.277 88.4866C77.0634 89.584 73.2586 98.384 73.5013 101.429C73.7441 104.475 76.8207 107.602 76.8207 107.602L84.5024 86.6278Z" fill="#5A419E"/>
<path opacity="0.1" d="M84.5024 86.6278C84.5024 86.6278 79.4906 87.3892 78.277 88.4866C77.0634 89.584 73.2586 98.384 73.5013 101.429C73.7441 104.475 76.8207 107.602 76.8207 107.602L84.5024 86.6278Z" fill="#5A419E"/>
<path d="M329.328 95.3112C329.328 95.3112 335.927 92.4304 336.918 90.8117C337.909 89.193 342.166 82.3753 343.701 82.1078C349.356 81.1133 364.798 81.7169 369.98 84.6319C372.821 86.23 369.83 98.0273 367.225 100.791C364.621 103.556 346.004 104.139 342.993 103.501C339.982 102.863 337.745 99.6391 337.745 99.6391L330.338 101.793L329.328 95.3112Z" fill="#7E60BF"/>
<path d="M327.498 86.6278C327.498 86.6278 332.51 87.3892 333.723 88.4866C334.937 89.584 338.742 98.384 338.499 101.429C338.256 104.475 335.18 107.602 335.18 107.602L327.498 86.6278Z" fill="#5A419E"/>
<path opacity="0.1" d="M327.498 86.6278C327.498 86.6278 332.51 87.3892 333.723 88.4866C334.937 89.584 338.742 98.384 338.499 101.429C338.256 104.475 335.18 107.602 335.18 107.602L327.498 86.6278Z" fill="#5A419E"/>
<path d="M84.66 165.951H51.965C47.8891 165.951 44.585 169.406 44.585 173.667V261.729C44.585 265.99 47.8891 269.445 51.965 269.445H84.66C88.7359 269.445 92.04 265.99 92.04 261.729V173.667C92.04 169.406 88.7359 165.951 84.66 165.951Z" fill="#263238"/>
<path d="M60.2762 136.053C60.2762 136.053 49.2751 141.917 46.6839 147.329C44.0927 152.741 46.6839 208.682 46.6839 212.969C46.6839 217.255 54.6543 245.205 56.1696 248.155C57.685 251.104 78.6114 254.472 78.6114 254.472L60.2762 136.053Z" fill="#7E60BF"/>
<path opacity="0.1" d="M60.2762 136.053C60.2762 136.053 49.2751 141.917 46.6839 147.329C44.0927 152.741 46.6839 208.682 46.6839 212.969C46.6839 217.255 54.6543 245.205 56.1696 248.155C57.685 251.104 78.6114 254.472 78.6114 254.472L60.2762 136.053Z" fill="black"/>
<path d="M327.347 269.445H360.042C364.118 269.445 367.422 265.99 367.422 261.728V173.667C367.422 169.406 364.118 165.951 360.042 165.951H327.347C323.271 165.951 319.967 169.406 319.967 173.667V261.728C319.967 265.99 323.271 269.445 327.347 269.445Z" fill="#263238"/>
<path d="M351.724 136.053C351.724 136.053 362.732 141.917 365.316 147.329C367.901 152.741 365.316 208.682 365.316 212.969C365.316 217.255 357.346 245.205 355.83 248.155C354.315 251.104 333.389 254.472 333.389 254.472L351.724 136.053Z" fill="#7E60BF"/>
<path opacity="0.1" d="M351.724 136.053C351.724 136.053 362.732 141.917 365.316 147.329C367.901 152.741 365.316 208.682 365.316 212.969C365.316 217.255 357.346 245.205 355.83 248.155C354.315 251.104 333.389 254.472 333.389 254.472L351.724 136.053Z" fill="#7E60BF"/>
<path d="M354.604 221.316C354.604 220.184 355.759 141.609 355.431 140.079C355.103 138.55 352.033 127.905 350.661 125.621C349.29 123.337 336.99 107.102 336.669 106.08C329.099 82.3547 307.943 38.9448 304.709 35.8926C301.682 33.0793 297.949 31.2301 293.95 30.5632C290.716 30.1448 246.948 28.4713 206 28.4713C165.053 28.4713 121.285 30.1586 118.057 30.5769C114.056 31.2422 110.32 33.0915 107.292 35.9063C104.051 38.9585 82.8954 82.3684 75.3383 106.093C75.0168 107.108 62.7168 123.35 61.3392 125.634C59.9616 127.918 56.885 138.577 56.5635 140.093C56.2421 141.609 57.4032 220.198 57.4032 221.33C57.4032 222.461 55.8944 227.647 55.9994 229.108C56.1043 230.569 60.8538 251.557 62.789 253.69C64.7242 255.823 103.566 257.524 105.941 257.524C108.315 257.524 115.781 253.134 117.158 252.798C118.536 252.462 196.469 252.682 206 252.682C215.532 252.682 293.445 252.448 294.842 252.798C296.24 253.148 303.692 257.524 306.053 257.524C308.415 257.524 347.263 255.837 349.199 253.69C351.134 251.543 355.896 230.575 356.001 229.108C356.106 227.64 354.604 222.441 354.604 221.316ZM206 107.602C139.705 107.602 81.2423 104.927 81.2423 104.927C93.2077 73.5753 108.86 40.6389 110.579 39.2809C112.297 37.9228 118.451 35.5565 120.176 35.1107C127.523 33.1902 180.042 32.8541 206 32.8541C231.958 32.8541 284.471 33.1902 291.818 35.1107C293.55 35.5565 299.69 37.9297 301.422 39.2809C303.154 40.6321 318.793 73.5753 330.758 104.927C330.758 104.927 272.296 107.602 206 107.602Z" fill="#7E60BF"/>
<path opacity="0.1" d="M346.581 215.109C346.581 216.48 344.829 226.988 343.694 227.283C312.449 235.411 237.422 242.242 206 241.687C174.597 242.229 99.5572 235.397 68.3119 227.283C67.1705 226.988 65.4189 216.46 65.4189 215.109C65.4189 213.757 66.7309 198.757 68.3119 198.311C69.8929 197.865 102.962 204.066 130.75 207.914C169.5 213.298 206 212.79 206 212.79C206 212.79 242.493 213.298 281.25 207.914C309.031 204.059 342.087 197.845 343.694 198.311C345.301 198.778 346.581 213.751 346.581 215.109Z" fill="black"/>
<path opacity="0.5" d="M316.057 202.529L305.417 234.176C270.773 238.895 227.831 242.078 206 241.721C184.162 242.098 141.226 238.916 106.59 234.176L95.9492 202.529C106.694 204.299 119.178 206.316 130.75 207.921C169.5 213.305 206 212.797 206 212.797C206 212.797 242.486 213.305 281.25 207.921C292.815 206.316 305.312 204.299 316.057 202.529Z" fill="white"/>
<path d="M281.25 207.921C281.408 208.675 275.432 221.09 270.925 228.497C269.613 230.692 263.125 235.768 261.623 236.104C260.121 236.44 241.49 241.721 206.001 241.721C170.511 241.721 151.9 236.44 150.378 236.104C148.856 235.768 142.421 230.671 141.057 228.477C136.55 221.09 130.561 208.675 130.731 207.9C130.902 207.125 153.147 212.777 205.981 212.777C258.815 212.777 281.113 207.173 281.25 207.921Z" fill="#263238"/>
<path d="M84.4766 221.265C87.8205 219.817 89.4084 215.809 88.0233 212.313C86.6382 208.816 82.8047 207.156 79.4608 208.604C76.117 210.053 74.5291 214.061 75.9141 217.557C77.2992 221.053 81.1328 222.713 84.4766 221.265Z" fill="white"/>
<path d="M77.3323 210.095C81.452 205.616 89.1403 208.6 89.3568 214.944C89.3897 215.968 89.2211 216.987 88.8616 217.94C88.502 218.892 87.9591 219.757 87.2665 220.482C86.5739 221.206 85.7465 221.773 84.8354 222.149C83.9243 222.525 82.9491 222.702 81.9702 222.667C75.9022 222.468 73.0486 214.402 77.3323 210.095ZM77.3323 210.095C76.7439 210.717 76.2839 211.459 75.981 212.275C75.678 213.091 75.5385 213.963 75.5711 214.838C75.6037 215.712 75.8077 216.57 76.1705 217.359C76.5332 218.148 77.047 218.85 77.68 219.423C83.4659 224.293 90.9181 216.501 86.2605 210.451C85.7117 209.79 85.039 209.253 84.2838 208.874C83.5287 208.496 82.7072 208.283 81.8703 208.25C81.0334 208.216 80.1988 208.363 79.4183 208.68C78.6377 208.997 77.9277 209.479 77.3323 210.095Z" fill="#DBDBDB"/>
<path d="M330.828 221.605C334.35 220.732 336.528 217.039 335.693 213.357C334.858 209.675 331.326 207.398 327.804 208.271C324.283 209.144 322.105 212.837 322.94 216.519C323.775 220.201 327.307 222.478 330.828 221.605Z" fill="white"/>
<path d="M333.953 210.095C333.358 209.479 332.649 208.998 331.869 208.68C331.089 208.363 330.255 208.217 329.418 208.25C328.582 208.283 327.761 208.496 327.006 208.875C326.252 209.253 325.58 209.79 325.032 210.451C320.367 216.508 327.826 224.293 333.612 219.423C334.245 218.85 334.758 218.147 335.12 217.358C335.482 216.569 335.685 215.711 335.717 214.836C335.749 213.962 335.609 213.09 335.306 212.274C335.002 211.458 334.542 210.717 333.953 210.095ZM333.953 210.095C338.243 214.402 335.39 222.441 329.322 222.667C328.342 222.703 327.366 222.527 326.454 222.151C325.542 221.775 324.714 221.207 324.021 220.482C323.328 219.756 322.785 218.89 322.426 217.936C322.068 216.982 321.9 215.961 321.935 214.937C322.132 208.606 329.807 205.609 333.953 210.095Z" fill="#DBDBDB"/>
<path opacity="0.5" d="M330.758 104.927C330.758 104.927 272.296 107.602 206 107.602C139.705 107.602 81.2422 104.927 81.2422 104.927C93.2076 73.5754 108.86 40.6389 110.578 39.2809C112.297 37.9228 118.451 35.5565 120.176 35.1107C127.523 33.1902 180.042 32.8541 206 32.8541C231.958 32.8541 284.471 33.1902 291.818 35.1107C293.55 35.5565 299.69 37.9297 301.422 39.2809C303.154 40.6321 318.793 73.5754 330.758 104.927Z" fill="#DBDBDB"/>
<path d="M182.522 79.1654H109.207C108.079 79.1653 106.988 79.5858 106.129 80.3514C105.271 81.117 104.701 82.1774 104.523 83.3424L102.437 97.1151C102.329 97.8226 102.369 98.5462 102.554 99.236C102.74 99.9258 103.066 100.565 103.511 101.11C103.955 101.656 104.508 102.093 105.13 102.394C105.752 102.694 106.429 102.849 107.115 102.849H184.614C185.3 102.849 185.977 102.694 186.599 102.394C187.221 102.093 187.774 101.656 188.219 101.11C188.663 100.565 188.989 99.9258 189.175 99.236C189.36 98.5462 189.4 97.8226 189.292 97.1151L187.206 83.3424C187.029 82.1768 186.46 81.1156 185.601 80.3497C184.743 79.5839 183.65 79.1639 182.522 79.1654Z" fill="#FFC727"/>
<path d="M168.103 63.191H123.626C122.231 63.191 121.101 64.3733 121.101 65.8317V81.8609C121.101 83.3193 122.231 84.5016 123.626 84.5016H168.103C169.498 84.5016 170.629 83.3193 170.629 81.8609V65.8317C170.629 64.3733 169.498 63.191 168.103 63.191Z" fill="#FFC727"/>
<g opacity="0.4">
<path d="M182.522 79.1654H109.207C108.079 79.1653 106.988 79.5858 106.129 80.3514C105.271 81.117 104.701 82.1774 104.523 83.3424L102.437 97.1151C102.329 97.8226 102.369 98.5462 102.554 99.236C102.74 99.9258 103.066 100.565 103.511 101.11C103.955 101.656 104.508 102.093 105.13 102.394C105.752 102.694 106.429 102.849 107.115 102.849H184.614C185.3 102.849 185.977 102.694 186.599 102.394C187.221 102.093 187.774 101.656 188.219 101.11C188.663 100.565 188.989 99.9258 189.175 99.236C189.36 98.5462 189.4 97.8226 189.292 97.1151L187.206 83.3424C187.029 82.1768 186.46 81.1156 185.601 80.3497C184.743 79.5839 183.65 79.1639 182.522 79.1654Z" fill="black"/>
<path d="M168.103 63.191H123.626C122.231 63.191 121.101 64.3733 121.101 65.8317V81.8609C121.101 83.3193 122.231 84.5016 123.626 84.5016H168.103C169.498 84.5016 170.629 83.3193 170.629 81.8609V65.8317C170.629 64.3733 169.498 63.191 168.103 63.191Z" fill="black"/>
</g>
<path d="M302.793 79.1654H229.479C228.35 79.1639 227.258 79.5839 226.399 80.3497C225.541 81.1156 224.972 82.1768 224.795 83.3424L222.709 97.1151C222.601 97.8226 222.641 98.5462 222.826 99.236C223.011 99.9258 223.337 100.565 223.782 101.11C224.227 101.656 224.779 102.093 225.401 102.394C226.024 102.694 226.701 102.849 227.386 102.849H304.886C305.571 102.849 306.248 102.694 306.871 102.394C307.493 102.093 308.045 101.656 308.49 101.11C308.935 100.565 309.261 99.9258 309.446 99.236C309.632 98.5462 309.671 97.8226 309.563 97.1151L307.477 83.3424C307.299 82.1774 306.73 81.117 305.871 80.3514C305.013 79.5858 303.922 79.1653 302.793 79.1654Z" fill="#FFC727"/>
<path d="M288.373 63.191H243.897C242.502 63.191 241.371 64.3733 241.371 65.8317V81.8609C241.371 83.3193 242.502 84.5016 243.897 84.5016H288.373C289.768 84.5016 290.899 83.3193 290.899 81.8609V65.8317C290.899 64.3733 289.768 63.191 288.373 63.191Z" fill="#FFC727"/>
<g opacity="0.4">
<path d="M302.793 79.1654H229.479C228.35 79.1639 227.258 79.5839 226.399 80.3497C225.541 81.1156 224.972 82.1768 224.795 83.3424L222.709 97.1151C222.601 97.8226 222.641 98.5462 222.826 99.236C223.011 99.9258 223.337 100.565 223.782 101.11C224.227 101.656 224.779 102.093 225.401 102.394C226.024 102.694 226.701 102.849 227.386 102.849H304.886C305.571 102.849 306.248 102.694 306.871 102.394C307.493 102.093 308.045 101.656 308.49 101.11C308.935 100.565 309.261 99.9258 309.446 99.236C309.632 98.5462 309.671 97.8226 309.563 97.1151L307.477 83.3424C307.299 82.1774 306.73 81.117 305.871 80.3514C305.013 79.5858 303.922 79.1653 302.793 79.1654Z" fill="black"/>
<path d="M288.374 63.191H243.898C242.503 63.191 241.372 64.3733 241.372 65.8317V81.8609C241.372 83.3193 242.503 84.5016 243.898 84.5016H288.374C289.769 84.5016 290.9 83.3193 290.9 81.8609V65.8317C290.9 64.3733 289.769 63.191 288.374 63.191Z" fill="black"/>
</g>
<g opacity="0.3">
<path d="M176.401 32.9913L106.682 105.888C98.1931 105.606 91.5019 105.353 87.1133 105.202L155.888 33.2725C162.54 33.1422 169.553 33.053 176.401 32.9913Z" fill="white"/>
<path d="M313.735 64.1375L272.913 106.793C266.385 106.944 259.471 107.088 252.262 107.204L307.097 49.871C308.993 53.808 311.269 58.6504 313.735 64.1375Z" fill="white"/>
<path d="M149.374 33.4028L81.4258 104.447C82.1277 102.623 82.8362 100.785 83.5578 98.9601L146.18 33.4851L149.374 33.4028Z" fill="white"/>
<path d="M247.138 33.1147L176.047 107.431L172.964 107.397L244.048 33.0804L247.138 33.1147Z" fill="white"/>
<path d="M329.912 102.719L327.669 105.058L324.389 105.188L328.981 100.387C329.328 101.176 329.617 101.944 329.912 102.719Z" fill="white"/>
<path d="M274.126 33.7458L203.488 107.602H196.554L267.402 33.5263C269.737 33.5949 271.994 33.6634 274.126 33.7458Z" fill="white"/>
</g>
<path d="M330.758 104.927C330.758 104.927 272.296 107.602 206 107.602C139.705 107.602 81.2422 104.927 81.2422 104.927C82.3705 101.978 83.5316 99.0904 84.6993 96.2783C98.1539 96.8407 149.204 98.8024 206 98.8024C262.797 98.8024 313.847 96.8407 327.308 96.2783C328.475 99.0859 329.626 101.969 330.758 104.927Z" fill="#263238"/>
<path opacity="0.1" d="M81.2419 104.927C78.5195 111.574 74.7869 117.788 71.0018 123.817C70.8968 123.974 70.7 124.297 70.6016 124.455C70.3983 125.141 71.1658 126.595 71.5659 127.335C72.1432 128.419 72.8254 129.455 73.4946 130.525C71.8611 129.153 68.0629 125.833 69.3815 123.398C72.6734 116.804 76.6509 110.61 81.2419 104.927Z" fill="black"/>
<path opacity="0.1" d="M330.758 104.927C335.351 110.608 339.329 116.803 342.618 123.398C343.93 125.84 340.152 129.16 338.512 130.525C339.168 129.455 339.824 128.419 340.434 127.335C340.841 126.601 341.608 125.154 341.405 124.455C341.306 124.297 341.103 123.974 340.998 123.817C337.219 117.788 333.487 111.58 330.758 104.927Z" fill="black"/>
<path opacity="0.1" d="M353.482 156.047C353.482 157.48 353.423 165.704 352.354 166.376C349.369 168.249 336.184 172.611 327.957 174.195C289.463 181.623 233.493 185.807 206 185.327C178.501 185.807 122.538 181.623 84.0435 174.195C75.8238 172.611 62.6382 168.249 59.6469 166.376C58.5776 165.69 58.5186 157.46 58.5186 156.047C58.5186 154.634 67.7026 135.47 69.3819 135.01C71.0613 134.551 90.0853 145.834 121.934 151.828C154.596 158.001 206 158.132 206 158.132C206 158.132 257.411 157.974 290.067 151.828C321.916 145.834 340.92 135.539 342.626 136.053C344.331 136.567 353.482 154.675 353.482 156.047Z" fill="black"/>
<path opacity="0.5" d="M352.354 166.404C341.366 172.529 329.151 175.732 316.93 177.92C304.732 180.243 292.487 182.225 280.194 183.866C255.581 187.09 230.843 189.69 205.994 189.655C165.682 189.299 125.47 184.031 85.9455 176.061C76.797 174.119 67.9476 170.869 59.6465 166.404C68.1306 170.286 77.0511 173.029 86.1948 174.566C125.85 180.554 165.912 185.375 206 185.602C230.659 185.746 255.312 183.283 279.853 180.739C292.133 179.367 304.407 177.831 316.635 175.985C322.735 175.046 328.875 174.326 334.839 172.645C340.802 170.965 346.758 169.14 352.354 166.417V166.404Z" fill="white"/>
<path d="M76.3744 131.224C83.0131 131.869 114.534 152.336 115.859 154.016C117.184 155.697 120.385 172.625 118.398 174.284C116.41 175.944 92.5907 175.094 85.4141 173.887C78.2374 172.68 63.4118 168.482 60.0728 165.793C56.7338 163.104 59.2922 144.188 62.5722 140.415C66.7837 135.532 72.1169 130.813 76.3744 131.224Z" fill="white"/>
<path d="M76.3745 131.224C78.0832 131.582 79.7441 132.156 81.3208 132.932C86.1096 135.113 90.695 137.733 95.2739 140.367C102.116 144.387 108.978 148.378 115.472 152.981C116.28 153.576 116.848 154.463 117.066 155.471C117.614 157.225 118.072 159.008 118.437 160.814C119.159 164.456 119.841 168.043 119.828 171.788C119.775 173.914 119.434 175.313 117.204 175.601C111.516 176.472 105.77 176.15 100.063 176.04C94.8147 175.773 89.5667 175.595 84.3187 174.627C76.5976 172.961 68.9158 170.821 61.7129 167.432C60.8526 167.033 60.0596 166.491 59.3645 165.827C57.4293 162.576 58.1246 158.399 58.3411 154.792C59.0299 149.901 59.6531 144.606 62.3558 140.429C66.0228 136.519 70.6936 131.128 76.3155 131.204L76.3745 131.224ZM76.3745 131.224C71.0216 131.224 66.9281 135.847 63.4251 139.558C62.2168 140.858 61.3453 142.458 60.8929 144.208C59.8802 147.677 59.2486 151.255 59.0102 154.874C58.7513 157.553 58.8352 160.256 59.2595 162.912C59.5416 164.284 59.9155 165.272 61.0963 165.855C66.9216 168.784 73.3504 170.21 79.6152 171.76C86.3457 173.461 93.2665 173.763 100.174 174.031C103.638 174.168 107.108 174.25 110.559 174.202C112.953 174.106 115.584 174.25 117.84 173.578C117.84 173.681 118.004 173.338 118.05 172.961C118.503 169.079 117.768 165.039 117.158 161.095C116.827 158.899 116.299 156.741 115.584 154.647C115.479 154.332 115.151 154.147 114.855 153.866C108.538 149.064 101.847 144.805 95.1427 140.614C90.6675 137.804 86.0489 135.251 81.3076 132.967C79.7367 132.179 78.0802 131.594 76.3745 131.224Z" fill="#DBDBDB"/>
<path d="M92.7346 156.465C92.8199 164.696 83.1636 169.175 77.3646 163.489C73.5204 159.901 73.5204 153.015 77.3646 149.448C83.1702 143.756 92.8265 148.262 92.7412 156.465H92.7346ZM92.7346 156.465C92.7806 148.728 83.426 144.976 78.5454 150.69C77.1638 152.269 76.3976 154.332 76.3976 156.472C76.3976 158.612 77.1638 160.675 78.5454 162.254C83.426 167.974 92.7806 164.209 92.7346 156.465Z" fill="#DBDBDB"/>
<path d="M110.369 162.473C110.493 169.415 102.142 173.379 97.2486 168.523C96.4591 167.746 95.83 166.809 95.3999 165.769C94.9699 164.728 94.748 163.607 94.748 162.473C94.748 161.34 94.9699 160.219 95.3999 159.178C95.83 158.138 96.4591 157.201 97.2486 156.424C102.155 151.561 110.513 155.532 110.369 162.473ZM110.369 162.473C110.369 155.91 102.529 152.823 98.4228 157.672C94.5852 161.918 97.406 169.332 103.015 169.655C103.954 169.715 104.895 169.575 105.781 169.243C106.666 168.91 107.478 168.392 108.165 167.721C108.853 167.049 109.402 166.238 109.78 165.337C110.158 164.436 110.356 163.464 110.362 162.48L110.369 162.473Z" fill="#DBDBDB"/>
<path d="M73.4883 147.994C72.4715 151.074 71.3891 166.074 71.9335 168.057C72.3885 169.181 73.0204 170.217 73.8031 171.123C67.8598 169.435 61.9951 167.364 60.0731 165.793C56.734 163.111 59.299 144.195 62.579 140.415C66.7839 135.539 72.1303 130.813 76.355 131.245C77.8507 131.389 80.6387 132.548 84.0499 134.283C84.0695 134.27 74.4919 144.915 73.4883 147.994Z" fill="#6752A0"/>
<path opacity="0.2" d="M73.4883 147.994C72.4715 151.074 71.3891 166.074 71.9335 168.05C72.3866 169.177 73.0187 170.216 73.8031 171.123C67.8598 169.435 61.9951 167.364 60.0731 165.793C56.734 163.111 59.299 144.195 62.579 140.415C66.7839 135.539 72.1303 130.813 76.355 131.238C77.8507 131.389 80.6387 132.548 84.0499 134.283C84.0695 134.27 74.4919 144.915 73.4883 147.994Z" fill="#6752A0"/>
<path d="M335.625 131.224C328.993 131.869 297.472 152.336 296.141 154.016C294.809 155.697 291.621 172.625 293.608 174.284C295.596 175.944 319.415 175.094 326.586 173.887C333.756 172.68 348.594 168.482 351.933 165.793C355.272 163.104 352.707 144.188 349.427 140.415C345.216 135.532 339.883 130.813 335.625 131.224Z" fill="white"/>
<path d="M335.626 131.224C333.923 131.597 332.269 132.182 330.699 132.967C325.958 135.251 321.34 137.804 316.864 140.614C310.16 144.805 303.469 149.078 297.184 153.866C296.896 154.147 296.568 154.332 296.463 154.647C295.742 156.739 295.213 158.898 294.882 161.095C294.272 165.039 293.537 169.079 293.99 172.961C294.042 173.338 294.226 173.647 294.206 173.578C294.499 173.698 294.806 173.779 295.118 173.818C300.648 174.504 306.27 174.182 311.872 174.031C318.773 173.763 325.694 173.461 332.431 171.76C338.69 170.21 345.118 168.784 350.944 165.855C352.124 165.272 352.505 164.257 352.78 162.912C353.205 160.256 353.289 157.553 353.03 154.874C352.79 151.256 352.161 147.678 351.154 144.208C350.698 142.458 349.824 140.858 348.615 139.558C345.118 135.847 341.018 131.224 335.665 131.224H335.626ZM335.626 131.224C341.254 131.149 345.919 136.54 349.592 140.45C352.288 144.627 352.944 149.922 353.6 154.812C353.823 158.44 354.512 162.569 352.577 165.848C351.885 166.51 351.094 167.05 350.235 167.446C343.019 170.841 335.344 172.981 327.623 174.648C318.95 176.088 310.173 176.219 301.383 176.157C299.158 176.146 296.937 175.967 294.738 175.622C294.187 175.543 293.655 175.357 293.17 175.073C292.912 174.857 292.699 174.589 292.542 174.285C292.385 173.981 292.289 173.647 292.258 173.304C291.792 169.065 292.756 164.922 293.511 160.814C293.879 159.008 294.338 157.225 294.888 155.471C295.102 154.461 295.671 153.572 296.482 152.981C302.997 148.378 309.858 144.373 316.7 140.367C321.292 137.747 325.884 135.113 330.654 132.932C332.229 132.154 333.891 131.58 335.6 131.224H335.626Z" fill="#DBDBDB"/>
<path d="M319.272 156.465C319.22 164.209 328.581 167.974 333.461 162.247C334.842 160.669 335.608 158.608 335.608 156.469C335.608 154.329 334.842 152.268 333.461 150.69C328.581 144.976 319.233 148.728 319.279 156.465H319.272ZM319.272 156.465C319.187 148.234 328.843 143.756 334.642 149.448C338.48 153.015 338.48 159.901 334.642 163.489C328.837 169.168 319.187 164.675 319.272 156.465Z" fill="#DBDBDB"/>
<path d="M301.638 162.473C301.644 163.458 301.841 164.431 302.219 165.333C302.597 166.235 303.147 167.047 303.835 167.719C304.524 168.391 305.337 168.908 306.223 169.24C307.11 169.572 308.052 169.71 308.992 169.648C317.428 168.777 317.428 156.177 308.992 155.306C305.194 154.888 301.56 158.434 301.652 162.473H301.638ZM301.638 162.473C301.507 155.532 309.858 151.561 314.758 156.424C315.548 157.201 316.177 158.138 316.607 159.178C317.037 160.219 317.259 161.34 317.259 162.473C317.259 163.607 317.037 164.728 316.607 165.769C316.177 166.809 315.548 167.746 314.758 168.523C309.852 173.379 301.501 169.415 301.638 162.473Z" fill="#DBDBDB"/>
<path d="M338.513 147.994C339.529 151.074 340.612 166.074 340.074 168.057C339.619 169.182 338.984 170.219 338.198 171.123C344.148 169.435 350.006 167.364 351.928 165.793C355.267 163.111 352.702 144.195 349.422 140.415C345.217 135.539 339.877 130.813 335.646 131.245C334.144 131.389 331.356 132.548 327.944 134.283C327.931 134.27 337.515 144.915 338.513 147.994Z" fill="#6752A0"/>
<path opacity="0.2" d="M338.513 147.994C339.529 151.074 340.612 166.074 340.074 168.05C339.621 169.178 338.986 170.218 338.198 171.123C344.148 169.435 350.006 167.364 351.928 165.793C355.267 163.111 352.702 144.195 349.422 140.415C345.217 135.539 339.877 130.813 335.646 131.238C334.144 131.389 331.356 132.548 327.944 134.283C327.931 134.27 337.515 144.915 338.513 147.994Z" fill="#6752A0"/>
<path d="M290.067 151.856C290.231 152.604 282.195 170.615 280.765 172.824C279.335 175.032 272.355 178.825 270.735 179.161C269.114 179.497 244.206 184.779 206.001 184.779C167.795 184.779 142.887 179.497 141.26 179.161C139.633 178.825 132.693 175.046 131.236 172.824C129.78 170.601 121.77 152.617 121.934 151.856C122.098 151.095 146.042 155.971 160.52 156.575C167.644 156.87 189.968 158.159 206.001 158.159C222.033 158.159 244.363 156.87 251.481 156.575C265.965 155.985 289.909 151.101 290.067 151.856Z" fill="#263238"/>
<path d="M137.691 153.989C140.971 154.476 144.441 154.984 147.905 155.416H123.239C123.016 154.894 122.819 154.414 122.655 153.989H137.691ZM274.309 153.989C271.029 154.476 267.559 154.984 264.095 155.416H288.761C288.984 154.894 289.181 154.414 289.345 153.989H274.309ZM220.878 157.899C215.742 158.049 210.612 158.159 206 158.159C201.388 158.159 196.258 158.049 191.122 157.899H124.282L124.892 159.312H287.108C287.324 158.825 287.528 158.351 287.725 157.899H220.878ZM125.968 161.794C126.178 162.275 126.388 162.741 126.624 163.207H285.376C285.586 162.741 285.802 162.275 286.032 161.794H125.968ZM127.72 165.69C127.949 166.177 128.172 166.657 128.376 167.117H283.605L284.261 165.69H127.72ZM129.543 169.586C129.793 170.107 130.042 170.581 130.245 171.013H281.748C281.952 170.581 282.194 170.107 282.45 169.586H129.543ZM131.774 173.482C132.297 174.003 132.858 174.48 133.453 174.909H278.534C279.132 174.481 279.696 174.004 280.22 173.482H131.774ZM137.402 177.392C138.323 177.913 139.269 178.385 140.236 178.804H271.744C272.714 178.386 273.663 177.915 274.585 177.392H137.402ZM153.802 181.287C157.082 181.754 160.907 182.241 165.295 182.7H246.672C251.061 182.241 254.905 181.754 258.165 181.287H153.802Z" fill="#37474F"/>
<path d="M237.895 197.118H174.105V214.937H237.895V197.118Z" fill="white"/>
<path d="M270.616 39.3906C270.616 39.3906 264.273 33.78 257.66 37.333C251.048 40.8859 251.219 56.8671 250.799 61.586C250.379 66.3049 246.771 68.0265 251.606 71.5863C256.44 75.146 262.672 75.6399 268.832 74.611C274.992 73.5822 279.328 70.1802 279.873 67.1897C280.22 65.3584 278.679 63.8426 278.082 60.9481C277.727 59.2403 279.105 39.2603 270.616 39.3906Z" fill="#263238"/>
<path d="M279.755 63.5957C279.446 61.6272 278.718 59.8164 278.502 57.8067C278.285 55.7971 278.325 53.8629 278.259 51.8944C278.082 46.8462 276.704 39.1917 270.485 39.5484C270.464 39.5542 270.446 39.5671 270.433 39.5851C270.419 39.6031 270.412 39.6251 270.412 39.6478C270.412 39.6705 270.419 39.6926 270.433 39.7106C270.446 39.7286 270.464 39.7415 270.485 39.7473C277.504 39.8776 277.833 48.6638 277.983 54.151C277.987 56.6279 278.294 59.0942 278.895 61.49C279.827 64.9194 279.787 67.9579 277.439 70.7358C277.433 70.749 277.431 70.7638 277.434 70.7782C277.436 70.7926 277.443 70.8058 277.453 70.8157C277.464 70.8257 277.477 70.832 277.491 70.8336C277.505 70.8353 277.519 70.8322 277.531 70.8249C278.417 69.8858 279.079 68.7425 279.465 67.4869C279.852 66.2314 279.951 64.8986 279.755 63.5957Z" fill="#263238"/>
<path d="M269.389 39.3563C265.926 37.0243 261.918 35.1793 257.824 37.0174C254.275 38.6018 252.274 42.3811 251.461 46.0986C250.333 51.2839 251.172 56.7162 249.86 61.8741C249.394 63.6917 248.023 65.7013 248.325 67.6698C248.588 69.4188 249.965 69.8578 251.481 70.0704C251.559 70.0704 251.592 69.9607 251.481 69.947C247.8 69.2611 248.594 66.6067 249.513 64.0141C250.151 62.2077 250.572 60.3254 250.765 58.4103C251.179 54.5762 250.936 50.6872 251.625 46.8874C252.281 43.1904 253.927 39.4043 257.299 37.5319C261.517 35.1861 265.591 37.1478 269.311 39.4181C269.318 39.429 269.33 39.4362 269.343 39.4381C269.356 39.44 269.369 39.4365 269.379 39.4283C269.39 39.4202 269.397 39.408 269.399 39.3945C269.401 39.381 269.397 39.3672 269.389 39.3563Z" fill="#263238"/>
<path d="M296.476 97.3689L293.556 97.458L290.034 97.5609L286.052 97.6706L284.13 97.7187H282.949H282.693H281.893L279.118 97.7872C278.681 96.8727 278.243 95.9582 277.806 95.0437L277.602 94.6047L277.557 94.5155C276.946 93.1918 276.323 91.8269 275.7 90.4002C275.661 90.3042 275.621 90.215 275.575 90.119L275.431 89.8035C274.933 88.6786 274.421 87.5401 273.916 86.374L273.391 85.1875C272.735 83.6374 272.027 82.0598 271.338 80.4685L271.01 79.6935C270.839 79.2819 270.682 78.8841 270.531 78.5C270.05 77.3162 269.646 76.0993 269.324 74.858C269.245 74.5562 269.179 74.275 269.134 74.0075C268.838 72.5122 268.924 71.5383 269.284 70.9896L269.357 70.8867C269.406 70.8266 269.461 70.7715 269.521 70.7221L269.606 70.6535C269.801 70.5181 270.028 70.4399 270.262 70.4271C271.259 70.3242 272.722 71.0101 274.322 72.1281C276.853 73.9913 279.218 76.0895 281.388 78.3972C282.503 79.5357 283.625 80.7566 284.746 82.0324C285.868 83.3081 286.891 84.5016 287.948 85.7773L288.092 85.9557C289.056 87.1354 290.007 88.3357 290.932 89.536L291.07 89.7143C291.93 90.8323 292.756 91.9503 293.55 93.0477C294.593 94.5773 295.583 96.0108 296.476 97.3689Z" fill="#FFC727"/>
<path opacity="0.1" d="M293.557 97.458L290.034 97.5609L286.052 97.6706L284.13 97.7187H282.949H282.693H281.893L279.118 97.7872C278.681 96.8727 278.243 95.9582 277.806 95.0437L277.603 94.6047L277.563 94.5155C276.953 93.1918 276.33 91.8269 275.707 90.4002C275.667 90.3042 275.628 90.215 275.582 90.119L275.438 89.8035C274.939 88.6786 274.428 87.5401 273.922 86.374L273.398 85.1875C272.742 83.6373 272.033 82.0598 271.344 80.4685L271.016 79.6935C270.846 79.2819 270.688 78.8841 270.537 78.5C270.071 77.317 269.681 76.1025 269.37 74.8648C269.289 74.5576 269.223 74.2463 269.173 73.932C268.917 72.5602 268.963 71.5451 269.291 70.9827L269.363 70.8798C269.404 70.8126 269.455 70.7524 269.514 70.7015L269.606 70.8044L274.933 76.7167L277.189 79.2134L277.845 79.8992L282.28 84.8171L282.66 85.2423L284.628 87.4166L285.547 88.4317L285.953 88.8844L288.794 92.0395L289.168 92.451L291.903 95.4827L293.557 97.458Z" fill="black"/>
<path d="M261.262 74.858C261.229 75.0089 261.183 75.1598 261.137 75.3244C260.705 76.8418 260.175 78.3268 259.55 79.7689L259.222 80.544L259.176 80.6537L257.326 84.9062C256.755 86.1957 256.198 87.4715 255.633 88.7267L255.548 88.9324C254.892 90.4688 254.184 91.9709 253.515 93.4387C253.429 93.617 253.351 93.7954 253.272 93.9737C253.193 94.152 253.173 94.1795 253.127 94.2824C253.082 94.3852 253.029 94.4881 252.983 94.591C252.412 95.8187 251.848 97.0191 251.284 98.1782L251.192 98.3703H250.536H250.418L246.515 98.432H246.364L240.841 98.5143H240.342L237.259 98.5486H235.993H233.29C238.925 89.68 249.257 77.0048 256.303 72.087C257.91 70.9621 259.373 70.2762 260.363 70.386C260.623 70.4045 260.871 70.5076 261.072 70.6809L261.131 70.7221L261.229 70.8387L261.301 70.9415C261.695 71.6823 261.76 72.9032 261.262 74.858Z" fill="#FFC727"/>
<path opacity="0.1" d="M261.242 74.7894L261.104 75.3244C260.685 76.8396 260.166 78.3224 259.549 79.7621L259.221 80.5371L259.175 80.6469L257.326 84.8994C256.755 86.1889 256.197 87.4646 255.633 88.7198L255.548 88.9256C254.892 90.4619 254.183 91.964 253.514 93.4319C253.429 93.6102 253.35 93.7885 253.271 93.9668L253.134 94.2755C253.081 94.3784 253.035 94.4813 252.989 94.5841C252.419 95.8119 251.855 97.0122 251.29 98.1713L251.199 98.3634H250.543H250.424L246.521 98.4251H246.37L240.847 98.5074H240.348L237.265 98.5417H235.999L238.485 95.7982L241.076 92.9174L241.135 92.8557L244.245 89.4262L244.37 89.2822L250.306 82.7045L250.93 82.0187L252.347 80.448L253.396 79.282L260.514 71.3874L260.966 70.8867L261.058 70.7838C261.058 70.7838 261.098 70.7838 261.104 70.8387L261.203 70.9553L261.275 71.0581C261.662 71.7234 261.662 72.9855 261.242 74.7894Z" fill="black"/>
<path d="M284.13 97.7461H282.949H282.693H281.893L279.118 97.8147H277.537C271.108 97.9724 264.26 98.1233 257.077 98.2537L251.92 98.432H251.16H250.504H250.385L246.482 98.4937C246.434 97.9969 246.423 97.497 246.449 96.9985C246.449 96.7584 246.482 96.5115 246.515 96.2509C246.685 94.8875 247.016 93.5514 247.499 92.2727L247.611 91.964C247.676 91.7926 247.748 91.5937 247.834 91.381C248.28 90.215 248.975 88.4866 249.854 86.5112C250.786 84.3918 251.927 81.9843 253.187 79.6523L253.396 79.2751C255.332 75.7702 257.529 72.5328 259.674 70.9347C259.891 70.7701 260.114 70.6192 260.33 70.482C261.542 69.6689 262.911 69.1466 264.339 68.9525C264.65 68.9128 264.963 68.8899 265.277 68.8839C266.775 68.9165 268.245 69.3259 269.56 70.0773C269.79 70.2076 270.02 70.3448 270.249 70.4957C270.479 70.6466 270.689 70.7838 270.905 70.9484C272.67 72.2653 274.474 74.6934 276.153 77.4712C276.514 78.0679 276.862 78.6852 277.209 79.3025C277.609 80.0296 277.996 80.7703 278.37 81.5111C278.528 81.806 278.672 82.101 278.816 82.3959C279.472 83.7677 280.128 85.1051 280.673 86.3535C280.675 86.374 280.675 86.3947 280.673 86.4152L280.942 87.0256C281.664 88.6786 282.254 90.1327 282.654 91.1821C282.746 91.4153 282.831 91.628 282.903 91.82L283.067 92.2727C283.58 93.6264 283.919 95.0446 284.078 96.4909C284.078 96.6784 284.091 96.8567 284.117 97.0259C284.137 97.266 284.137 97.4992 284.13 97.7461Z" fill="#FFC727"/>
<path d="M269.678 72.6631C269.455 73.5205 267.914 77.7524 264.083 77.7524C261.111 77.7524 260.521 71.5314 260.521 71.5314L259.084 63.6299L268.714 57.7107C268.714 57.7107 269.77 72.2927 269.678 72.6631Z" fill="#F7A9A0"/>
<path d="M269.075 62.8343C268.251 64.7519 267.059 66.4719 265.573 67.8878C264.086 69.3036 262.338 70.3851 260.435 71.065L259.084 63.6025L268.714 57.6833C268.714 57.6833 268.878 60.0222 269.075 62.8343Z" fill="#263238"/>
<path d="M250.773 51.0096C248.241 63.9112 255.365 66.9497 258.022 67.5121C260.442 68.0265 268.747 69.4532 272.546 56.8945C276.344 44.3359 271.391 39.0614 265.913 37.5524C260.436 36.0435 253.298 38.108 250.773 51.0096Z" fill="#F7A9A0"/>
<path d="M253.81 49.7338C254.102 49.7294 254.394 49.7042 254.682 49.6584C254.994 49.6795 255.304 49.5901 255.562 49.4046C255.632 49.3309 255.676 49.2349 255.688 49.1318C255.7 49.0286 255.678 48.9243 255.627 48.8353C255.501 48.6743 255.336 48.5512 255.149 48.4789C254.962 48.4066 254.761 48.3876 254.564 48.4238C254.156 48.4314 253.766 48.5976 253.469 48.8902C253.405 48.9609 253.363 49.0494 253.346 49.1449C253.33 49.2404 253.341 49.3388 253.377 49.4282C253.413 49.5175 253.473 49.594 253.55 49.6483C253.627 49.7025 253.717 49.7323 253.81 49.7338Z" fill="#263238"/>
<path d="M262.416 51.3114C262.133 51.2283 261.855 51.1275 261.583 51.0096C261.278 50.9469 261.001 50.7805 260.796 50.5363C260.745 50.4466 260.725 50.3419 260.738 50.2387C260.751 50.1355 260.797 50.0399 260.868 49.967C261.029 49.8435 261.218 49.7669 261.416 49.7452C261.615 49.7235 261.815 49.7575 261.996 49.8436C262.389 49.9579 262.727 50.2191 262.948 50.5775C262.991 50.6629 263.01 50.7595 263.003 50.8559C262.995 50.9523 262.962 51.0445 262.906 51.1216C262.85 51.1987 262.774 51.2575 262.687 51.2912C262.601 51.3248 262.507 51.3318 262.416 51.3114Z" fill="#263238"/>
<path d="M260.206 53.952C260.206 53.952 260.265 54.0069 260.259 54.0412C260.101 54.9329 260.068 55.9754 260.797 56.387C260.797 56.387 260.797 56.4487 260.797 56.435C259.858 56.1538 259.924 54.7683 260.206 53.952Z" fill="#263238"/>
<path d="M261.104 53.1633C262.495 53.273 262.187 56.1606 260.901 56.0646C259.615 55.9686 259.937 53.0535 261.104 53.1633Z" fill="#263238"/>
<path d="M261.63 53.3622C261.853 53.5542 262.056 53.8697 262.345 53.9315C262.633 53.9932 262.968 53.7326 263.217 53.4651C263.217 53.4651 263.27 53.4651 263.263 53.5062C263.211 54.0618 262.948 54.6036 262.371 54.6174C261.794 54.6311 261.525 54.1029 261.453 53.5337C261.433 53.4239 261.538 53.2799 261.63 53.3622Z" fill="#263238"/>
<path d="M255.305 53.0878C255.305 53.0878 255.233 53.129 255.233 53.1633C255.167 54.0618 254.957 55.0838 254.15 55.2964V55.3444C255.115 55.3101 255.384 53.9521 255.305 53.0878Z" fill="#263238"/>
<path d="M254.63 52.0727C253.259 51.8189 252.865 54.6928 254.138 54.9329C255.411 55.1729 255.778 52.2922 254.63 52.0727Z" fill="#263238"/>
<path d="M254.033 52.1756C253.79 52.2991 253.541 52.546 253.279 52.5185C253.016 52.4911 252.793 52.155 252.623 51.8327C252.623 51.8327 252.583 51.8327 252.577 51.8327C252.492 52.3814 252.577 52.9781 253.075 53.1564C253.574 53.3348 253.928 52.9026 254.132 52.3745C254.177 52.2922 254.125 52.1276 254.033 52.1756Z" fill="#263238"/>
<path d="M258.999 61.1265C258.782 61.3254 258.559 61.5997 258.244 61.6066C257.925 61.5727 257.616 61.4749 257.332 61.3185C257.332 61.3185 257.273 61.3185 257.293 61.3597C257.406 61.544 257.564 61.6933 257.751 61.7922C257.938 61.8911 258.147 61.936 258.356 61.9221C258.534 61.8859 258.698 61.7957 258.827 61.6628C258.957 61.5298 259.046 61.36 259.084 61.1745C259.097 61.1196 259.031 61.099 258.999 61.1265Z" fill="#263238"/>
<path d="M255.797 57.4364C255.797 57.4364 255.469 58.7464 255.391 59.3774C255.391 59.4392 255.529 59.4872 255.732 59.5215C256.238 59.6854 256.776 59.701 257.29 59.5668C257.804 59.4325 258.272 59.1535 258.645 58.7601C258.697 58.7053 258.645 58.6298 258.566 58.6573C257.733 59.1084 256.783 59.2671 255.857 59.1099C255.857 58.9248 256.513 56.8808 256.408 56.8602C255.933 56.8464 255.459 56.8972 254.997 57.0111C255.614 54.2676 256.65 51.6269 257.228 48.8696C257.235 48.8487 257.233 48.8257 257.224 48.8058C257.215 48.7859 257.198 48.7706 257.178 48.7633C257.158 48.756 257.136 48.7574 257.117 48.767C257.098 48.7767 257.084 48.7938 257.077 48.8147C255.882 51.5964 254.957 54.4962 254.315 57.4707C254.249 57.8273 255.548 57.5118 255.797 57.4364Z" fill="#263238"/>
<path d="M256.146 59.3363C256.392 59.8177 256.754 60.2241 257.195 60.516C257.442 60.6635 257.725 60.7304 258.009 60.7081C258.625 60.6463 258.73 60.077 258.697 59.5695C258.677 59.3013 258.626 59.0365 258.546 58.7807C257.823 59.2293 256.982 59.424 256.146 59.3363Z" fill="#263238"/>
<path d="M257.168 60.5434C257.415 60.6909 257.698 60.7578 257.981 60.7355C258.598 60.6738 258.703 60.1045 258.67 59.5969C258.355 59.5554 258.035 59.6263 257.762 59.7979C257.49 59.9696 257.28 60.2322 257.168 60.5434Z" fill="#FF9CBD"/>
<path d="M271.706 57.601C269.403 57.7999 269.082 52.2922 269.082 52.2922C269.082 52.2922 259.419 50.1042 258.953 41.7707C257.186 44.9707 254.475 47.4855 251.226 48.9382C251.226 48.9382 252.977 38.7459 259.944 37.2781C259.944 37.2781 267.658 34.8363 272.532 42.0793C277.505 49.5486 273.248 57.4775 271.706 57.601Z" fill="#263238"/>
<path d="M258.927 41.1534C258.757 42.4278 258.849 43.7255 259.196 44.96C259.526 46.2135 260.103 47.3814 260.888 48.3895C261.083 48.6306 261.291 48.8596 261.511 49.0754L261.839 49.4252C261.951 49.5349 262.076 49.631 262.194 49.7338C262.443 49.9327 262.679 50.1454 262.928 50.3306L263.722 50.8313C263.853 50.9067 263.984 50.9959 264.122 51.0713L264.542 51.2634L265.382 51.6475C265.966 51.8464 266.556 52.0178 267.14 52.1756C266.589 51.8944 266.025 51.6749 265.493 51.3868L264.7 50.941L264.312 50.7147C264.181 50.6324 264.063 50.5363 263.945 50.454C263.702 50.2688 263.46 50.0905 263.21 49.9259C262.961 49.7613 262.764 49.5212 262.554 49.3223L262.22 49.0205L261.918 48.6844C261.71 48.4687 261.515 48.2397 261.334 47.9985C260.592 47.04 260.011 45.957 259.616 44.7954C259.414 44.2084 259.258 43.6051 259.15 42.9915C259.024 42.3868 258.949 41.7717 258.927 41.1534Z" fill="#263238"/>
<path d="M269.948 56.531C269.948 56.531 273.136 52.7723 274.795 54.0069C276.455 55.2415 273.746 60.907 271.575 61.4694C271.301 61.5616 271.012 61.595 270.725 61.5675C270.439 61.5399 270.161 61.4521 269.908 61.3092C269.655 61.1663 269.432 60.9713 269.253 60.736C269.073 60.5006 268.942 60.2298 268.865 59.9399L269.948 56.531Z" fill="#F7A9A0"/>
<path d="M273.982 55.6119C274.015 55.6119 274.015 55.6668 273.982 55.6736C272.447 56.1126 271.522 57.4364 270.82 58.8356C270.922 58.6927 271.053 58.5747 271.203 58.4896C271.353 58.4045 271.518 58.3543 271.688 58.3426C271.859 58.3309 272.029 58.3578 272.188 58.4216C272.348 58.4854 272.492 58.5845 272.611 58.7121C272.644 58.7121 272.611 58.8013 272.559 58.7876C272.312 58.672 272.037 58.639 271.772 58.693C271.506 58.7471 271.263 58.8855 271.076 59.0894C270.762 59.4343 270.485 59.8137 270.249 60.2211C270.171 60.3514 269.941 60.2211 270.007 60.0976C270.007 60.0976 270.007 60.0976 270.007 60.0633C270.21 58.1154 271.962 55.5639 273.982 55.6119Z" fill="#263238"/>
<path d="M308.599 52.9987L305.712 46.9903C305.712 46.9903 281.112 77.5947 271.417 85.6059C267.205 89.0765 253.954 98.432 253.954 98.432L263.578 98.3222C263.578 98.3222 272.598 93.2329 276.114 90.2699C284.839 82.8829 308.599 52.9987 308.599 52.9987Z" fill="#263238"/>
<path d="M286.131 94.7488C286.067 93.0264 285.799 91.3191 285.331 89.6663C285.259 89.4263 285.193 89.1862 285.114 88.9804C284.961 88.5232 284.791 88.0499 284.603 87.5606C284.211 86.5754 283.746 85.6237 283.212 84.7142L282.936 84.2546C281.389 81.7814 279.359 79.6779 276.98 78.0816C276.704 77.8896 276.422 77.7044 276.134 77.5329C275.74 77.2929 275.34 77.0734 274.933 76.847C273.174 75.938 271.294 75.3091 269.357 74.9814H269.318C269.121 74.9471 268.918 74.9128 268.708 74.8923C267.853 74.7737 266.992 74.7141 266.13 74.7139C264.541 74.7136 262.957 74.9116 261.413 75.3038L261.137 75.3724H261.105C258.179 76.1713 255.465 77.6534 253.167 79.7072C252.878 79.961 252.603 80.2216 252.327 80.496C251.835 80.9967 251.363 81.5179 250.91 82.0667C250.687 82.341 250.471 82.6154 250.254 82.9034C248.545 85.2281 247.324 87.9044 246.673 90.7569L246.555 91.333C246.275 92.7362 246.134 94.1659 246.135 95.5992C246.135 95.757 246.135 95.9079 246.135 96.0657C246.135 96.3332 246.135 96.5938 246.168 96.8613C246.168 97.41 246.246 97.9587 246.318 98.4937H246.469L250.373 98.432H250.491C250.491 98.2674 250.438 98.1027 250.418 97.9381C250.307 97.164 250.252 96.3821 250.254 95.5992C250.253 94.8258 250.306 94.0533 250.412 93.2878C250.412 93.0546 250.477 92.8214 250.517 92.6019C250.822 90.8836 251.384 89.2262 252.183 87.6909C252.373 87.3343 252.57 87.0051 252.78 86.6484C253.511 85.4319 254.393 84.3224 255.404 83.3493C256.526 82.2751 257.79 81.3743 259.156 80.6743C261.973 79.2315 265.136 78.6966 268.244 79.1375C271.353 79.5783 274.265 80.9751 276.613 83.1504C276.816 83.3356 277.013 83.5207 277.203 83.7197C278.187 84.7226 279.042 85.8546 279.748 87.0874V87.1422C279.86 87.3411 279.965 87.5401 280.07 87.739C280.762 89.0836 281.274 90.5215 281.592 92.0121L281.71 92.6225C281.878 93.605 281.964 94.6011 281.965 95.5992C281.966 96.3287 281.92 97.0574 281.828 97.7804H282.628H282.884H284.065L285.987 97.7324C286.052 97.0486 286.085 96.3619 286.085 95.6747C286.151 95.3043 286.144 95.0025 286.131 94.7488Z" fill="#263238"/>
<path d="M266.55 98.0479L251.547 85.6127L254.105 82.2381L266.55 92.5539L278.987 82.2381L281.552 85.6127L266.55 98.0479Z" fill="#263238"/>
<path d="M293.537 93.1163C293.066 93.9985 292.51 94.8281 291.878 95.5924C291.311 96.2953 290.694 96.9532 290.034 97.5609L286.052 97.6706L284.13 97.7187H282.95C282.979 97.6748 283.012 97.6335 283.048 97.5952L283.159 97.4717L282.969 97.5815L282.694 97.7324H281.893L279.118 97.801H277.538C276.822 96.9024 277.262 95.805 277.806 94.9957C278.026 94.6597 278.276 94.3473 278.554 94.0629L278.718 93.8914L278.495 94.0217C278.192 94.1868 277.881 94.3356 277.564 94.4675C276.39 94.9408 274.605 95.3661 273.523 94.1863C273.321 93.9924 273.168 93.7497 273.076 93.4795C272.985 93.2093 272.958 92.9198 272.998 92.6362C273.169 91.5525 274.31 90.6334 274.723 90.3042L274.9 90.1739L274.526 90.2493C273.687 90.3934 271.666 90.5648 270.886 89.193C270.846 89.1176 270.807 89.0559 270.774 88.9804C270.23 87.6567 271.634 86.3946 273.398 85.1875C274.467 84.4536 275.668 83.7471 276.645 83.0543C277.311 82.633 277.894 82.0837 278.364 81.4356C278.388 81.4006 278.41 81.364 278.43 81.3259L278.699 79.6935L276.993 77.9445L276.147 77.3958C276.921 77.9513 277.931 77.869 279.847 78.1502C280.417 78.2325 280.929 78.3011 281.388 78.3903C282.234 78.489 283.047 78.7843 283.77 79.2545C284.19 79.5443 284.512 79.966 284.688 80.4589C284.865 80.9519 284.888 81.4907 284.754 81.9981C284.898 81.9432 286.925 81.175 288.237 82.5193C288.932 83.2395 288.453 85.0366 288.453 85.0366H288.499H288.545C289.027 84.8864 289.538 84.8747 290.025 85.0027C290.512 85.1306 290.957 85.3935 291.314 85.7636C292.219 86.813 291.596 88.4523 291.596 88.4523C291.596 88.4523 293.531 88.6581 294.128 90.0436C294.43 90.8049 294.167 91.8955 293.537 93.1163Z" fill="#F7A9A0"/>
<path d="M288.499 85.1051C288.499 85.1051 288.584 85.1051 288.558 85.16C286.408 89.2867 282.918 92.4736 278.718 94.1452C278.573 94.2 278.383 94.0903 278.554 94.0148C281.342 92.7459 286.235 88.2328 288.499 85.1051Z" fill="#263238"/>
<path d="M274.546 90.2562C278.646 88.5826 281.814 85.7087 284.661 82.2587C284.701 82.2175 284.76 82.2587 284.74 82.3204C283.782 84.3781 281.749 86.4358 280.037 87.8075C278.474 89.1529 276.601 90.0467 274.605 90.4002C274.526 90.4208 274.461 90.2905 274.546 90.2562Z" fill="#263238"/>
<path d="M259.136 91.8543C258.729 93.377 256.774 93.7885 255.922 93.912L255.535 93.9463L255.758 94.0217C256.538 94.3166 258.926 95.3935 257.909 97.41C257.725 97.7835 257.446 98.0967 257.102 98.3154L251.92 98.432H251.159H250.503H250.385L246.482 98.4937H246.331L240.807 98.576H240.309L237.226 98.6103C237.656 97.9287 238.27 97.3963 238.99 97.0808C238.736 96.7161 238.552 96.304 238.446 95.8667C238.323 95.3824 238.364 94.8684 238.564 94.4127C238.805 93.9522 239.163 93.5699 239.598 93.3074C240.033 93.045 240.528 92.9124 241.03 92.9243H241.135C241.011 92.7048 240.256 91.285 240.696 90.4688C241.634 88.7404 243.917 88.9667 243.917 88.9667C243.645 88.5172 243.519 87.9881 243.558 87.4579C243.597 86.9278 243.799 86.4249 244.133 86.0242C244.842 85.0983 245.957 84.6044 247.61 83.8362C249.375 83.0132 250.641 82.4645 251.238 81.7237L250.306 82.7525L249.572 84.5496L249.808 86.4769L249.867 86.5318C250.56 87.0841 251.355 87.4811 252.202 87.6978C253.114 87.9996 254.17 88.274 255.134 88.5826L255.666 88.7472C257.752 89.4125 259.503 90.2699 259.136 91.8543Z" fill="#F7A9A0"/>
<path d="M240.768 98.576H240.27C239.837 98.1919 239.43 97.7872 239.043 97.3688L239.082 97.3277C239.666 97.7461 240.224 98.1851 240.768 98.576Z" fill="#263238"/>
<path d="M251.264 98.2262L251.92 98.4114H251.159H250.503H250.385C249.025 98.0951 247.704 97.614 246.449 96.9779L246.18 96.8407C244.277 95.8509 242.54 94.5445 241.037 92.9723C241.031 92.9647 241.027 92.955 241.027 92.9449C241.027 92.9347 241.031 92.925 241.037 92.9174H241.083C242.675 94.1161 244.366 95.165 246.134 96.0519L246.502 96.2371C247.782 96.878 249.096 97.4414 250.438 97.9244C250.7 98.0479 250.982 98.1439 251.264 98.2262Z" fill="#263238"/>
<path d="M255.856 93.8571C251.48 93.425 247.676 91.5731 244.048 89.0559C244.002 89.0216 243.963 89.097 243.996 89.1313C245.458 90.8598 247.932 92.1972 249.959 93.0615C251.814 93.908 253.85 94.2297 255.863 93.9943C255.889 94.008 255.915 93.8708 255.856 93.8571Z" fill="#263238"/>
<path d="M141.896 80.6674C155.075 89.8652 169.323 99.1384 175.076 97.1288C179.917 95.4484 187.612 91.6417 199.171 83.555C201.309 82.0667 188.294 67.2377 186.766 68.2597C182.777 70.9278 170.241 78.5961 169.375 78.3903C168.234 78.1297 154.392 74.0623 145.103 71.7646C132.528 68.685 135.08 75.9142 141.896 80.6674Z" fill="#EB9481"/>
<path d="M196.481 85.4001C198.672 84.9062 209.26 81.9706 211.819 80.4205C214.377 78.8704 221.416 73.9251 220.491 71.7646C219.566 69.604 217.395 70.8798 217.395 70.8798C217.395 70.8798 220.051 68.294 218.936 66.202C217.821 64.1101 214.495 66.202 214.495 66.202C214.495 66.202 217.04 63.3419 215.807 61.3391C214.574 59.3363 211.556 62.025 211.556 62.025C211.556 62.025 213.997 59.5215 212.297 58.328C210.251 56.8945 206.249 62.0455 203.304 63.5133C202.648 63.8494 189.305 69.268 189.305 69.268L196.481 85.4001Z" fill="#EB9481"/>
<path d="M211.786 61.8466C208.834 65.6328 206.918 66.7508 202.556 68.2803C202.541 68.2875 202.528 68.3001 202.521 68.3158C202.514 68.3315 202.512 68.3494 202.516 68.3664C202.52 68.3834 202.529 68.3985 202.542 68.4091C202.556 68.4196 202.572 68.425 202.589 68.4243C206.984 67.3338 209.588 66.2912 211.969 61.9907C212.088 61.7781 211.904 61.6683 211.786 61.8466Z" fill="#263238"/>
<path d="M214.725 65.9345C211.333 69.5835 209.26 70.8181 204.806 72.7934C204.747 72.7934 204.806 72.9375 204.852 72.9169C209.372 71.3874 211.943 70.2831 214.876 66.1678C215.007 65.9551 214.882 65.7699 214.725 65.9345Z" fill="#263238"/>
<path d="M217.151 70.9964C213.622 74.2818 211.411 75.7359 206.852 77.0528C206.829 77.0583 206.81 77.0729 206.797 77.0935C206.785 77.1141 206.781 77.1389 206.786 77.1626C206.792 77.1862 206.806 77.2067 206.825 77.2196C206.845 77.2324 206.869 77.2366 206.891 77.2311C211.66 76.3669 214.435 74.5699 217.236 71.1199C217.44 70.8798 217.387 70.7838 217.151 70.9964Z" fill="#263238"/>
<path d="M186.116 68.7947C186.116 68.7947 189.396 63.726 191.312 61.8329C193.227 59.9399 202.838 55.6599 203.841 57.7519C205.153 60.4954 200.063 64.1169 197.36 65.5504C197.36 65.5504 200.371 71.8743 197.268 75.3038C194.165 78.7332 186.116 68.7947 186.116 68.7947Z" fill="#EB9481"/>
<path d="M203.966 58.6504C203.435 62.0387 199.761 63.6848 197.229 65.2898C197.191 65.3117 197.159 65.3429 197.135 65.3807C197.111 65.4185 197.096 65.4619 197.091 65.507C197.087 65.5522 197.093 65.5978 197.109 65.64C197.125 65.6822 197.15 65.7197 197.183 65.7494C198.279 68.4929 199.059 72.6837 197.452 75.3518C197.442 75.3673 197.438 75.3864 197.441 75.4051C197.444 75.4237 197.454 75.4403 197.469 75.4512C197.483 75.4622 197.502 75.4665 197.52 75.4633C197.537 75.4601 197.553 75.4496 197.564 75.4341C199.656 72.8483 199.204 68.6644 197.826 65.7425C200.45 64.1444 204.052 62.313 203.999 58.6847C204.032 58.6092 203.966 58.6024 203.966 58.6504Z" fill="#263238"/>
<path d="M183.774 68.1431L198.239 86.6621C198.239 86.6621 180.639 96.9985 173.646 97.8627C168.398 98.5143 150.063 88.1437 140.531 79.9473C130.776 71.5657 138.077 69.4394 144.716 71.4148C151.355 73.3902 168.896 77.9239 169.342 77.8142C169.789 77.7044 183.774 68.1431 183.774 68.1431Z" fill="#455A64"/>
<path d="M186.379 80.0844C185.408 78.8178 184.431 77.5512 183.447 76.2846C182.469 75.0363 181.518 73.7194 180.455 72.5465C180.403 72.4916 180.311 72.5465 180.35 72.6151C181.164 73.9252 182.128 75.1597 183.027 76.4149C183.926 77.6701 184.955 79.0556 185.926 80.3725C187.842 82.9789 189.862 85.4961 191.909 87.9927C191.962 88.0545 192.034 87.9927 191.994 87.9104C190.177 85.2629 188.327 82.6565 186.379 80.0844Z" fill="#263238"/>
<path opacity="0.1" d="M140.524 79.9541C147.392 85.8459 158.8 92.8626 166.62 96.1068L142.761 70.9553C136.811 69.9196 131.733 72.3682 140.524 79.9541Z" fill="black"/>
<path d="M156.144 98.3428C142.787 98.1096 130.56 97.8078 119.972 97.4992C120.595 95.6816 121.244 93.8914 121.94 92.1424C121.999 91.9915 122.058 91.8337 122.123 91.6828C122.189 91.5319 122.307 91.2027 122.405 90.9969C123.903 87.1496 125.709 83.4417 127.804 79.913C128.53 78.7092 129.317 77.5462 130.159 76.4286C130.828 75.5433 131.542 74.6962 132.298 73.8909L132.39 73.7948L132.468 73.7194C132.652 73.5205 132.842 73.3353 133.033 73.1501C133.264 72.9323 133.522 72.7477 133.8 72.6014C134.559 72.2223 135.368 71.9678 136.201 71.8469H136.372H136.464L137.021 71.7852C138.574 71.643 140.138 71.7518 141.659 72.1075C142.428 72.2832 143.18 72.5358 143.903 72.862C144.325 73.0588 144.733 73.2881 145.123 73.5479L145.346 73.6919C145.573 73.8458 145.792 74.013 146.002 74.1927C146.2 74.3539 146.386 74.5304 146.559 74.7208C146.71 74.8854 146.861 75.0569 147.012 75.2421L147.196 75.4684L147.386 75.7222L147.681 76.1269C149.577 78.8704 151.414 83.1435 153.146 88.2534C153.244 88.5552 153.349 88.857 153.447 89.1656C154.359 92.0189 155.271 95.1328 156.144 98.3428Z" fill="#455A64"/>
<path d="M138.924 74.6796C138.843 75.5871 138.548 76.4592 138.064 77.2174C138.025 77.286 137.986 77.3615 137.933 77.4369C137.811 77.6427 137.673 77.8553 137.52 78.0748C137.095 78.6778 136.633 79.2506 136.136 79.7895L135.893 80.057L135.729 80.2216C135.368 80.6057 134.975 80.9967 134.548 81.3876C132.83 82.972 130.422 85.016 127.746 87.1903L126.952 87.835L126.486 88.2122H126.44C125.03 89.3508 123.567 90.51 122.104 91.6417C119.48 93.6994 116.856 95.6473 114.619 97.3003H114.16L106.721 97.0602L106.491 97.1974V97.0534L100.292 96.8407H99.8983C94.3617 96.6418 89.8943 96.4703 86.7324 96.34C87.6571 94.2252 89.0327 92.3599 90.7537 90.8872C93.2419 88.6446 95.9035 86.6212 98.711 84.8377L99.0849 84.5976C100.397 83.77 101.735 82.9675 103.1 82.1901L104.136 81.6208C106.268 80.448 108.479 79.3505 110.696 78.3354C117.912 75.0775 125.495 72.7043 131.944 71.9086C132.108 71.9086 132.272 71.8675 132.436 71.8538C132.6 71.8401 132.869 71.7989 133.092 71.7783C133.315 71.7577 133.623 71.7372 133.879 71.7235C134.649 71.6741 135.422 71.7178 136.182 71.8538L136.352 71.8881H136.411C136.516 71.9082 136.619 71.9357 136.72 71.9704C138.261 72.4368 138.989 73.3764 138.924 74.6796Z" fill="#455A64"/>
<path d="M131.215 84.1381C129.995 85.1669 128.773 86.214 127.548 87.2794L126.892 87.8556L126.479 88.2191H126.433C124.937 89.5223 123.435 90.8255 121.913 92.1081C119.768 93.9188 117.59 95.6816 115.353 97.3277H114.625H114.159C116.973 95.27 119.742 93.0546 122.366 90.9558C125.619 88.3837 128.631 85.9557 131.215 84.1381Z" fill="#263238"/>
<path d="M126.178 88.0476C127.425 87.2769 128.767 86.6884 130.166 86.2986C128.963 87.1574 127.607 87.7524 126.178 88.0476Z" fill="#263238"/>
<path d="M143.351 80.9898C140.458 81.614 135.657 76.8745 133.813 73.1021C133.682 72.8415 134.135 70.1665 134.528 66.8811C134.764 64.892 134.981 62.6697 135.033 60.6258C135.033 60.2074 147.209 64.1101 147.209 64.1101C146.438 66.6423 145.966 69.2635 145.805 71.9155C145.804 72.1979 145.823 72.4799 145.864 72.7591C145.864 72.8003 145.864 72.8415 145.864 72.8963C146.087 74.5013 146.146 80.3862 143.351 80.9898Z" fill="#EB9481"/>
<path d="M135.808 60.7081C136.28 64.1787 138.104 72.5877 144.644 72.9375C145.061 72.9762 145.48 72.9762 145.897 72.9375C145.904 72.8921 145.904 72.8457 145.897 72.8003C145.853 72.5238 145.834 72.2437 145.838 71.9635C145.995 69.3065 146.467 66.6801 147.242 64.1444C147.242 64.1444 138.432 61.2911 135.808 60.7081Z" fill="#263238"/>
<path d="M132.862 45.4333C131.583 49.9945 134.03 63.095 137.153 66.01C141.686 70.2008 149.026 70.5163 152.411 64.8371C155.691 59.35 152.221 42.3194 148.738 39.6993C143.608 35.8171 134.745 38.691 132.862 45.4333Z" fill="#EB9481"/>
<path d="M132.862 45.4333C131.583 49.9945 134.03 63.095 137.153 66.01C141.686 70.2008 149.026 70.5163 152.411 64.8371C155.691 59.35 152.221 42.3194 148.738 39.6993C143.608 35.8171 134.745 38.691 132.862 45.4333Z" fill="#EB9481"/>
<path d="M145.293 53.6846C145.293 53.6503 145.234 53.7394 145.241 53.7737C145.411 54.6585 145.464 55.7011 144.742 56.1332C144.742 56.1332 144.742 56.1881 144.742 56.1812C145.647 55.9068 145.588 54.4939 145.293 53.6846Z" fill="#263238"/>
<path d="M144.388 52.8889C142.997 53.0192 143.351 55.9068 144.637 55.7834C145.923 55.6599 145.549 52.7792 144.388 52.8889Z" fill="#263238"/>
<path d="M150.135 53.1633C150.135 53.1633 150.207 53.1633 150.214 53.2387C150.292 54.1372 150.535 55.1455 151.342 55.3444V55.3924C150.378 55.365 150.076 54.0138 150.135 53.1633Z" fill="#263238"/>
<path d="M150.784 52.1139C152.149 51.8258 152.608 54.6928 151.348 54.9672C150.089 55.2415 149.643 52.3608 150.784 52.1139Z" fill="#263238"/>
<path d="M142.879 51.5377C143.255 51.4736 143.627 51.3888 143.994 51.284C144.398 51.2483 144.78 51.0776 145.083 50.797C145.163 50.6889 145.206 50.5562 145.206 50.4197C145.206 50.2832 145.163 50.1505 145.083 50.0425C144.894 49.8551 144.661 49.7243 144.407 49.664C144.153 49.6036 143.888 49.6159 143.64 49.6995C143.123 49.7882 142.655 50.0741 142.328 50.502C142.27 50.6052 142.238 50.7226 142.236 50.8425C142.235 50.9624 142.263 51.0806 142.319 51.1854C142.375 51.2902 142.456 51.3779 142.554 51.4397C142.652 51.5015 142.765 51.5353 142.879 51.5377Z" fill="#263238"/>
<path d="M151.84 50.7558C151.461 50.8059 151.08 50.8357 150.699 50.845C150.304 50.9384 149.89 50.8901 149.525 50.7078C149.426 50.6306 149.353 50.5227 149.316 50.3994C149.28 50.2762 149.281 50.144 149.321 50.0219C149.453 49.7817 149.645 49.5834 149.876 49.4481C150.107 49.3128 150.368 49.2456 150.633 49.2537C151.163 49.1776 151.7 49.3096 152.142 49.6241C152.22 49.7101 152.275 49.8155 152.302 49.9303C152.329 50.0451 152.327 50.1652 152.297 50.2791C152.266 50.3929 152.208 50.4967 152.128 50.5802C152.048 50.6637 151.949 50.7242 151.84 50.7558Z" fill="#263238"/>
<path d="M149.13 58.1566C149.13 58.1566 149.327 59.5283 149.34 60.1731C149.34 60.2348 149.189 60.2691 148.98 60.2828C148.449 60.3923 147.9 60.3472 147.392 60.1525C146.884 59.9577 146.437 59.6208 146.1 59.1785C146.054 59.1168 146.133 59.0482 146.192 59.0825C146.989 59.6385 147.938 59.9081 148.894 59.8507C148.94 59.6724 148.474 57.5187 148.573 57.505C149.056 57.5443 149.533 57.6504 149.99 57.8205C149.649 54.9535 148.868 52.1619 148.573 49.3017C148.568 49.2799 148.571 49.2568 148.582 49.2375C148.593 49.2182 148.611 49.2043 148.632 49.1988C148.653 49.1934 148.675 49.1968 148.693 49.2084C148.712 49.22 148.725 49.2387 148.73 49.2606C149.747 52.1207 150.206 55.4336 150.633 58.3623C150.665 58.7327 149.38 58.2663 149.13 58.1566Z" fill="#263238"/>
<path d="M148.58 60.0771C148.276 60.5346 147.865 60.903 147.386 61.147C147.122 61.2744 146.825 61.3105 146.54 61.2499C145.923 61.1196 145.884 60.564 145.963 60.0222C146.013 59.7508 146.092 59.4862 146.199 59.2334C146.885 59.7744 147.72 60.0702 148.58 60.0771Z" fill="#263238"/>
<path d="M147.386 61.147C147.122 61.2744 146.825 61.3104 146.54 61.2499C145.923 61.1196 145.884 60.564 145.963 60.0222C146.287 60.0132 146.604 60.1196 146.863 60.324C147.121 60.5284 147.306 60.8186 147.386 61.147Z" fill="#FF9CBD"/>
<path d="M131.819 55.9068C135.177 56.2155 137.001 52.059 136.266 48.6707C136.266 48.6707 145.188 50.0425 145.739 42.58C146.439 43.6242 147.354 44.491 148.416 45.1166C149.479 45.7422 150.662 46.1106 151.879 46.1946L152.588 48.6776C153.513 48.4169 154.385 45.8654 152.181 43.6912C152.181 43.6912 152.089 39.9462 149.491 37.6553C148.789 36.9982 147.92 36.5671 146.989 36.4138C146.058 36.2605 145.105 36.3915 144.243 36.7911C142.707 35.5867 140.782 35.0553 138.877 35.3096C137.884 35.4566 136.938 35.8502 136.12 36.4576C135.301 37.065 134.634 37.8685 134.174 38.8008C134.174 38.8008 129.733 39.6101 128.926 42.8818C128.683 43.8028 128.627 44.7667 128.762 45.7116C128.896 46.6565 129.218 47.5616 129.706 48.3689C129.706 48.3689 128.578 49.6447 129.096 52.4843C129.424 54.2744 130.815 55.804 131.819 55.9068Z" fill="#263238"/>
<path d="M145.549 41.8941C145.612 42.5051 145.612 43.1213 145.549 43.7323C145.498 44.3324 145.379 44.924 145.195 45.495C144.836 46.6264 144.081 47.5744 143.083 48.1494C142.055 48.6882 140.92 48.9655 139.77 48.9588C139.193 48.9245 138.609 48.9588 138.025 48.8765C137.441 48.7942 136.864 48.7187 136.273 48.657C136.844 48.8147 137.421 48.9451 137.999 49.0891C138.576 49.2331 139.18 49.2194 139.77 49.288C140.982 49.3469 142.19 49.085 143.28 48.5267C144.355 47.8899 145.151 46.839 145.497 45.5979C145.812 44.3876 145.83 43.1136 145.549 41.8941Z" fill="#263238"/>
<path d="M150.089 46.3044C149.114 45.9386 148.205 45.4054 147.399 44.7268C147.01 44.3899 146.666 44.0001 146.376 43.5677C146.082 43.1204 145.837 42.6394 145.647 42.1342C145.687 42.6969 145.841 43.2442 146.1 43.7392C146.358 44.2463 146.71 44.6941 147.137 45.0561C147.552 45.4211 148.022 45.713 148.527 45.9203C149.023 46.1389 149.551 46.2688 150.089 46.3044Z" fill="#263238"/>
<path d="M135.808 56.2909C135.808 56.2909 132.836 52.1756 131.026 53.2662C129.215 54.3567 131.537 60.468 133.728 61.2362C134.005 61.3541 134.301 61.412 134.599 61.4063C134.897 61.4006 135.191 61.3315 135.463 61.2031C135.735 61.0748 135.979 60.8899 136.181 60.6598C136.382 60.4296 136.536 60.159 136.634 59.8644L135.808 56.2909Z" fill="#EB9481"/>
<path d="M131.76 54.9878V55.0495C133.295 55.6393 134.134 57.1072 134.745 58.5887C134.651 58.4326 134.527 58.2996 134.38 58.1989C134.232 58.0982 134.066 58.0322 133.892 58.0054C133.718 57.9787 133.54 57.9918 133.371 58.044C133.202 58.0961 133.047 58.186 132.914 58.3075C132.875 58.3075 132.914 58.3966 132.96 58.3898C133.223 58.2916 133.509 58.2811 133.778 58.3598C134.047 58.4384 134.286 58.6022 134.463 58.8287C134.754 59.2134 135.004 59.6296 135.21 60.0702C135.289 60.2074 135.532 60.1251 135.473 59.9605C135.433 57.9028 133.839 55.1249 131.76 54.9878Z" fill="#263238"/>
<path d="M145.897 71.5931L142.847 79.0282L134.161 69.4257L131.59 72.3682C131.59 72.3682 139.967 87.5606 140.039 86.8816L143.103 80.5165L147.262 85.0777L147.137 73.836L145.897 71.5931Z" fill="#DBDBDB"/>
<path d="M147.504 79.522C147.426 77.6632 147.393 75.7908 147.229 73.9389C147.229 73.8771 147.124 73.8428 147.111 73.9389C146.717 75.7153 147.065 82.8143 147.019 84.5084C146.842 84.3164 143.155 80.4891 143.116 80.5508C142.46 81.5522 140.21 86.1957 140.052 86.6141C138.74 84.2066 133.637 75.4273 132.062 73.1432C132.052 73.1325 132.039 73.1254 132.025 73.123C132.011 73.1206 131.997 73.1231 131.984 73.1301C131.972 73.1371 131.961 73.1481 131.955 73.1617C131.949 73.1752 131.948 73.1904 131.951 73.205C133.112 75.7428 139.823 87.5606 139.954 87.5263C141.135 85.3412 142.205 83.093 143.162 80.7909C143.785 81.6208 147.491 85.9282 147.511 85.6539C147.612 83.6112 147.609 81.5644 147.504 79.522Z" fill="#263238"/>
<path d="M103.375 53.0741L106.222 46.9697C106.222 46.9697 130.802 77.5741 140.498 85.5853C144.703 89.0559 157.961 98.4114 157.961 98.4114L148.337 98.3017C148.337 98.3017 139.311 93.2124 135.795 90.2493C127.043 82.8829 103.375 53.0741 103.375 53.0741Z" fill="#263238"/>
<path d="M113.615 92.5951C113.558 92.7375 113.462 92.8593 113.339 92.9449L112.473 93.5004H112.427L111.069 94.3715C109.501 95.3661 108.065 96.2577 106.74 97.0671L106.51 97.2042V97.0602L100.311 96.8476H99.9173C94.3807 96.6487 89.9133 96.4772 86.7514 96.3469H86.1807C86.22 91.9915 87.6698 86.6758 91.2975 83.5962C91.6911 83.267 94.8464 81.3808 98.3167 79.33L98.4282 79.2682L102.548 76.847L103.348 76.3806L107.422 74.0212C108.294 73.5205 109.56 75.5027 110.702 78.3629C112.749 83.2533 114.52 90.7226 113.615 92.5951Z" fill="#EB9481"/>
<path d="M101.427 79.3643C101.427 79.3643 104.241 72.5054 106.793 69.3297C109.52 66.1364 112.949 63.6837 116.784 62.1827C120.923 60.5435 132.003 59.5763 132.829 62.8686C133.571 65.8454 122.196 66.2363 122.196 66.2363C122.196 66.2363 133.735 63.8357 134.004 67.6081C134.273 71.3805 121.035 71.0376 121.035 71.0376C121.035 71.0376 132.941 68.8496 132.633 72.7729C132.397 75.7359 120.398 76.1406 120.398 76.1406C120.398 76.1406 130.645 74.3298 130.527 77.3889C130.396 80.7703 119.375 81.8678 119.375 81.8678C117.827 89.5909 114.074 92.6019 111.155 94.4195C110.421 94.8379 101.427 79.3643 101.427 79.3643Z" fill="#EB9481"/>
<path d="M118.161 66.7988C119.506 66.4627 120.864 66.1129 122.235 65.9071C123.606 65.7013 124.984 65.5436 126.361 65.475C128.166 65.3392 129.98 65.4244 131.767 65.7288C128.559 65.4339 123.645 66.0992 122.274 66.3049C120.903 66.5107 119.532 66.6479 118.168 66.8536L118.161 66.7988Z" fill="#263238"/>
<path d="M118.785 71.9772C120.523 71.6343 122.235 71.2228 123.987 70.9553C125.738 70.6878 127.404 70.5917 129.156 70.4546C129.294 70.4546 129.254 70.5231 129.117 70.5369C127.372 70.7495 125.771 71.0924 124.019 71.3256C122.268 71.5588 120.523 71.7234 118.771 72.0115L118.785 71.9772Z" fill="#263238"/>
<path d="M118.555 76.5315C121.206 75.9274 123.91 75.6125 126.623 75.5919C126.761 75.5919 126.696 75.6879 126.564 75.7016C123.875 75.9554 121.769 76.1406 118.587 76.6276C118.528 76.6344 118.502 76.5453 118.555 76.5315Z" fill="#263238"/>
<path d="M106.491 97.0602L100.292 96.8476H99.8981C94.3614 96.6487 89.8941 96.4772 86.7322 96.3469H86.1614H85.7219C85.7093 93.849 86.1946 91.3758 87.1467 89.0848C88.0988 86.7938 89.4969 84.7354 91.252 83.0406L102.811 72.9786L103.191 75.4684L103.336 76.4012L104.136 81.6688L104.608 84.7553L106.491 97.0602Z" fill="#455A64"/>
<path d="M100.292 96.875H99.8985C99.7214 95.3729 99.5705 93.8571 99.4196 92.3413C99.1703 89.8584 98.921 87.3617 98.7111 84.8719C98.6718 84.4741 98.639 84.0695 98.6062 83.6648C98.4946 82.2244 98.3766 80.784 98.2979 79.3368C98.2979 79.1379 98.2979 78.939 98.2979 78.7401C98.2979 78.6989 98.3569 78.6784 98.3634 78.7401L98.4422 79.2957C98.7046 81.0721 98.921 82.8623 99.0982 84.6525C99.2031 85.5578 99.295 86.4564 99.3934 87.3549C99.7039 90.2402 99.9838 93.1323 100.233 96.0314C100.246 96.292 100.272 96.5801 100.292 96.875Z" fill="#263238"/>
<path d="M106.491 97.0602H106.74L106.511 97.1963L106.491 97.0602Z" fill="#263238"/>
</g>
<defs>
<clipPath id="clip0_185_876">
<rect width="492" height="309" fill="white" transform="translate(-40)"/>
</clipPath>
</defs>
</svg>
