<svg width="89" height="89" viewBox="0 0 89 89" fill="none" xmlns="http://www.w3.org/2000/svg">
<rect width="89" height="89" rx="44.5" fill="white"/>
<path d="M56 73.75C54.05 73.75 52.188 73.45 50.414 72.85C48.64 72.25 47.027 71.425 45.575 70.375L43.1 72.85C42.55 73.4 41.85 73.675 41 73.675C40.15 73.675 39.45 73.4 38.9 72.85C38.35 72.3 38.075 71.6 38.075 70.75C38.075 69.9 38.35 69.2 38.9 68.65L41.375 66.175C40.325 64.725 39.5 63.113 38.9 61.339C38.3 59.565 38 57.702 38 55.75C38 50.75 39.75 46.488 43.25 42.964C46.75 39.44 51 37.702 56 37.75H73.925V55.75C74.025 60.75 72.312 65 68.786 68.5C65.26 72 60.998 73.75 56 73.75ZM47.9 63.85C48.45 64.4 49.15 64.675 50 64.675C50.85 64.675 51.55 64.4 52.1 63.85L58.1 57.85C58.65 57.3 58.925 56.6 58.925 55.75C58.925 54.9 58.65 54.2 58.1 53.65C57.55 53.1 56.85 52.825 56 52.825C55.15 52.825 54.45 53.1 53.9 53.65L47.9 59.65C47.35 60.2 47.075 60.9 47.075 61.75C47.075 62.6 47.35 63.3 47.9 63.85ZM24.5 46.75C21.6 46.75 19.125 45.725 17.075 43.675C15.025 41.625 14 39.15 14 36.25V25.75H24.5C27.4 25.75 29.875 26.775 31.925 28.825C33.975 30.875 35 33.35 35 36.25V46.75H24.5ZM41 28.75V21.25C41 19.15 41.725 17.375 43.175 15.925C44.625 14.475 46.4 13.75 48.5 13.75H56V21.25C56 23.35 55.275 25.125 53.825 26.575C52.375 28.025 50.6 28.75 48.5 28.75H41Z" fill="#14AE5C"/>
</svg>
