<svg width="266" height="157" viewBox="0 0 266 157" fill="none" xmlns="http://www.w3.org/2000/svg">
<g clip-path="url(#clip0_157_1662)">
<mask id="mask0_157_1662" style="mask-type:luminance" maskUnits="userSpaceOnUse" x="11" y="15" width="244" height="94">
<path d="M11.2539 15H254.747V108.275H11.2539V15Z" fill="white"/>
</mask>
<g mask="url(#mask0_157_1662)">
<path d="M11.2539 15H254.747V108.275H11.2539V15Z" fill="white"/>
<path d="M11.2539 15H254.747V108.275H11.2539V15Z" fill="#191919"/>
</g>
<path d="M65.1615 93.9845L40.2969 31.3658H54.0477L72.7769 80.845L91.9635 31.3658H105.095L79.8811 93.9845H65.1615Z" fill="white"/>
<path d="M166.553 62.6752C166.553 67.1489 165.706 71.3752 164.024 75.3473C162.335 79.3056 160.041 82.7348 157.135 85.628C154.242 88.528 150.818 90.8096 146.855 92.4726C142.886 94.1357 138.628 94.9741 134.073 94.9741C129.586 94.9741 125.354 94.1357 121.372 92.4726C117.403 90.8096 113.978 88.528 111.092 85.628C108.199 82.7348 105.905 79.3056 104.203 75.3473C102.515 71.3752 101.674 67.1489 101.674 62.6752C101.674 58.2083 102.515 53.9888 104.203 50.0305C105.905 46.0584 108.199 42.6292 111.092 39.7498C113.978 36.8566 117.403 34.5751 121.372 32.9052C125.354 31.2215 129.586 30.3763 134.073 30.3763C138.628 30.3763 142.886 31.2215 146.855 32.9052C150.818 34.5751 154.242 36.8566 157.135 39.7498C160.041 42.6292 162.335 46.0584 164.024 50.0305C165.706 53.9888 166.553 58.2083 166.553 62.6752ZM153.529 62.6752C153.529 59.7614 153.024 57.0675 152.022 54.5936C151.033 52.1196 149.681 49.9755 147.959 48.1613C146.236 46.3333 144.171 44.8901 141.769 43.8456C139.381 42.801 136.818 42.2787 134.073 42.2787C131.328 42.2787 128.772 42.801 126.404 43.8456C124.049 44.8901 122.018 46.3333 120.295 48.1613C118.573 49.9755 117.207 52.1196 116.205 54.5936C115.216 57.0675 114.725 59.7614 114.725 62.6752C114.725 65.5339 115.216 68.2209 116.205 70.7293C117.207 73.2444 118.573 75.4023 120.295 77.2165C122.018 79.0308 124.049 80.4602 126.404 81.5047C128.772 82.5493 131.328 83.0716 134.073 83.0716C136.818 83.0716 139.381 82.5493 141.769 81.5047C144.171 80.4602 146.236 79.0308 147.959 77.2165C149.681 75.4023 151.033 73.2444 152.022 70.7293C153.024 68.2209 153.529 65.5339 153.529 62.6752Z" fill="white"/>
<path d="M188.012 93.9845V70.0146L162.959 31.3658H177.598L194.766 58.5519L212.015 31.3658H225.847L200.713 70.097V93.9845H188.012Z" fill="white"/>
<path d="M116.78 63.3384C116.377 63.627 116.054 63.8195 115.765 64.0669C114.782 64.9121 113.686 65.0908 112.435 64.8159C110.51 64.3967 108.56 64.0325 106.582 64.1631C105.451 64.2318 104.328 64.5204 103.204 64.7128C103.043 64.7472 102.888 64.809 102.72 64.8503C102.438 64.919 102.088 65.0496 101.933 64.7197C101.839 64.5135 101.953 64.2043 101.98 63.95C100.419 65.2557 98.9998 66.7745 97.8293 68.5475C97.9167 68.2726 98.0109 67.9977 98.132 67.6129C97.5534 68.1283 96.9749 68.2382 96.3156 68.087C96.4165 68.788 96.5107 69.4409 96.6049 70.0937C97.6207 70.3342 97.8293 70.6091 97.8898 71.798C98.2262 71.8392 98.5626 71.8805 98.8451 71.9148C98.7106 71.3238 98.5356 70.7259 98.4415 70.1143C98.3002 69.2278 98.6971 68.5681 99.3968 68.0802C100.332 67.4273 101.415 67.1593 102.505 67.015C105.976 66.5477 109.421 66.6783 112.805 67.6129C113.706 67.8603 114.567 68.3276 115.395 68.7811C115.798 68.9942 116.141 69.3859 116.424 69.757C117.211 70.7947 117.056 72.1347 116.067 72.9663C115.798 73.193 115.731 73.4061 115.866 73.6947C116.162 74.3269 116.458 74.9523 116.787 75.5639C116.841 75.667 117.063 75.722 117.211 75.7151C118.577 75.6532 119.942 75.5708 121.308 75.5021C122.546 75.4402 123.784 75.234 125.022 75.5502C125.64 75.7151 126.226 75.9419 126.555 76.6085C128.816 73.2274 130.195 69.3584 132.637 66.0598C132.213 66.0048 131.783 65.9361 131.352 65.8948C130.087 65.7643 128.823 65.6543 127.558 65.5375C127.491 65.5306 127.41 65.5444 127.349 65.51C127.262 65.455 127.195 65.3726 127.114 65.3038C127.195 65.2351 127.262 65.1183 127.349 65.1045C127.827 65.0083 128.311 64.8709 128.789 64.8709C131.305 64.8572 133.821 64.7678 136.324 64.9259C139.613 65.132 142.883 65.5306 146.159 65.888C147.478 66.0392 148.776 66.3072 150.088 66.5202C150.236 66.5408 150.384 66.5614 150.606 66.5889C150.606 65.3726 150.626 64.1906 150.599 63.0154C150.586 62.4588 150.498 61.909 150.397 61.3592C150.371 61.2218 150.169 61.0294 150.027 61.0088C146.374 60.5071 142.728 59.978 139.068 59.545C135.678 59.1464 132.274 58.9609 128.863 59.0502C126.246 59.1189 123.649 59.3388 121.153 60.2391C120.44 60.5002 119.774 60.8782 119.081 61.2012C119.095 61.2493 119.108 61.2905 119.122 61.3318C119.196 61.3592 119.27 61.3867 119.35 61.4005C120.312 61.5517 121.039 62.0946 121.51 62.933C122.418 64.5617 122.405 66.2178 121.416 67.7984C120.366 69.4821 118.334 69.489 117.211 67.8397C116.417 66.6783 116.256 65.4069 116.592 64.0462C116.639 63.8538 116.693 63.6683 116.78 63.3384ZM119.512 71.0077C120.467 71.0146 121.382 71.9217 121.375 72.8494C121.369 73.6466 120.669 74.3338 119.875 74.3269C119.001 74.3201 118.139 73.5366 118.133 72.7395C118.133 71.8873 118.832 71.0077 119.512 71.0077Z" fill="#7E60BF" stroke="white" stroke-width="0.0255535" stroke-miterlimit="10"/>
<mask id="mask1_157_1662" style="mask-type:luminance" maskUnits="userSpaceOnUse" x="139" y="60" width="34" height="17">
<path d="M139.889 60.7408H172.207V76.5741H139.889V60.7408Z" fill="white"/>
</mask>
<g mask="url(#mask1_157_1662)">
<path d="M160.454 62.8436C161.073 63.3315 161.329 63.9981 161.316 64.7609C161.275 66.5408 161.228 68.3207 161.161 70.1006C161.134 70.8015 161.04 71.4956 160.966 72.1897C160.865 73.0281 160.407 73.5435 159.58 73.6741C157.911 73.9352 156.243 74.1895 154.575 74.43C153.882 74.5331 153.189 74.588 152.489 74.643C152.173 74.6705 151.85 74.6568 151.534 74.6293C150.989 74.5812 150.605 74.2651 150.451 73.7496C150.323 73.3098 150.222 72.8288 150.242 72.3684C150.289 71.0489 150.404 69.7226 150.491 68.4031C150.505 68.2657 150.491 68.1214 150.491 67.9427C147.491 67.4067 144.484 67.1868 141.402 67.2074C142.728 70.1418 143.299 73.2067 143.441 76.3885C143.542 76.3885 143.622 76.4023 143.696 76.3954C146.468 76.0724 149.24 75.7426 152.018 75.4196C154.79 75.0897 157.562 74.7667 160.333 74.4369C160.804 74.3819 161.282 74.3544 161.746 74.2582C161.887 74.2238 162.069 74.0383 162.109 73.8871C162.553 72.4302 162.964 70.9664 163.388 69.5096C163.489 69.1659 163.576 68.8223 163.69 68.4856C164.222 66.9188 165.231 66.3209 166.839 66.6027C168.137 66.8294 168.817 67.4067 168.992 68.7399C169.207 70.4167 169.281 72.1141 169.409 73.8046C169.429 74.0039 169.415 74.2032 169.415 74.4025C170.29 74.3269 170.734 73.9283 170.855 73.1174C171.131 71.3307 171.387 69.537 171.662 67.7503C171.81 66.7882 171.595 65.9704 170.943 65.2282C169.214 63.2491 167.061 62.1358 164.498 61.8678C163.603 61.7784 162.688 61.8472 161.786 61.8815C161.188 61.909 160.737 62.232 160.454 62.8436Z" fill="#7E60BF"/>
</g>
<mask id="mask2_157_1662" style="mask-type:luminance" maskUnits="userSpaceOnUse" x="139" y="60" width="34" height="19">
<path d="M139.889 60.7408H172.207V78.3333H139.889V60.7408Z" fill="white"/>
</mask>
<g mask="url(#mask2_157_1662)">
<path d="M160.454 62.8436C161.073 63.3316 161.329 63.9982 161.316 64.761C161.275 66.5408 161.228 68.3207 161.161 70.1006C161.134 70.8016 161.04 71.4956 160.966 72.1897C160.865 73.0281 160.407 73.5435 159.58 73.6741C157.912 73.9352 156.243 74.1895 154.575 74.43C153.882 74.5331 153.189 74.5881 152.489 74.6431C152.173 74.6706 151.85 74.6568 151.534 74.6293C150.989 74.5812 150.606 74.2651 150.451 73.7497C150.323 73.3099 150.222 72.8288 150.242 72.3684C150.289 71.0489 150.404 69.7226 150.491 68.4032C150.505 68.2657 150.491 68.1214 150.491 67.9428C147.491 67.4067 144.484 67.1868 141.402 67.2074C142.728 70.1418 143.3 73.2068 143.441 76.3886C143.542 76.3886 143.622 76.4023 143.696 76.3955C146.468 76.0725 149.24 75.7426 152.018 75.4196C154.79 75.0898 157.562 74.7668 160.333 74.4369C160.804 74.3819 161.282 74.3544 161.746 74.2582C161.887 74.2239 162.069 74.0383 162.109 73.8871C162.553 72.4302 162.964 70.9665 163.388 69.5096C163.489 69.166 163.576 68.8224 163.69 68.4856C164.222 66.9188 165.231 66.3209 166.839 66.6027C168.137 66.8295 168.817 67.4067 168.992 68.7399C169.207 70.4167 169.281 72.1141 169.409 73.8047C169.429 74.004 169.415 74.2032 169.415 74.4025C170.29 74.3269 170.734 73.9284 170.855 73.1175C171.131 71.3307 171.387 69.5371 171.662 67.7503C171.81 66.7882 171.595 65.9705 170.943 65.2283C169.214 63.2491 167.061 62.1358 164.498 61.8678C163.603 61.7785 162.688 61.8472 161.787 61.8815C161.188 61.909 160.737 62.232 160.454 62.8436Z" stroke="white" stroke-width="0.0255535" stroke-miterlimit="10"/>
</g>
<path d="M160.333 71.8461C157.346 70.1693 154.312 68.6162 150.868 68.0183C150.841 68.4581 150.814 68.8705 150.787 69.2759C150.72 70.1006 150.639 70.9252 150.579 71.743C150.558 72.0179 150.558 72.2859 150.565 72.5608C150.592 73.9764 151.009 74.4163 152.375 74.2582C154.756 73.9764 157.131 73.6466 159.506 73.3098C160.239 73.2068 160.542 72.9387 160.609 72.1759C160.764 70.451 160.851 68.7124 160.946 66.9738C160.972 66.3553 160.946 65.7299 160.932 65.0977C160.845 65.4275 160.777 65.7711 160.333 65.7093C160.024 65.668 159.957 65.3794 160.091 64.6304C159.62 64.596 159.156 64.5754 158.692 64.5135C158.47 64.486 158.066 64.3555 158.066 64.2868C158.08 63.9157 158.429 63.9638 158.678 63.9363C158.981 63.9019 159.291 63.9363 159.593 63.9088C159.95 63.8882 160.3 63.8332 160.65 63.792C160.67 63.737 160.69 63.6889 160.71 63.6339C160.522 63.4484 160.36 63.2216 160.145 63.0773C159.405 62.5687 158.537 62.445 157.683 62.3007C155.516 61.9159 153.337 61.5517 151.164 61.1874C151.043 61.1668 150.922 61.1737 150.767 61.1599C150.814 61.6272 150.895 62.0671 150.901 62.5137C150.928 63.7507 150.935 64.9946 150.922 66.2316C150.915 66.5477 150.942 66.6989 151.312 66.7676C154.131 67.2624 156.748 68.2451 158.961 70.1693C159.365 70.5198 159.741 70.9046 160.111 71.2894C160.239 71.4131 160.32 71.5781 160.421 71.7293C160.394 71.7705 160.367 71.8048 160.333 71.8461Z" fill="#7E60BF" stroke="white" stroke-width="0.0255535" stroke-miterlimit="10"/>
<path d="M102.276 64.596C102.484 64.541 102.706 64.5067 102.908 64.4379C105.263 63.627 107.658 63.6545 110.073 64.0325C111.096 64.1905 112.111 64.383 113.127 64.5616C113.8 64.6785 114.432 64.5754 115.004 64.1699C115.623 63.737 116.249 63.304 116.868 62.8642C116.948 62.8092 117.022 62.7337 117.076 62.6581C118.193 60.995 119.787 60.0741 121.637 59.5312C123.662 58.9402 125.741 58.6997 127.833 58.6104C128.224 58.5898 128.621 58.6035 129.011 58.5279C128.701 58.5004 128.392 58.4592 128.076 58.4455C123.871 58.253 119.673 58.2599 115.475 58.6241C114.264 58.7272 113.067 58.9334 111.869 59.1189C111.519 59.1739 111.19 59.3457 110.86 59.5175C111.836 59.6618 113.04 59.2426 113.41 60.7133C116.962 59.0708 120.756 58.7272 124.261 58.5898C122.236 58.9746 119.882 59.3663 117.561 59.8955C116.249 60.1978 114.984 60.727 113.706 61.1737C113.336 61.3043 113.06 61.3249 112.872 60.9125C112.838 60.8301 112.703 60.7407 112.616 60.7476C111.809 60.7614 111.001 60.7545 110.208 60.8507C109.656 60.9125 109.629 60.9606 109.622 60.3971C109.616 60.3422 109.616 60.2872 109.609 60.1704C109.353 60.2459 109.124 60.3147 108.896 60.3971C107.025 61.0706 105.169 61.7853 103.561 63.0085C103.191 63.2903 102.848 63.6064 102.518 63.9294C102.37 64.0806 102.283 64.2936 102.168 64.4792C102.202 64.5135 102.242 64.5548 102.276 64.596ZM107.476 63.3109C107.214 63.2284 106.985 63.201 106.803 63.0841C106.555 62.9261 106.507 62.6787 106.729 62.4382C107.059 62.0671 107.907 61.9365 108.331 62.177C108.68 62.3694 108.721 62.7405 108.378 62.9536C108.102 63.1185 107.772 63.201 107.476 63.3109Z" fill="#7E60BF" stroke="white" stroke-width="0.0255535" stroke-miterlimit="10"/>
<path d="M161.793 74.6362C161.033 74.7324 160.32 74.8148 159.607 74.8973C155.503 75.3784 151.399 75.8525 147.295 76.3267C146.111 76.4642 144.934 76.6153 143.757 76.739C143.535 76.7665 143.441 76.8421 143.447 77.0826C143.467 77.5087 143.454 77.9348 143.454 78.4227C144.1 78.3334 144.719 78.2646 145.331 78.1684C149.031 77.6118 152.724 77.0552 156.424 76.4916C157.79 76.2786 159.149 76.045 160.508 75.8182C161.154 75.7082 161.517 75.2684 161.793 74.6362Z" fill="#7E60BF" stroke="white" stroke-width="0.0255535" stroke-miterlimit="10"/>
<path d="M108.451 60.081C104.59 60.2253 100.755 60.4315 97.0549 61.8128C98.7637 62.8299 99.1202 64.383 98.7906 66.3003C101.401 63.146 104.536 60.9881 108.451 60.081Z" fill="#7E60BF" stroke="white" stroke-width="0.0255535" stroke-miterlimit="10"/>
<path d="M116.699 78.6564C116.834 78.7045 116.962 78.7732 117.096 78.7869C119.532 78.9794 121.974 79.1168 124.402 78.7113C124.786 78.6495 125.163 78.5258 125.512 78.354C125.997 78.1272 126.232 77.7011 126.192 77.1376C126.151 76.6153 125.855 76.2924 125.398 76.148C124.988 76.0243 124.55 75.8869 124.133 75.8938C122.364 75.935 120.588 76.0243 118.819 76.0999C118.307 76.1206 117.789 76.148 117.271 76.148C116.975 76.1412 116.773 76.2099 116.666 76.526C116.605 76.7253 116.464 76.8971 116.323 77.1514C116.498 77.1651 116.625 77.1857 116.753 77.1789C119.162 77.1033 121.577 77.0139 123.985 76.9315C124.214 76.9246 124.456 76.8627 124.651 76.9383C124.873 77.0208 125.183 77.2063 125.216 77.385C125.243 77.5706 125.021 77.8523 124.84 78.0035C124.678 78.141 124.423 78.1959 124.207 78.2028C122.007 78.3265 119.808 78.4227 117.608 78.5258C117.318 78.5395 117.022 78.5327 116.733 78.5327C116.72 78.5739 116.713 78.6151 116.699 78.6564Z" fill="#7E60BF" stroke="white" stroke-width="0.0255535" stroke-miterlimit="10"/>
<path d="M99.0936 72.4852C98.9322 73.3099 99.1138 74.0727 99.4905 74.7805C99.5578 74.9111 99.8135 74.9729 99.9951 75.0073C102.747 75.4952 105.518 75.8388 108.317 75.8732C109.736 75.8869 111.163 75.8388 112.589 75.8182C112.656 75.8182 112.723 75.8044 112.818 75.7907C112.865 75.4059 112.905 75.0279 112.952 74.6499C111.714 74.7393 110.524 74.8492 109.333 74.9042C106.817 75.0073 104.301 74.9867 101.859 74.2582C101.287 74.0864 100.728 73.839 100.19 73.571C99.726 73.3442 99.3022 73.035 99.0936 72.4852Z" fill="#7E60BF" stroke="white" stroke-width="0.0255535" stroke-miterlimit="10"/>
<path d="M149.933 53.903C149.711 55.1056 149.489 56.2945 149.28 57.4834C149.193 57.9438 149.099 58.4111 149.072 58.8784C149.045 59.2358 148.897 59.3182 148.594 59.2633C147.538 59.0571 146.482 58.8509 145.432 58.6379C143.468 58.2531 141.477 58.1294 139.445 58.1843C139.566 58.2393 139.68 58.3424 139.808 58.3493C142.546 58.473 145.251 58.7822 147.908 59.5313C149.139 59.8749 149.26 59.7512 149.482 58.4798C149.738 57.0229 149.973 55.5592 150.242 54.1023C150.289 53.8137 150.229 53.69 149.953 53.5731C148.527 52.9615 147.033 52.7141 145.506 52.6248C141.328 52.3636 137.157 52.5011 133.04 53.312C131.527 53.6075 130.053 54.116 128.567 54.5352C128.425 54.5765 128.264 54.6589 128.183 54.7689C127.51 55.731 126.851 56.7068 126.192 57.6758L126.266 57.7514C126.36 57.6552 126.461 57.5727 126.542 57.4628C127.093 56.6931 127.631 55.9097 128.203 55.1537C128.365 54.9476 128.6 54.762 128.842 54.6589C130.645 53.9305 132.542 53.58 134.446 53.2914C137.824 52.7897 141.221 52.6248 144.638 52.776C146.61 52.8653 148.291 53.2089 149.933 53.903Z" fill="#7E60BF" stroke="white" stroke-width="0.0255535" stroke-miterlimit="10"/>
<path d="M100.884 73.0143C100.493 72.8838 100.157 72.7807 99.8139 72.6707L99.7668 72.7532C100.009 72.9181 100.238 73.1037 100.5 73.2342C101.691 73.8252 102.969 74.1207 104.281 74.2651C106.932 74.5674 109.575 74.4987 112.219 74.1895C113.047 74.0933 113.047 74.0933 113.222 73.2136C112.603 73.2892 111.997 73.3648 111.338 73.4473C111.311 72.7876 111.284 72.1553 111.257 71.5162C111.23 71.5093 111.203 71.5093 111.177 71.5025C111.156 71.5918 111.123 71.6811 111.116 71.7705C111.089 72.2378 111.062 72.712 111.062 73.1793C111.062 73.4404 110.955 73.5229 110.719 73.5572C107.672 74.0039 104.637 74.0864 101.624 73.2342C101.233 73.1243 101.065 72.98 101.112 72.5539C101.153 72.1828 101.119 71.8048 101.119 71.4338L101.005 71.4269C100.964 71.9354 100.931 72.4508 100.884 73.0143Z" fill="#7E60BF" stroke="white" stroke-width="0.0255535" stroke-miterlimit="10"/>
<path d="M115.885 77.5568C115.805 77.0964 115.906 76.6772 116.195 76.3198C116.43 76.0312 116.43 75.7632 116.235 75.4677C116.134 75.3165 116.06 75.1378 115.973 74.9798C115.576 74.2926 115.307 73.5641 115.354 72.7532C115.374 72.4577 115.253 72.3615 114.97 72.3546C114.163 72.3409 113.975 72.4165 113.726 73.193C113.255 74.6843 113.033 76.2236 113.289 77.7836C113.363 78.2509 113.598 78.7388 113.894 79.1099C114.681 80.0926 115.785 80.0651 116.652 79.103C116.027 78.7732 116.04 78.1134 115.879 77.5431C115.872 77.7149 115.865 77.8867 115.852 78.0516C115.825 78.4845 115.65 78.8282 115.233 78.9793C114.829 79.1237 114.5 78.9587 114.21 78.6701C113.881 78.3402 113.786 77.9004 113.807 77.4537C113.84 76.6566 113.881 75.8594 113.982 75.076C114.062 74.4437 114.217 73.8184 114.378 73.1999C114.466 72.8632 114.654 72.5745 115.004 72.6364C115.159 73.5504 115.3 74.43 115.462 75.3096C115.596 76.0587 115.744 76.8077 115.885 77.5568Z" fill="#7E60BF" stroke="white" stroke-width="0.0255535" stroke-miterlimit="10"/>
<path d="M105.74 70.7672C105.727 70.0456 105.532 69.3859 104.98 68.898C104.482 68.4581 103.904 68.4925 103.453 68.9804C102.619 69.8738 102.888 71.7568 103.937 72.3752C104.435 72.6639 104.906 72.5952 105.296 72.1553C105.639 71.7636 105.754 71.2894 105.74 70.7672Z" fill="#7E60BF" stroke="white" stroke-width="0.0255535" stroke-miterlimit="10"/>
<path d="M99.7802 75.4059C99.6591 75.5914 99.5514 75.7701 99.4236 75.99C103.823 76.739 108.23 77.0139 112.683 77.117C112.704 76.8353 112.717 76.6016 112.73 76.3198C108.351 76.4985 104.045 76.1549 99.7802 75.4059Z" fill="#7E60BF" stroke="white" stroke-width="0.0255535" stroke-miterlimit="10"/>
<path d="M99.5176 77.8386C99.1678 77.6736 98.9121 77.4881 98.4816 77.6049C97.8021 77.7836 97.089 77.1582 97.0284 76.4023C96.941 75.289 97.0486 74.1826 97.4253 73.1174C97.6137 72.5952 97.8761 72.444 98.421 72.5196C98.1788 73.8459 98.4277 75.131 98.7103 76.3542C98.8516 76.0793 99.0197 75.7838 99.161 75.4677C99.2014 75.3852 99.2081 75.2478 99.1677 75.1653C98.7776 74.375 98.5488 73.5435 98.6094 72.657C98.6228 72.4165 98.5219 72.3271 98.2999 72.2997C97.5801 72.2241 97.2504 72.4027 97.015 73.0968C96.7055 73.9971 96.4431 74.9111 96.5104 75.8869C96.5508 76.4779 96.7391 77.0002 97.1092 77.4537C97.7146 78.1959 98.6228 78.354 99.5176 77.8386Z" fill="#7E60BF" stroke="white" stroke-width="0.0255535" stroke-miterlimit="10"/>
<path d="M139.519 58.9884C142.93 59.4282 146.34 59.868 149.751 60.3078C150.35 58.7547 151.016 54.2947 150.673 53.8274C150.491 54.8032 150.316 55.731 150.141 56.6656C149.987 57.5177 149.839 58.3699 149.657 59.222C149.523 59.8611 149.227 60.0879 148.574 59.9986C147.827 59.8955 147.101 59.6893 146.354 59.5931C144.221 59.3251 142.089 59.0914 139.949 58.8509C139.801 58.8372 139.647 58.8784 139.492 58.899C139.499 58.9265 139.505 58.9609 139.519 58.9884Z" fill="#7E60BF" stroke="white" stroke-width="0.0255535" stroke-miterlimit="10"/>
<path d="M150.552 67.0493C143.696 65.723 136.787 64.9808 129.804 65.132C136.761 65.3451 143.676 65.991 150.552 67.0493Z" fill="#7E60BF" stroke="white" stroke-width="0.0255535" stroke-miterlimit="10"/>
<path d="M112.75 78.6083C112.804 78.2372 112.669 78.1409 112.36 78.1272C109.393 77.9623 106.426 77.7973 103.466 77.5981C102.269 77.5156 101.085 77.3369 99.894 77.2063C99.7998 77.1926 99.6989 77.1995 99.6047 77.2132C103.944 78.0241 108.317 78.5464 112.75 78.6083Z" fill="#7E60BF" stroke="white" stroke-width="0.0255535" stroke-miterlimit="10"/>
<path d="M116.41 70.719C116.269 70.6572 116.128 70.5541 115.98 70.5404C114.728 70.4579 113.477 70.3961 112.226 70.3205C111.916 70.3067 111.62 70.2724 111.277 70.238V68.465C111.25 68.465 111.23 68.465 111.21 68.465C111.169 69.0354 111.129 69.5989 111.082 70.2036H107.664C107.658 70.2861 107.638 70.3961 107.624 70.5404C110.557 70.6641 113.45 70.7809 116.336 70.9046C116.363 70.8427 116.383 70.7809 116.41 70.719Z" fill="#7E60BF" stroke="white" stroke-width="0.0255535" stroke-miterlimit="10"/>
<path d="M121.099 65.2008C121.227 64.8365 121.369 64.6097 121.698 64.864C121.839 63.8538 121.005 62.445 119.983 61.9571C119.162 61.5585 118.328 61.7028 117.776 62.342C119.599 61.9571 120.602 62.7955 121.099 65.2008Z" fill="#7E60BF" stroke="white" stroke-width="0.0255535" stroke-miterlimit="10"/>
<path d="M106.11 70.4442C106.144 70.2243 106.177 70.0525 106.225 69.7845C106.406 69.9494 106.534 70.0525 106.655 70.1624C106.669 69.0079 105.781 67.9496 104.657 67.7778C103.937 67.6679 103.433 67.9427 103.217 68.6093C103.661 68.252 104.105 68.0596 104.63 68.2726C105.222 68.5063 105.612 68.9529 105.834 69.5577C105.935 69.8326 106.009 70.1212 106.11 70.4442Z" fill="#7E60BF" stroke="white" stroke-width="0.0255535" stroke-miterlimit="10"/>
<path d="M98.058 65.0564C98.1051 64.9396 98.1522 64.8297 98.2061 64.6785C98.3271 64.7334 98.4281 64.7815 98.5693 64.8503C98.4617 63.8195 98.1186 62.9536 97.2844 62.3626C96.8135 62.0258 96.4435 62.0602 96.0264 62.4382C97.4929 62.6787 97.8293 63.8126 98.058 65.0564Z" fill="#7E60BF" stroke="white" stroke-width="0.0255535" stroke-miterlimit="10"/>
<path d="M150.915 67.1387C153.203 67.661 155.409 68.3826 157.468 69.5233C155.503 68.1145 153.27 67.4411 150.915 67.1387Z" fill="#7E60BF" stroke="white" stroke-width="0.0255535" stroke-miterlimit="10"/>
<path d="M102.592 70.3823C102.107 70.3067 101.63 70.2243 101.112 70.1418V69.0491C101.092 69.0491 101.065 69.0491 101.038 69.0423C101.011 69.2416 100.95 69.4408 100.97 69.6333C101.011 70.0868 100.809 70.2105 100.405 70.1555C100.076 70.1143 99.7394 70.1143 99.3963 70.1487C100.452 70.293 101.502 70.4442 102.551 70.5954C102.565 70.5266 102.578 70.4511 102.592 70.3823Z" fill="#7E60BF" stroke="white" stroke-width="0.0255535" stroke-miterlimit="10"/>
<mask id="mask3_157_1662" style="mask-type:luminance" maskUnits="userSpaceOnUse" x="93" y="73" width="4" height="4">
<path d="M93.7793 73.0555H96.8335V76.5741H93.7793V73.0555Z" fill="white"/>
</mask>
<g mask="url(#mask3_157_1662)">
<path d="M95.024 75.0622C95.3536 75.1516 95.6833 75.2478 96.0667 75.3508C96.0264 74.9866 96.3896 74.6568 95.9658 74.3613C96.0936 74.2582 96.2147 74.1688 96.3291 74.0795L96.2686 73.997C95.8447 74.3063 95.4209 74.6224 94.9971 74.9385C95.0105 74.9798 95.0172 75.021 95.024 75.0622Z" fill="#7E60BF" stroke="white" stroke-width="0.0255535" stroke-miterlimit="10"/>
</g>
<path d="M138.065 58.0675C136.861 58.1087 135.65 58.15 134.399 58.1981C134.789 58.4111 137.621 58.363 138.065 58.0675Z" fill="#7E60BF" stroke="white" stroke-width="0.0255535" stroke-miterlimit="10"/>
<path d="M96.261 71.4887C96.6646 71.4338 97.0279 71.3856 97.4248 71.3307C97.3239 70.9596 97.1759 70.719 96.8462 70.7534C96.4897 70.7878 96.308 71.042 96.261 71.4887Z" fill="#7E60BF" stroke="white" stroke-width="0.0255535" stroke-miterlimit="10"/>
<path d="M119.128 71.4887C120.037 71.5987 120.38 72.334 120.911 72.8494C121.086 72.0523 120.05 71.2139 119.128 71.4887Z" fill="#7E60BF" stroke="white" stroke-width="0.0255535" stroke-miterlimit="10"/>
<path d="M118.623 72.5127C118.919 72.5677 119.168 72.6158 119.444 72.6707C119.457 72.547 119.471 72.4371 119.491 72.3065C119.612 72.3478 119.733 72.3959 119.895 72.4577C119.834 72.0935 119.619 71.9698 119.35 71.9492C118.973 71.9286 118.758 72.1622 118.623 72.5127Z" fill="#7E60BF" stroke="white" stroke-width="0.0255535" stroke-miterlimit="10"/>
<path d="M108.223 62.5275C107.752 62.3282 107.375 62.39 106.998 62.6237C107.328 62.9536 107.758 62.9329 108.223 62.5275Z" fill="#7E60BF" stroke="white" stroke-width="0.0255535" stroke-miterlimit="10"/>
<mask id="mask4_157_1662" style="mask-type:luminance" maskUnits="userSpaceOnUse" x="93" y="51" width="80" height="36">
<path d="M93.7793 51.7795H172.208V86.7585H93.7793V51.7795Z" fill="white"/>
</mask>
<g mask="url(#mask4_157_1662)">
<path d="M167.431 79.0411C168.178 77.7836 168.501 76.4229 168.649 74.9935C169.577 75.3233 170.291 74.8973 170.936 74.3475C171.138 74.1826 171.293 73.8802 171.333 73.6191C171.663 71.5643 171.966 69.5095 172.262 67.4548C172.39 66.5545 172.127 65.7711 171.562 65.0702C169.927 63.0223 167.801 61.8403 165.285 61.3523C164.619 61.2149 163.926 61.0912 163.254 61.1187C161.989 61.1668 160.771 60.94 159.594 60.5483C157.159 59.7511 154.669 59.6137 152.147 59.7718C151.656 59.7992 151.164 59.7855 150.68 59.7855C150.64 59.7855 150.599 59.7649 150.539 59.7511C150.727 58.7753 150.929 57.7995 151.104 56.8168C151.238 56.0746 151.353 55.3324 151.447 54.5833C151.555 53.7587 151.259 53.3601 150.512 53.044C148.272 52.1025 145.904 51.9238 143.529 51.8688C139.385 51.7795 135.268 52.0613 131.218 53.044C130.222 53.2845 129.246 53.6487 128.278 54.0061C128.009 54.1023 127.746 54.3359 127.578 54.5764C126.872 55.5317 126.212 56.5281 125.513 57.4902C125.412 57.6277 125.183 57.7445 125.015 57.7445C121.55 57.6826 118.086 57.7651 114.635 58.1018C113.693 58.198 112.744 58.3149 111.822 58.5279C111.251 58.6516 110.726 58.9815 110.174 59.2151C110.019 59.277 109.865 59.3457 109.703 59.3594C107.355 59.5381 104.994 59.6687 102.646 59.8886C100.655 60.081 98.7107 60.5414 96.8405 61.2768C94.4186 62.2251 93.6046 65.4138 95.2595 67.4616C95.3672 67.5991 95.4613 67.7709 95.5017 67.9427C95.6699 68.6368 95.8381 69.324 95.9524 70.0249C95.9928 70.2449 95.9121 70.5266 95.791 70.719C95.3537 71.4131 95.4344 72.0591 96.0803 72.5539C96.4099 72.815 96.3897 73.248 96.0399 73.4954C95.4613 73.9008 94.8828 74.2994 94.3244 74.7255C93.8669 75.0759 93.8468 75.3714 94.1899 75.8525C94.6137 76.4435 95.2326 76.7321 95.865 77.007C96.1408 77.117 96.4301 77.2888 96.5983 77.5224C97.345 78.5601 98.455 78.9724 100.056 78.0447C100.13 78.0035 100.238 77.9691 100.319 77.976C100.789 78.0516 101.26 78.1203 101.718 78.2234C101.825 78.2509 101.947 78.3814 101.987 78.4914C102.518 79.8177 103.285 80.9516 104.557 81.8175C103.904 81.9343 103.339 82.0236 102.781 82.1473C101.704 82.3879 100.635 82.6353 99.5651 82.9101C99.2758 82.9857 98.9932 83.1369 98.7376 83.3019C98.4079 83.5149 98.3945 83.831 98.7376 84.0097C99.2152 84.2571 99.7265 84.4701 100.245 84.6213C102.377 85.2192 104.57 85.4872 106.757 85.7346C112.522 86.3806 118.308 86.7104 124.1 86.8066C127.228 86.8616 130.357 86.8135 133.478 86.6486C134.985 86.573 136.472 86.14 137.972 85.8583C144.06 84.7038 150.149 83.5561 156.237 82.3879C159.87 81.6938 163.496 80.9791 167.129 80.2575C167.492 80.1819 167.848 80.0445 168.192 79.8864C168.494 79.7352 168.488 79.5222 168.185 79.3573C167.97 79.2336 167.727 79.1648 167.431 79.0411ZM115.879 77.543C116.041 78.1134 116.027 78.7731 116.653 79.103C115.785 80.0651 114.682 80.0926 113.894 79.1099C113.598 78.7388 113.363 78.2509 113.289 77.7836C113.033 76.2236 113.255 74.6842 113.726 73.193C113.975 72.4164 114.164 72.3408 114.971 72.3546C115.253 72.3615 115.375 72.4577 115.354 72.7532C115.307 73.5641 115.576 74.2925 115.973 74.9797C116.061 75.1378 116.135 75.3165 116.236 75.4677C116.431 75.7632 116.431 76.0312 116.195 76.3198C115.906 76.6771 115.805 77.0963 115.886 77.5568L115.879 77.543ZM116.781 63.3384C116.693 63.6682 116.639 63.8538 116.592 64.0462C116.256 65.4069 116.417 66.6782 117.211 67.8396C118.335 69.4889 120.366 69.482 121.416 67.7984C122.405 66.2178 122.418 64.5616 121.51 62.9329C121.039 62.0945 120.312 61.5516 119.35 61.4004C119.27 61.3867 119.196 61.3592 119.122 61.3317C119.108 61.2905 119.095 61.2493 119.081 61.2012C119.774 60.8782 120.44 60.5002 121.153 60.2391C123.649 59.3388 126.246 59.1189 128.863 59.0502C132.274 58.9609 135.678 59.1464 139.069 59.545C142.728 59.9779 146.375 60.5071 150.028 61.0087C150.169 61.0294 150.371 61.2218 150.398 61.3592C150.498 61.909 150.586 62.4588 150.599 63.0154C150.626 64.1905 150.606 65.3725 150.606 66.5889C150.384 66.5614 150.236 66.5408 150.088 66.5202C148.776 66.3071 147.478 66.0391 146.159 65.8879C142.883 65.5306 139.613 65.132 136.324 64.9258C133.821 64.7678 131.305 64.8571 128.789 64.8709C128.311 64.8709 127.827 65.0083 127.349 65.1045C127.262 65.1183 127.195 65.2351 127.114 65.3038C127.195 65.3725 127.262 65.455 127.349 65.51C127.41 65.5443 127.491 65.5306 127.558 65.5375C128.823 65.6543 130.087 65.7642 131.352 65.8948C131.783 65.936 132.213 66.0048 132.637 66.0597C130.195 69.3583 128.816 73.2273 126.556 76.6084C126.226 75.9418 125.641 75.715 125.022 75.5501C123.784 75.234 122.546 75.4402 121.308 75.502C119.942 75.5707 118.577 75.6532 117.211 75.715C117.063 75.7219 116.841 75.6669 116.787 75.5639C116.458 74.9522 116.162 74.3269 115.866 73.6946C115.731 73.406 115.798 73.193 116.067 72.9662C117.056 72.1347 117.211 70.7946 116.424 69.7569C116.141 69.3858 115.798 68.9941 115.395 68.7811C114.567 68.3275 113.706 67.8602 112.805 67.6128C109.421 66.6782 105.976 66.5477 102.505 67.015C101.415 67.1593 100.332 67.4273 99.3969 68.0801C98.6972 68.5681 98.3003 69.2278 98.4416 70.1143C98.5358 70.7259 98.7107 71.3238 98.8452 71.9148C98.5627 71.8804 98.2263 71.8392 97.8899 71.7979C97.8294 70.6091 97.6208 70.3342 96.605 70.0937C96.5108 69.4408 96.4166 68.788 96.3157 68.087C96.975 68.2382 97.5536 68.1282 98.1321 67.6128C98.011 67.9977 97.9168 68.2726 97.8294 68.5474C99 66.7744 100.419 65.2557 101.98 63.95C101.953 64.2043 101.839 64.5135 101.933 64.7197C102.088 65.0495 102.438 64.919 102.72 64.8502C102.888 64.809 103.043 64.7472 103.205 64.7128C104.328 64.5204 105.452 64.2318 106.582 64.163C108.56 64.0325 110.511 64.3967 112.435 64.8159C113.686 65.0908 114.783 64.9121 115.765 64.0668C116.054 63.8194 116.377 63.627 116.781 63.3384ZM160.455 62.8436C160.738 62.232 161.188 61.909 161.787 61.8815C162.689 61.8471 163.603 61.7784 164.498 61.8678C167.061 62.1358 169.214 63.249 170.943 65.2282C171.596 65.9704 171.811 66.7882 171.663 67.7503C171.387 69.537 171.131 71.3306 170.856 73.1174C170.735 73.9283 170.291 74.3269 169.416 74.4025C169.416 74.2032 169.429 74.0039 169.409 73.8046C169.281 72.1141 169.207 70.4167 168.992 68.7399C168.817 67.4067 168.138 66.8294 166.839 66.6026C165.232 66.3209 164.222 66.9188 163.691 68.4856C163.577 68.8223 163.489 69.1659 163.388 69.5095C162.964 70.9664 162.554 72.4302 162.11 73.8871C162.07 74.0383 161.888 74.2238 161.747 74.2582C161.283 74.3544 160.805 74.3819 160.334 74.4368C157.562 74.7667 154.791 75.0897 152.019 75.4195C149.24 75.7425 146.469 76.0724 143.697 76.3954C143.623 76.4023 143.542 76.3885 143.441 76.3885C143.3 73.2067 142.728 70.1418 141.403 67.2074C144.484 67.1868 147.491 67.4067 150.492 67.9427C150.492 68.1214 150.505 68.2657 150.492 68.4031C150.404 69.7226 150.29 71.0489 150.243 72.3683C150.223 72.8288 150.324 73.3098 150.451 73.7496C150.606 74.265 150.99 74.5812 151.534 74.6293C151.851 74.6567 152.174 74.6705 152.49 74.643C153.189 74.588 153.882 74.533 154.575 74.43C156.244 74.1894 157.912 73.9352 159.58 73.674C160.408 73.5435 160.865 73.0281 160.966 72.1897C161.04 71.4956 161.135 70.8015 161.161 70.1005C161.229 68.3207 161.276 66.5408 161.316 64.7609C161.33 63.9981 161.074 63.3315 160.455 62.8436ZM160.334 71.8461C160.368 71.8048 160.394 71.7705 160.421 71.7292C160.32 71.578 160.24 71.4131 160.112 71.2894C159.742 70.9046 159.365 70.5197 158.962 70.1693C156.748 68.2451 154.131 67.2624 151.312 66.7676C150.942 66.6988 150.916 66.5477 150.922 66.2315C150.936 64.9946 150.929 63.7507 150.902 62.5137C150.895 62.067 150.815 61.6272 150.768 61.1599C150.922 61.1737 151.043 61.1668 151.164 61.1874C153.337 61.5516 155.517 61.9159 157.683 62.3007C158.538 62.445 159.406 62.5687 160.146 63.0772C160.361 63.2216 160.522 63.4483 160.711 63.6339C160.69 63.6889 160.67 63.737 160.65 63.7919C160.3 63.8332 159.95 63.8882 159.594 63.9088C159.291 63.9363 158.982 63.9019 158.679 63.9363C158.43 63.9637 158.08 63.9156 158.067 64.2867C158.067 64.3555 158.47 64.486 158.692 64.5135C159.157 64.5754 159.621 64.596 160.092 64.6303C159.957 65.3794 160.024 65.668 160.334 65.7093C160.778 65.7711 160.845 65.4275 160.933 65.0976C160.946 65.7299 160.973 66.3552 160.946 66.9737C160.852 68.7124 160.765 70.451 160.61 72.1759C160.542 72.9387 160.24 73.2067 159.506 73.3098C157.132 73.6465 154.757 73.9764 152.375 74.2582C151.01 74.4162 150.593 73.9764 150.566 72.5608C150.559 72.2859 150.559 72.0179 150.579 71.743C150.64 70.9252 150.72 70.1005 150.788 69.2759C150.815 68.8704 150.842 68.4581 150.868 68.0183C154.313 68.6162 157.347 70.1693 160.334 71.8461ZM148.682 58.9402C148.386 58.8921 148.11 58.8715 147.841 58.8097C145.157 58.1637 142.439 57.772 139.674 57.7514C139.607 57.7514 139.492 57.772 139.472 57.7376C139.223 57.2085 138.947 57.5658 138.665 57.6895C138.551 57.7445 138.396 57.7445 138.261 57.7514C137.131 57.7857 136.001 57.7857 134.871 57.8613C134.265 57.9094 133.714 57.9369 133.303 57.3734C133.236 57.2772 133.108 57.2153 133 57.1466C131.581 56.1983 129.892 56.2258 128.762 57.662C128.702 57.7376 128.58 57.8132 128.486 57.8132C128.15 57.8132 127.807 57.7788 127.37 57.7514C128.029 56.7961 128.621 55.9096 129.24 55.0575C129.361 54.8788 129.59 54.7139 129.798 54.6658C131.48 54.2809 133.169 53.9099 134.871 53.5731C135.516 53.4425 136.189 53.4082 136.862 53.3257C136.761 54.2397 136.754 54.226 135.987 54.4046C135.786 54.4527 135.483 54.6177 135.456 54.7757C135.389 55.1812 135.301 55.6416 135.658 55.9715C135.503 56.212 135.301 56.4182 135.227 56.6656C135.187 56.803 135.308 57.071 135.436 57.1672C135.631 57.3184 135.792 57.1535 135.873 56.9405C135.934 56.7824 136.001 56.6175 136.034 56.4525C136.095 56.1364 136.263 56.0265 136.586 56.0196C137.279 55.999 137.979 55.9234 138.672 55.8821C138.934 55.8615 139.136 55.731 139.089 55.4629C139.015 55.0438 139.297 54.5146 138.786 54.2191C138.699 54.171 138.564 54.2122 138.456 54.2122C138.066 54.2122 137.676 54.2122 137.292 54.2122C137.407 53.3876 137.494 53.2639 138.033 53.2226C140.636 53.044 143.246 52.9478 145.857 53.2158C147.121 53.3463 148.366 53.58 149.55 54.116C149.261 55.7241 148.978 57.3184 148.682 58.9402ZM102.276 64.596C102.243 64.5547 102.202 64.5135 102.169 64.4792C102.283 64.2936 102.37 64.0806 102.518 63.9294C102.848 63.6064 103.191 63.2903 103.561 63.0085C105.169 61.7853 107.026 61.0706 108.896 60.3971C109.125 60.3147 109.353 60.2459 109.609 60.1703C109.616 60.2872 109.616 60.3421 109.623 60.3971C109.629 60.9606 109.656 60.9125 110.208 60.8507C111.002 60.7545 111.809 60.7613 112.616 60.7476C112.704 60.7407 112.838 60.8301 112.872 60.9125C113.06 61.3249 113.336 61.3042 113.706 61.1737C114.984 60.727 116.249 60.1978 117.561 59.8955C119.882 59.3663 122.237 58.9746 124.261 58.5898C120.756 58.7272 116.962 59.0708 113.41 60.7132C113.04 59.2426 111.836 59.6618 110.86 59.5175C111.19 59.3457 111.52 59.1739 111.87 59.1189C113.067 58.9334 114.265 58.7272 115.475 58.6241C119.673 58.2599 123.871 58.253 128.076 58.4454C128.392 58.4592 128.702 58.5004 129.011 58.5279C128.621 58.6035 128.224 58.5898 127.834 58.6104C125.741 58.6997 123.663 58.9402 121.638 59.5312C119.788 60.0741 118.193 60.995 117.077 62.658C117.023 62.7336 116.949 62.8092 116.868 62.8642C116.249 63.304 115.623 63.737 115.005 64.1699C114.433 64.5754 113.8 64.6784 113.128 64.5616C112.112 64.3829 111.096 64.1905 110.073 64.0325C107.658 63.6545 105.263 63.627 102.909 64.4379C102.707 64.5066 102.485 64.541 102.276 64.596ZM161.794 74.6361C161.518 75.2684 161.155 75.7082 160.509 75.8181C159.15 76.0449 157.791 76.2786 156.425 76.4916C152.725 77.0551 149.032 77.6117 145.332 78.1684C144.72 78.2646 144.101 78.3333 143.455 78.4227C143.455 77.9347 143.468 77.5087 143.448 77.0826C143.441 76.8421 143.536 76.7665 143.758 76.739C144.935 76.6153 146.112 76.4641 147.296 76.3267C151.4 75.8525 155.504 75.3783 159.607 74.8973C160.32 74.8148 161.034 74.7323 161.794 74.6361ZM139.109 76.3542C139.089 76.629 139.069 77.117 138.995 77.5911C138.699 79.4947 137.952 81.1715 136.458 82.4085C134.447 84.0715 131.837 83.776 130.215 81.7213C129.233 80.4843 128.776 79.0343 128.648 77.4674C128.48 75.2752 128.903 73.2411 130.188 71.4406C132.314 68.4787 135.866 68.5543 137.864 71.6055C138.759 72.9731 139.089 74.5193 139.109 76.3542ZM108.452 60.081C104.537 60.9881 101.402 63.146 98.7914 66.3003C99.1211 64.3829 98.7645 62.8298 97.0557 61.8128C100.756 60.4315 104.59 60.2253 108.452 60.081ZM116.7 78.6563C116.713 78.6151 116.72 78.5738 116.733 78.5326C117.023 78.5326 117.319 78.5395 117.608 78.5257C119.808 78.4227 122.008 78.3265 124.208 78.2028C124.423 78.1959 124.679 78.1409 124.84 78.0035C125.022 77.8523 125.244 77.5705 125.217 77.385C125.183 77.2063 124.874 77.0207 124.652 76.9383C124.457 76.8627 124.214 76.9245 123.986 76.9314C121.577 77.0139 119.162 77.1032 116.754 77.1788C116.626 77.1857 116.498 77.1651 116.323 77.1513C116.464 76.8971 116.606 76.7252 116.666 76.526C116.774 76.2098 116.976 76.1411 117.272 76.148C117.79 76.148 118.308 76.1205 118.819 76.0999C120.588 76.0243 122.364 75.935 124.134 75.8937C124.551 75.8869 124.988 76.0243 125.398 76.148C125.856 76.2923 126.152 76.6153 126.192 77.1376C126.233 77.7011 125.997 78.1272 125.513 78.3539C125.163 78.5257 124.786 78.6494 124.403 78.7113C121.974 79.1167 119.532 78.9793 117.097 78.7869C116.962 78.7731 116.834 78.7044 116.7 78.6563ZM99.0941 72.4852C99.3027 73.0349 99.7265 73.3442 100.191 73.571C100.729 73.839 101.287 74.0864 101.859 74.2582C104.301 74.9866 106.817 75.0072 109.333 74.9041C110.524 74.8492 111.715 74.7392 112.953 74.6499C112.906 75.0278 112.865 75.4058 112.818 75.7906C112.724 75.8044 112.657 75.8181 112.589 75.8181C111.163 75.8387 109.737 75.8869 108.317 75.8731C105.519 75.8387 102.747 75.4951 99.9956 75.0072C99.814 74.9729 99.5583 74.911 99.4911 74.7804C99.1143 74.0726 98.9327 73.3098 99.0941 72.4852ZM117.621 65.4619C117.608 64.5891 117.837 63.8057 118.462 63.1735C118.886 62.7543 119.31 62.713 119.734 63.0566C120.918 64.005 121.012 66.3552 119.916 67.3929C119.324 67.9564 118.631 67.8946 118.153 67.228C117.776 66.7057 117.608 66.1078 117.621 65.4619ZM149.933 53.903C148.292 53.2089 146.61 52.8653 144.639 52.776C141.221 52.6248 137.824 52.7897 134.447 53.2914C132.543 53.58 130.646 53.9305 128.843 54.6589C128.601 54.762 128.365 54.9475 128.204 55.1537C127.632 55.9096 127.094 56.6931 126.542 57.4627C126.461 57.5727 126.36 57.6552 126.266 57.7514L126.192 57.6758C126.852 56.7068 127.511 55.731 128.184 54.7689C128.264 54.6589 128.426 54.5764 128.567 54.5352C130.054 54.116 131.527 53.6075 133.041 53.312C137.158 52.5011 141.329 52.3636 145.507 52.6248C147.034 52.7141 148.527 52.9546 149.954 53.5731C150.229 53.6899 150.29 53.8136 150.243 54.1023C149.974 55.5592 149.738 57.0229 149.483 58.4798C149.261 59.7511 149.14 59.8748 147.908 59.5312C145.251 58.7822 142.547 58.4729 139.809 58.3492C139.681 58.3424 139.566 58.2393 139.445 58.1843C141.477 58.1293 143.468 58.253 145.433 58.6379C146.482 58.8509 147.538 59.0571 148.595 59.2632C148.897 59.3182 149.045 59.2357 149.072 58.8784C149.099 58.4111 149.193 57.9438 149.281 57.4833C149.489 56.2945 149.711 55.1056 149.933 53.903ZM159.621 76.5603C159.85 77.1994 160.051 77.7836 160.273 78.4158C157.206 78.2646 154.165 78.1134 151.117 77.9554C151.117 77.9279 151.111 77.9072 151.111 77.8798C153.95 77.4399 156.782 77.0001 159.621 76.5603ZM100.884 73.0143C100.931 72.4508 100.964 71.9354 101.005 71.4269L101.119 71.4337C101.119 71.8048 101.153 72.1828 101.112 72.5539C101.065 72.9799 101.233 73.1243 101.624 73.2342C104.638 74.0864 107.672 74.0039 110.719 73.5572C110.955 73.5228 111.062 73.4404 111.062 73.1792C111.062 72.7119 111.089 72.2378 111.116 71.7705C111.123 71.6811 111.156 71.5918 111.177 71.5024C111.204 71.5093 111.23 71.5093 111.257 71.5162C111.284 72.1553 111.311 72.7875 111.338 73.4473C111.997 73.3648 112.603 73.2892 113.222 73.2136C113.047 74.0932 113.047 74.0932 112.219 74.1894C109.575 74.4987 106.932 74.5674 104.281 74.265C102.969 74.1207 101.691 73.8252 100.5 73.2342C100.238 73.1036 100.009 72.9181 99.7669 72.7532L99.814 72.6707C100.157 72.7807 100.493 72.8837 100.884 73.0143ZM105.741 70.7671C105.754 71.2894 105.64 71.7636 105.29 72.1553C104.907 72.5951 104.436 72.6638 103.938 72.3752C102.888 71.7567 102.619 69.8738 103.454 68.9804C103.904 68.4925 104.483 68.4581 104.981 68.8979C105.532 69.3858 105.727 70.0456 105.741 70.7671ZM99.7803 75.4058C104.046 76.1549 108.351 76.4985 112.731 76.3198C112.717 76.6015 112.704 76.8352 112.684 77.117C108.23 77.0139 103.824 76.739 99.4238 75.9899C99.5516 75.77 99.6593 75.5913 99.7803 75.4058ZM97.6208 64.9602C97.6276 65.7505 97.4728 66.3552 96.9885 66.8294C96.679 67.1387 96.3157 67.0974 96.0466 66.7607C95.3672 65.9017 95.5084 64.1149 96.309 63.3727C96.6185 63.091 96.8135 63.091 97.0894 63.4208C97.4863 63.895 97.6276 64.4654 97.6208 64.9602ZM114.184 80.7729C114.164 80.7317 114.143 80.6905 114.123 80.6561C114.318 80.5324 114.534 80.2919 114.709 80.3194C115.59 80.4637 116.316 80.2025 116.982 79.6184C117.11 79.5016 117.319 79.426 117.494 79.426C118.806 79.4329 120.111 79.4741 121.422 79.4878C122.048 79.4947 122.048 79.481 122.216 80.1888C119.539 80.3812 116.861 80.5805 114.184 80.7729ZM164.283 77.1238C164.391 77.2819 164.492 77.4537 164.613 77.6117C165.164 78.3196 165.958 78.3471 166.55 77.6736C166.678 77.5224 166.799 77.3644 166.886 77.1857C167.822 75.1515 167.848 73.083 166.994 71.0283C166.745 70.4373 166.335 69.9012 165.628 69.9219C164.936 69.9425 164.572 70.4991 164.31 71.0832C164.115 71.5024 163.994 71.9491 163.839 72.3752C164 71.3375 164.283 70.3548 165.104 69.6401C165.554 69.2553 166.153 69.2278 166.543 69.6676C166.927 70.1005 167.29 70.6091 167.478 71.152C168.017 72.6844 168.05 74.2788 167.761 75.8731C167.613 76.6909 167.371 77.4812 166.812 78.1203C166.389 78.6151 165.918 78.7456 165.393 78.5051C164.794 78.244 164.471 77.7286 164.283 77.1238ZM99.518 77.8385C98.6232 78.3539 97.715 78.1959 97.1096 77.4537C96.7395 77.0001 96.5512 76.4779 96.5108 75.8869C96.4435 74.911 96.7059 73.997 97.0154 73.0968C97.2508 72.4027 97.5805 72.224 98.3003 72.2996C98.5223 72.3271 98.6232 72.4164 98.6098 72.657C98.5492 73.5435 98.778 74.375 99.1681 75.1653C99.2085 75.2477 99.2018 75.3852 99.1614 75.4677C99.0201 75.7838 98.852 76.0793 98.7107 76.3542C98.4281 75.1309 98.1792 73.8458 98.4214 72.5195C97.8765 72.4439 97.6141 72.5951 97.4257 73.1174C97.049 74.1826 96.9414 75.289 97.0288 76.4023C97.0894 77.1582 97.8025 77.7836 98.482 77.6049C98.9125 77.4881 99.1681 77.6736 99.518 77.8385ZM139.519 58.9883C139.506 58.9609 139.499 58.9265 139.492 58.899C139.647 58.8784 139.802 58.8372 139.95 58.8509C142.089 59.0914 144.222 59.3251 146.354 59.5931C147.101 59.6893 147.828 59.8955 148.574 59.9985C149.227 60.0879 149.523 59.8611 149.658 59.222C149.839 58.3699 149.987 57.5177 150.142 56.6656C150.317 55.731 150.492 54.8032 150.673 53.8274C151.016 54.2947 150.35 58.7547 149.752 60.3078C146.341 59.868 142.93 59.4282 139.519 58.9883ZM150.552 67.0493C143.677 65.991 136.761 65.345 129.805 65.132C136.788 64.9808 143.697 65.723 150.552 67.0493ZM112.751 78.6082C108.317 78.5464 103.945 78.0241 99.6054 77.2132C99.6996 77.1994 99.8005 77.1926 99.8947 77.2063C101.085 77.3369 102.269 77.5155 103.467 77.598C106.427 77.7973 109.394 77.9622 112.361 78.1272C112.67 78.1409 112.805 78.2371 112.751 78.6082ZM116.411 70.719C116.384 70.7809 116.363 70.8427 116.337 70.9046C113.45 70.7809 110.558 70.6641 107.625 70.5404C107.638 70.396 107.658 70.2861 107.665 70.2036H111.082C111.13 69.5989 111.17 69.0354 111.21 68.465C111.23 68.465 111.251 68.465 111.278 68.465V70.238C111.621 70.2723 111.917 70.3067 112.226 70.3204C113.477 70.396 114.729 70.4579 115.98 70.5404C116.128 70.5541 116.269 70.6572 116.411 70.719ZM136.842 84.4083C140.575 79.8383 141.242 74.9041 138.355 69.5783C141.706 73.9558 140.697 81.0615 136.842 84.4083ZM121.1 65.2007C120.602 62.7955 119.599 61.9571 117.776 62.3419C118.328 61.7028 119.162 61.5585 119.983 61.9571C121.005 62.445 121.84 63.8538 121.698 64.864C121.369 64.6097 121.227 64.8365 121.1 65.2007ZM106.111 70.4441C106.01 70.1212 105.936 69.8325 105.835 69.5576C105.613 68.9529 105.223 68.5062 104.631 68.2726C104.106 68.0595 103.662 68.2519 103.218 68.6093C103.433 67.9427 103.938 67.6678 104.658 67.7778C105.781 67.9496 106.669 69.0079 106.656 70.1624C106.535 70.0524 106.407 69.9494 106.225 69.7844C106.178 70.0524 106.144 70.2242 106.111 70.4441ZM166.113 75.3921C165.938 75.8113 165.743 76.1342 165.353 76.1892C164.989 76.2442 164.788 75.935 164.633 75.6395C164.148 74.7117 163.994 73.729 164.236 72.7051C164.303 72.4164 164.444 72.1072 164.646 71.8873C164.808 71.7086 165.124 71.5368 165.339 71.5643C165.649 71.6124 165.898 71.8873 165.992 72.279C165.353 71.9079 165.063 71.9766 164.747 72.602C164.37 73.3304 164.337 74.107 164.545 74.8835C164.774 75.7082 165.359 75.9143 166.113 75.3921ZM165.265 70.293C165.702 70.0937 165.998 70.2105 166.207 70.451C166.476 70.7603 166.745 71.1107 166.9 71.4956C167.398 72.7188 167.404 73.997 167.196 75.2821C167.068 76.0724 166.88 76.8489 166.342 77.4743C166.059 77.7973 165.729 78.0103 165.205 77.811C166.099 77.6255 166.503 77.0139 166.738 76.2717C166.886 75.8044 166.987 75.3096 167.041 74.8148C167.162 73.5503 167.102 72.3065 166.469 71.1588C166.227 70.7122 165.911 70.3342 165.265 70.293ZM98.0581 65.0564C97.8294 63.8126 97.493 62.6787 96.0264 62.4381C96.4435 62.0602 96.8135 62.0258 97.2845 62.3625C98.1187 62.9535 98.4618 63.8194 98.5694 64.8502C98.4281 64.7815 98.3272 64.7334 98.2061 64.6784C98.1523 64.8296 98.1052 64.9396 98.0581 65.0564ZM129.704 57.8751C130.229 57.016 131.998 57.1397 132.738 58.1362C131.736 58.0469 130.733 57.9644 129.704 57.8751ZM150.916 67.1387C153.27 67.441 155.504 68.1145 157.468 69.5233C155.409 68.3825 153.203 67.6609 150.916 67.1387ZM163.61 70.9183C163.718 70.5885 163.772 70.2242 163.947 69.9287C164.269 69.379 164.613 68.8223 165.043 68.355C165.48 67.8877 166.012 67.874 166.469 68.1489C164.673 68.1626 164.296 69.6882 163.61 70.9183ZM102.592 70.3823C102.579 70.451 102.566 70.5266 102.552 70.5953C101.503 70.4441 100.453 70.293 99.3969 70.1486C99.74 70.1143 100.076 70.1143 100.406 70.1555C100.81 70.2105 101.011 70.0868 100.971 69.6332C100.951 69.4408 101.011 69.2415 101.038 69.0422C101.065 69.0491 101.092 69.0491 101.112 69.0491V70.1418C101.63 70.2242 102.108 70.3067 102.592 70.3823ZM95.0241 75.0622C95.0173 75.021 95.0106 74.9797 94.9971 74.9385C95.421 74.6224 95.8448 74.3063 96.2686 73.997L96.3292 74.0795C96.2148 74.1688 96.0937 74.2582 95.9659 74.3612C96.3897 74.6567 96.0264 74.9866 96.0668 75.3508C95.6833 75.2477 95.3537 75.1515 95.0241 75.0622ZM165.77 73.0349C166.106 73.3923 166.194 73.9902 165.972 74.3269C165.83 74.533 165.682 74.6018 165.514 74.3612C165.238 73.9764 165.346 73.351 165.77 73.0349ZM138.066 58.0675C137.622 58.363 134.79 58.4111 134.4 58.198C135.651 58.1499 136.862 58.1087 138.066 58.0675ZM96.2619 71.4887C96.309 71.042 96.4906 70.7877 96.8472 70.7534C97.1768 70.719 97.3248 70.9596 97.4257 71.3306C97.0288 71.3856 96.6655 71.4337 96.2619 71.4887ZM166.059 72.7875C165.178 72.0591 165.158 73.1243 164.74 73.406C164.801 73.1449 164.882 72.8906 165.016 72.6776C165.353 72.1416 165.756 72.1759 166.059 72.7875ZM166.234 74.4643C166.146 75.1034 165.871 75.4539 165.501 75.4608C165.171 75.4745 164.848 75.1653 164.781 74.7667C165.346 75.557 165.662 75.502 166.234 74.4643Z" fill="black"/>
</g>
<path d="M119.512 71.0077C118.832 71.0077 118.133 71.8873 118.133 72.7394C118.14 73.5366 119.001 74.32 119.875 74.3269C120.669 74.3338 121.369 73.6466 121.375 72.8494C121.382 71.9217 120.467 71.0145 119.512 71.0077ZM119.128 71.4887C120.05 71.2138 121.086 72.0522 120.911 72.8494C120.38 72.334 120.037 71.5987 119.128 71.4887ZM118.624 72.5127C118.758 72.1622 118.974 71.9285 119.35 71.9491C119.62 71.9698 119.835 72.0935 119.895 72.4577C119.734 72.3958 119.613 72.3477 119.492 72.3065C119.472 72.4371 119.458 72.547 119.445 72.6707C119.169 72.6157 118.92 72.5676 118.624 72.5127Z" fill="black"/>
<path d="M107.476 63.3109C107.772 63.2009 108.102 63.1185 108.378 62.9535C108.721 62.7405 108.68 62.3694 108.331 62.177C107.907 61.9365 107.059 62.067 106.729 62.4381C106.507 62.6787 106.554 62.9261 106.803 63.0841C106.985 63.2009 107.214 63.2284 107.476 63.3109ZM108.223 62.5275C107.759 62.9329 107.328 62.9535 106.999 62.6237C107.375 62.39 107.752 62.3282 108.223 62.5275Z" fill="black"/>
<path d="M129.004 76.5672C129.031 78.1409 129.293 79.5085 130.08 80.7317C131.493 82.9445 134.231 83.3431 136.175 81.5976C137.38 80.5187 138.032 79.1236 138.288 77.5293C138.591 75.6188 138.348 73.8046 137.292 72.1553C136.666 71.1657 135.805 70.4442 134.662 70.1761C133.296 69.8669 132.105 70.2861 131.123 71.2551C129.63 72.7394 129.024 74.6086 129.004 76.5672ZM132.004 78.8762C131.877 78.725 131.796 78.6357 131.722 78.5395C130.982 77.6255 130.504 76.5878 130.423 75.3989C130.316 73.8665 131.298 72.6913 132.738 72.5951C132.973 72.5814 133.209 72.5951 133.444 72.5951C131.54 72.2515 130.524 73.3304 129.811 75.0485C129.979 73.4816 130.847 72.3958 132.125 72.0454C133.35 71.7155 134.46 72.1416 135.281 73.2548C136.619 75.076 136.37 78.3127 134.776 79.9002C134.224 80.4499 133.565 80.7042 132.791 80.5943C132.28 80.5187 131.89 80.2575 131.628 79.8589C132.3 79.8864 132.946 79.9964 133.579 79.9208C134.251 79.8452 134.884 79.2611 135.086 78.7525C134.076 79.8108 133.484 79.9758 132.536 79.4466C132.226 79.2748 131.937 79.0686 131.634 78.8831C131.648 78.8625 131.655 78.835 131.668 78.8144C131.755 78.8281 131.836 78.8487 132.004 78.8762ZM132.018 70.987C133.35 70.025 135.133 70.2861 136.317 71.633C137.938 73.4816 138.22 75.667 137.696 77.9966C137.312 79.6734 136.444 81.0409 134.931 81.8931C133.868 82.491 132.509 82.4497 131.675 81.8037C133.464 82.3947 134.857 81.7831 136 80.4362C137.608 78.5395 137.965 75.289 136.828 73.0693C136.276 71.9835 135.509 71.1382 134.298 70.8015C133.511 70.5747 132.758 70.6915 132.018 70.987ZM135.456 80.2988C134.11 82.058 131.883 82.2367 130.43 80.498C132.025 81.7213 133.619 81.9824 135.456 80.2988Z" fill="black"/>
<path d="M115.885 77.5568C115.744 76.8077 115.596 76.0587 115.461 75.3096C115.3 74.43 115.159 73.5504 115.004 72.6364C114.654 72.5745 114.466 72.8631 114.378 73.1999C114.217 73.8184 114.062 74.4437 113.981 75.076C113.88 75.8594 113.84 76.6565 113.806 77.4537C113.786 77.9004 113.88 78.3402 114.21 78.6701C114.499 78.9587 114.829 79.1236 115.233 78.9793C115.65 78.8281 115.825 78.4845 115.851 78.0516C115.865 77.8867 115.872 77.7149 115.878 77.543L115.885 77.5568Z" fill="black"/>
<path d="M131.54 77.653C131.48 77.2338 131.332 76.8077 131.365 76.4023C131.412 75.8181 131.587 75.2478 131.715 74.6705C131.116 75.6326 131.089 76.6291 131.54 77.653Z" fill="black"/>
<path d="M135.227 74.643C135.341 75.0485 135.543 75.4608 135.536 75.8662C135.529 76.4504 135.368 77.0276 135.274 77.6118C135.765 76.849 135.724 76.0312 135.509 75.1996C135.455 75.0004 135.321 74.8286 135.227 74.643Z" fill="black"/>
<path d="M134.063 78.8419C133.377 79.1099 132.771 78.9312 132.206 78.4983C132.556 79.0549 133.558 79.2405 134.063 78.8419Z" fill="black"/>
<path d="M131.803 76.2373C131.836 76.8008 131.924 77.44 132.482 77.6805C132.973 77.8935 133.565 77.866 134.117 77.921C134.191 77.9347 134.285 77.8317 134.352 77.7629C135.045 77.1032 135.126 75.88 134.527 75.124C134.487 75.0691 134.426 75.021 134.4 74.9591C134.083 74.2169 133.343 74.0108 132.684 74.4987C132.119 74.9179 131.823 75.4951 131.803 76.2373ZM134.675 76.1892C134.669 76.9245 134.312 77.3918 133.814 77.4262C133.31 77.4674 132.906 77.0689 132.819 76.4298C132.798 76.2923 132.798 76.1411 132.819 76.0037C132.886 75.5226 133.215 75.1378 133.579 75.0966C133.976 75.0553 134.413 75.3508 134.581 75.7975C134.642 75.9487 134.655 76.1205 134.675 76.1892ZM133.182 74.9385C132.953 75.2409 132.745 75.5158 132.523 75.8181C132.408 75.77 132.287 75.7151 132.173 75.6601C132.354 74.9316 132.738 74.6636 133.182 74.9385Z" fill="black"/>
<path d="M148.682 58.9402C148.978 57.3184 149.26 55.7241 149.549 54.116C148.365 53.58 147.121 53.3464 145.856 53.2158C143.246 52.9478 140.636 53.044 138.032 53.2227C137.494 53.2639 137.406 53.3876 137.292 54.2122C137.676 54.2122 138.066 54.2122 138.456 54.2122C138.564 54.2122 138.698 54.171 138.786 54.2191C139.297 54.5146 139.014 55.0438 139.088 55.463C139.135 55.731 138.934 55.8615 138.671 55.8822C137.978 55.9234 137.279 55.999 136.586 56.0196C136.263 56.0265 136.095 56.1364 136.034 56.4525C136 56.6175 135.933 56.7824 135.873 56.9405C135.792 57.1535 135.63 57.3184 135.435 57.1672C135.308 57.071 135.186 56.803 135.227 56.6656C135.301 56.4182 135.503 56.212 135.657 55.9715C135.301 55.6416 135.388 55.1812 135.456 54.7757C135.482 54.6177 135.785 54.4528 135.987 54.4047C136.754 54.226 136.761 54.2397 136.862 53.3257C136.189 53.4082 135.516 53.4426 134.87 53.5731C133.168 53.9099 131.48 54.281 129.798 54.6658C129.589 54.7139 129.36 54.8788 129.239 55.0575C128.62 55.9096 128.028 56.7961 127.369 57.7514C127.806 57.7789 128.15 57.8132 128.486 57.8132C128.58 57.8132 128.701 57.7376 128.762 57.662C129.892 56.2258 131.581 56.1983 133 57.1466C133.108 57.2153 133.235 57.2772 133.303 57.3734C133.713 57.9369 134.265 57.9094 134.87 57.8613C136 57.7857 137.131 57.7857 138.261 57.7514C138.395 57.7445 138.55 57.7445 138.664 57.6895C138.947 57.5658 139.223 57.2085 139.472 57.7376C139.492 57.772 139.606 57.7514 139.674 57.7514C142.439 57.772 145.156 58.1637 147.841 58.8097C148.11 58.8715 148.386 58.8921 148.682 58.9402Z" fill="white"/>
<path d="M139.109 76.3542C139.088 74.5193 138.759 72.9731 137.864 71.6055C135.866 68.5543 132.314 68.4787 130.188 71.4406C128.903 73.2411 128.479 75.2753 128.647 77.4675C128.775 79.0343 129.233 80.4843 130.215 81.7213C131.836 83.776 134.446 84.0716 136.458 82.4085C137.951 81.1715 138.698 79.4947 138.994 77.5912C139.068 77.117 139.088 76.6291 139.109 76.3542ZM129.004 76.5672C129.024 74.6087 129.63 72.7394 131.123 71.2551C132.105 70.2861 133.296 69.8669 134.662 70.1762C135.805 70.4442 136.667 71.1657 137.292 72.1553C138.348 73.8046 138.591 75.6189 138.288 77.5293C138.032 79.1236 137.38 80.5187 136.175 81.5976C134.231 83.3431 131.493 82.9445 130.08 80.7317C129.293 79.5085 129.031 78.1409 129.004 76.5672Z" fill="white"/>
<path d="M117.621 65.4619C117.607 66.1078 117.776 66.7057 118.152 67.228C118.63 67.8946 119.323 67.9564 119.915 67.3929C121.011 66.3552 120.917 64.005 119.733 63.0566C119.309 62.713 118.886 62.7543 118.462 63.1735C117.836 63.8057 117.607 64.5891 117.621 65.4619Z" fill="white"/>
<path d="M97.6206 64.9602C97.6274 64.4654 97.4861 63.895 97.0892 63.4208C96.8133 63.091 96.6182 63.091 96.3088 63.3727C95.5082 64.1149 95.3669 65.9017 96.0464 66.7607C96.3155 67.0974 96.6788 67.1387 96.9882 66.8294C97.4726 66.3552 97.6274 65.7505 97.6206 64.9602Z" fill="white"/>
<path d="M164.283 77.1238C164.471 77.7286 164.794 78.244 165.393 78.5051C165.918 78.7456 166.389 78.6151 166.812 78.1203C167.371 77.4812 167.613 76.6909 167.761 75.8731C168.05 74.2788 168.017 72.6844 167.478 71.152C167.29 70.6091 166.927 70.1005 166.543 69.6676C166.153 69.2278 165.554 69.2553 165.104 69.6401C164.283 70.3548 164 71.3375 163.839 72.3752C163.994 71.9491 164.115 71.5024 164.31 71.0832C164.572 70.4991 164.935 69.9425 165.628 69.9219C166.335 69.9012 166.745 70.4373 166.994 71.0283C167.848 73.083 167.822 75.1515 166.886 77.1857C166.799 77.3644 166.678 77.5224 166.55 77.6736C165.958 78.3471 165.164 78.3196 164.613 77.6117C164.491 77.4537 164.391 77.2819 164.283 77.1238Z" fill="white"/>
<path d="M136.842 84.4083C140.697 81.0616 141.706 73.9558 138.355 69.5783C141.242 74.9042 140.576 79.8383 136.842 84.4083Z" fill="white"/>
<path d="M166.113 75.3921C165.359 75.9144 164.774 75.7082 164.545 74.8835C164.337 74.107 164.37 73.3304 164.747 72.602C165.063 71.9766 165.353 71.9079 165.992 72.279C165.898 71.8873 165.649 71.6124 165.339 71.5643C165.124 71.5368 164.808 71.7086 164.646 71.8873C164.444 72.1072 164.303 72.4165 164.236 72.7051C163.994 73.729 164.148 74.7117 164.633 75.6395C164.788 75.935 164.989 76.2442 165.353 76.1892C165.743 76.1343 165.938 75.8113 166.113 75.3921Z" fill="white"/>
<path d="M165.265 70.293C165.91 70.3342 166.227 70.7122 166.469 71.1588C167.101 72.3065 167.162 73.5503 167.041 74.8148C166.987 75.3096 166.886 75.8044 166.738 76.2717C166.502 77.0139 166.099 77.6255 165.204 77.811C165.729 78.0103 166.058 77.7973 166.341 77.4743C166.879 76.849 167.068 76.0724 167.195 75.2821C167.404 73.997 167.397 72.7188 166.899 71.4956C166.745 71.1107 166.476 70.7603 166.206 70.451C165.998 70.2105 165.702 70.0937 165.265 70.293Z" fill="white"/>
<path d="M129.703 57.8751C130.732 57.9644 131.735 58.0469 132.737 58.1362C131.997 57.1398 130.228 57.0161 129.703 57.8751Z" fill="white"/>
<path d="M163.609 70.9183C164.296 69.6882 164.672 68.1626 166.469 68.1489C166.011 67.874 165.48 67.8877 165.042 68.355C164.612 68.8224 164.269 69.379 163.946 69.9288C163.771 70.2243 163.717 70.5885 163.609 70.9183Z" fill="white"/>
<path d="M165.769 73.0349C165.345 73.3511 165.238 73.9764 165.513 74.3613C165.682 74.6018 165.83 74.5331 165.971 74.3269C166.193 73.9902 166.105 73.3923 165.769 73.0349Z" fill="white"/>
<path d="M166.059 72.7876C165.756 72.1759 165.352 72.1416 165.016 72.6776C164.882 72.8906 164.801 73.1449 164.74 73.406C165.157 73.1243 165.178 72.0591 166.059 72.7876Z" fill="white"/>
<path d="M166.233 74.4643C165.662 75.502 165.345 75.557 164.78 74.7667C164.848 75.1653 165.17 75.4745 165.5 75.4608C165.87 75.4539 166.146 75.1034 166.233 74.4643Z" fill="white"/>
<path d="M132.005 78.8762C131.836 78.8487 131.756 78.8281 131.668 78.8144C131.655 78.835 131.648 78.8625 131.635 78.8831C131.937 79.0686 132.227 79.2748 132.536 79.4466C133.485 79.9758 134.077 79.8108 135.086 78.7525C134.884 79.2611 134.252 79.8452 133.579 79.9208C132.947 79.9964 132.301 79.8864 131.628 79.8589C131.89 80.2575 132.28 80.5187 132.792 80.5943C133.565 80.7042 134.225 80.4499 134.776 79.9002C136.371 78.3127 136.62 75.076 135.281 73.2548C134.46 72.1416 133.35 71.7155 132.126 72.0454C130.848 72.3958 129.98 73.4816 129.812 75.0485C130.525 73.3304 131.54 72.2515 133.444 72.5951C133.209 72.5951 132.973 72.5814 132.738 72.5951C131.298 72.6913 130.316 73.8665 130.424 75.3989C130.504 76.5878 130.982 77.6255 131.722 78.5395C131.796 78.6357 131.877 78.725 132.005 78.8762ZM131.54 77.653C131.09 76.6291 131.117 75.6326 131.715 74.6705C132.2 74.0795 132.711 73.5916 133.572 73.6397C134.326 73.6809 134.797 74.1001 135.227 74.643C135.321 74.8286 135.456 75.0004 135.51 75.1997C135.725 76.0312 135.765 76.849 135.274 77.6118C135.025 78.1821 134.655 78.6288 134.063 78.8419C133.559 79.2405 132.556 79.0549 132.206 78.4983C131.984 78.2165 131.762 77.9348 131.54 77.653Z" fill="white"/>
<path d="M132.018 70.987C132.758 70.6915 133.511 70.5747 134.299 70.8015C135.509 71.1382 136.276 71.9835 136.828 73.0693C137.965 75.289 137.608 78.5395 136.001 80.4362C134.857 81.7831 133.464 82.3947 131.675 81.8037C132.509 82.4497 133.868 82.4909 134.931 81.8931C136.445 81.0409 137.312 79.6734 137.696 77.9966C138.221 75.6669 137.938 73.4816 136.317 71.633C135.133 70.2861 133.35 70.0249 132.018 70.987Z" fill="white"/>
<path d="M135.455 80.2988C133.618 81.9824 132.024 81.7213 130.43 80.4981C131.883 82.2367 134.11 82.058 135.455 80.2988Z" fill="white"/>
<path d="M135.227 74.643C134.796 74.1001 134.325 73.6809 133.572 73.6397C132.711 73.5916 132.199 74.0795 131.715 74.6705C131.587 75.2478 131.412 75.8181 131.365 76.4023C131.332 76.8077 131.48 77.2338 131.54 77.653C131.762 77.9348 131.984 78.2165 132.206 78.4983C132.771 78.9312 133.377 79.1099 134.063 78.8419C134.655 78.6288 135.025 78.1822 135.274 77.6118C135.368 77.0276 135.53 76.4504 135.536 75.8663C135.543 75.4608 135.341 75.0485 135.227 74.643ZM131.803 76.2373C131.823 75.4952 132.119 74.9179 132.684 74.4987C133.343 74.0108 134.083 74.2169 134.399 74.9591C134.426 75.021 134.487 75.0691 134.527 75.1241C135.126 75.88 135.045 77.1032 134.352 77.763C134.285 77.8317 134.191 77.9348 134.117 77.921C133.565 77.866 132.973 77.8935 132.482 77.6805C131.924 77.44 131.836 76.8009 131.803 76.2373Z" fill="white"/>
<path d="M134.675 76.1892C134.654 76.1205 134.641 75.9487 134.58 75.7975C134.412 75.3508 133.975 75.0553 133.578 75.0966C133.215 75.1378 132.885 75.5226 132.818 76.0037C132.798 76.1411 132.798 76.2923 132.818 76.4298C132.905 77.0689 133.309 77.4674 133.814 77.4262C134.311 77.3919 134.668 76.9246 134.675 76.1892Z" fill="white"/>
<path d="M133.182 74.9385C132.738 74.6636 132.354 74.9316 132.173 75.6601C132.287 75.715 132.408 75.77 132.523 75.8181C132.745 75.5158 132.953 75.2409 133.182 74.9385Z" fill="white"/>
</g>
<path d="M57.768 123.112C57.032 123.112 56.3707 122.984 55.784 122.728C55.208 122.461 54.7547 122.099 54.424 121.64C54.0933 121.171 53.9227 120.632 53.912 120.024H55.464C55.5173 120.547 55.7307 120.989 56.104 121.352C56.488 121.704 57.0427 121.88 57.768 121.88C58.4613 121.88 59.0053 121.709 59.4 121.368C59.8053 121.016 60.008 120.568 60.008 120.024C60.008 119.597 59.8907 119.251 59.656 118.984C59.4213 118.717 59.128 118.515 58.776 118.376C58.424 118.237 57.9493 118.088 57.352 117.928C56.616 117.736 56.024 117.544 55.576 117.352C55.1387 117.16 54.76 116.861 54.44 116.456C54.1307 116.04 53.976 115.485 53.976 114.792C53.976 114.184 54.1307 113.645 54.44 113.176C54.7493 112.707 55.1813 112.344 55.736 112.088C56.3013 111.832 56.9467 111.704 57.672 111.704C58.7173 111.704 59.5707 111.965 60.232 112.488C60.904 113.011 61.2827 113.704 61.368 114.568H59.768C59.7147 114.141 59.4907 113.768 59.096 113.448C58.7013 113.117 58.1787 112.952 57.528 112.952C56.92 112.952 56.424 113.112 56.04 113.432C55.656 113.741 55.464 114.179 55.464 114.744C55.464 115.149 55.576 115.48 55.8 115.736C56.0347 115.992 56.3173 116.189 56.648 116.328C56.9893 116.456 57.464 116.605 58.072 116.776C58.808 116.979 59.4 117.181 59.848 117.384C60.296 117.576 60.68 117.88 61 118.296C61.32 118.701 61.48 119.256 61.48 119.96C61.48 120.504 61.336 121.016 61.048 121.496C60.76 121.976 60.3333 122.365 59.768 122.664C59.2027 122.963 58.536 123.112 57.768 123.112ZM65.3986 115.432V120.6C65.3986 121.027 65.4893 121.331 65.6706 121.512C65.852 121.683 66.1666 121.768 66.6146 121.768H67.6866V123H66.3746C65.564 123 64.956 122.813 64.5506 122.44C64.1453 122.067 63.9426 121.453 63.9426 120.6V115.432H62.8066V114.232H63.9426V112.024H65.3986V114.232H67.6866V115.432H65.3986ZM68.9068 118.584C68.9068 117.688 69.0881 116.904 69.4508 116.232C69.8134 115.549 70.3094 115.021 70.9388 114.648C71.5788 114.275 72.2881 114.088 73.0668 114.088C73.8348 114.088 74.5014 114.253 75.0668 114.584C75.6321 114.915 76.0534 115.331 76.3308 115.832V114.232H77.8028V123H76.3308V121.368C76.0428 121.88 75.6108 122.307 75.0348 122.648C74.4694 122.979 73.8081 123.144 73.0508 123.144C72.2721 123.144 71.5681 122.952 70.9388 122.568C70.3094 122.184 69.8134 121.645 69.4508 120.952C69.0881 120.259 68.9068 119.469 68.9068 118.584ZM76.3308 118.6C76.3308 117.939 76.1974 117.363 75.9308 116.872C75.6641 116.381 75.3014 116.008 74.8428 115.752C74.3948 115.485 73.8988 115.352 73.3548 115.352C72.8108 115.352 72.3148 115.48 71.8668 115.736C71.4188 115.992 71.0614 116.365 70.7948 116.856C70.5281 117.347 70.3948 117.923 70.3948 118.584C70.3948 119.256 70.5281 119.843 70.7948 120.344C71.0614 120.835 71.4188 121.213 71.8668 121.48C72.3148 121.736 72.8108 121.864 73.3548 121.864C73.8988 121.864 74.3948 121.736 74.8428 121.48C75.3014 121.213 75.6641 120.835 75.9308 120.344C76.1974 119.843 76.3308 119.261 76.3308 118.6ZM81.7193 115.656C81.9753 115.155 82.3379 114.765 82.8073 114.488C83.2873 114.211 83.8686 114.072 84.5513 114.072V115.576H84.1673C82.5353 115.576 81.7193 116.461 81.7193 118.232V123H80.2633V114.232H81.7193V115.656ZM88.008 115.432V120.6C88.008 121.027 88.0987 121.331 88.28 121.512C88.4613 121.683 88.776 121.768 89.224 121.768H90.296V123H88.984C88.1733 123 87.5653 122.813 87.16 122.44C86.7547 122.067 86.552 121.453 86.552 120.6V115.432H85.416V114.232H86.552V112.024H88.008V114.232H90.296V115.432H88.008ZM106.463 123L103.807 118.44H102.047V123H100.591V111.848H104.191C105.034 111.848 105.743 111.992 106.319 112.28C106.906 112.568 107.343 112.957 107.631 113.448C107.919 113.939 108.063 114.499 108.063 115.128C108.063 115.896 107.839 116.573 107.391 117.16C106.954 117.747 106.293 118.136 105.407 118.328L108.207 123H106.463ZM102.047 117.272H104.191C104.981 117.272 105.573 117.08 105.967 116.696C106.362 116.301 106.559 115.779 106.559 115.128C106.559 114.467 106.362 113.955 105.967 113.592C105.583 113.229 104.991 113.048 104.191 113.048H102.047V117.272ZM111.078 112.808C110.8 112.808 110.566 112.712 110.374 112.52C110.182 112.328 110.086 112.093 110.086 111.816C110.086 111.539 110.182 111.304 110.374 111.112C110.566 110.92 110.8 110.824 111.078 110.824C111.344 110.824 111.568 110.92 111.75 111.112C111.942 111.304 112.038 111.539 112.038 111.816C112.038 112.093 111.942 112.328 111.75 112.52C111.568 112.712 111.344 112.808 111.078 112.808ZM111.782 114.232V123H110.326V114.232H111.782ZM113.719 118.584C113.719 117.688 113.901 116.904 114.263 116.232C114.626 115.549 115.122 115.021 115.751 114.648C116.391 114.275 117.106 114.088 117.895 114.088C118.578 114.088 119.213 114.248 119.799 114.568C120.386 114.877 120.834 115.288 121.143 115.8V111.16H122.615V123H121.143V121.352C120.855 121.875 120.429 122.307 119.863 122.648C119.298 122.979 118.637 123.144 117.879 123.144C117.101 123.144 116.391 122.952 115.751 122.568C115.122 122.184 114.626 121.645 114.263 120.952C113.901 120.259 113.719 119.469 113.719 118.584ZM121.143 118.6C121.143 117.939 121.01 117.363 120.743 116.872C120.477 116.381 120.114 116.008 119.655 115.752C119.207 115.485 118.711 115.352 118.167 115.352C117.623 115.352 117.127 115.48 116.679 115.736C116.231 115.992 115.874 116.365 115.607 116.856C115.341 117.347 115.207 117.923 115.207 118.584C115.207 119.256 115.341 119.843 115.607 120.344C115.874 120.835 116.231 121.213 116.679 121.48C117.127 121.736 117.623 121.864 118.167 121.864C118.711 121.864 119.207 121.736 119.655 121.48C120.114 121.213 120.477 120.835 120.743 120.344C121.01 119.843 121.143 119.261 121.143 118.6ZM133.076 118.28C133.076 118.557 133.06 118.851 133.028 119.16H126.02C126.073 120.024 126.366 120.701 126.9 121.192C127.444 121.672 128.1 121.912 128.868 121.912C129.497 121.912 130.02 121.768 130.436 121.48C130.862 121.181 131.161 120.787 131.332 120.296H132.9C132.665 121.139 132.196 121.827 131.492 122.36C130.788 122.883 129.913 123.144 128.868 123.144C128.036 123.144 127.289 122.957 126.628 122.584C125.977 122.211 125.465 121.683 125.092 121C124.718 120.307 124.532 119.507 124.532 118.6C124.532 117.693 124.713 116.899 125.076 116.216C125.438 115.533 125.945 115.011 126.596 114.648C127.257 114.275 128.014 114.088 128.868 114.088C129.7 114.088 130.436 114.269 131.076 114.632C131.716 114.995 132.206 115.496 132.548 116.136C132.9 116.765 133.076 117.48 133.076 118.28ZM131.572 117.976C131.572 117.421 131.449 116.947 131.204 116.552C130.958 116.147 130.622 115.843 130.196 115.64C129.78 115.427 129.316 115.32 128.804 115.32C128.068 115.32 127.438 115.555 126.916 116.024C126.404 116.493 126.11 117.144 126.036 117.976H131.572ZM150.943 114.232L148.207 123H146.703L144.591 116.04L142.479 123H140.975L138.223 114.232H139.711L141.727 121.592L143.903 114.232H145.391L147.519 121.608L149.503 114.232H150.943ZM153.14 112.808C152.863 112.808 152.628 112.712 152.436 112.52C152.244 112.328 152.148 112.093 152.148 111.816C152.148 111.539 152.244 111.304 152.436 111.112C152.628 110.92 152.863 110.824 153.14 110.824C153.407 110.824 153.631 110.92 153.812 111.112C154.004 111.304 154.1 111.539 154.1 111.816C154.1 112.093 154.004 112.328 153.812 112.52C153.631 112.712 153.407 112.808 153.14 112.808ZM153.844 114.232V123H152.388V114.232H153.844ZM158.102 115.432V120.6C158.102 121.027 158.192 121.331 158.374 121.512C158.555 121.683 158.87 121.768 159.318 121.768H160.39V123H159.078C158.267 123 157.659 122.813 157.254 122.44C156.848 122.067 156.646 121.453 156.646 120.6V115.432H155.51V114.232H156.646V112.024H158.102V114.232H160.39V115.432H158.102ZM166.506 114.072C167.167 114.072 167.765 114.216 168.298 114.504C168.831 114.781 169.247 115.203 169.546 115.768C169.855 116.333 170.01 117.021 170.01 117.832V123H168.57V118.04C168.57 117.165 168.351 116.499 167.914 116.04C167.477 115.571 166.879 115.336 166.122 115.336C165.354 115.336 164.741 115.576 164.282 116.056C163.834 116.536 163.61 117.235 163.61 118.152V123H162.154V111.16H163.61V115.48C163.898 115.032 164.293 114.685 164.794 114.44C165.306 114.195 165.877 114.072 166.506 114.072ZM185.87 111.848L181.662 123H179.982L175.774 111.848H177.326L180.83 121.464L184.334 111.848H185.87ZM192.522 123.112C191.488 123.112 190.544 122.872 189.69 122.392C188.837 121.901 188.16 121.224 187.658 120.36C187.168 119.485 186.922 118.504 186.922 117.416C186.922 116.328 187.168 115.352 187.658 114.488C188.16 113.613 188.837 112.936 189.69 112.456C190.544 111.965 191.488 111.72 192.522 111.72C193.568 111.72 194.517 111.965 195.37 112.456C196.224 112.936 196.896 113.608 197.386 114.472C197.877 115.336 198.122 116.317 198.122 117.416C198.122 118.515 197.877 119.496 197.386 120.36C196.896 121.224 196.224 121.901 195.37 122.392C194.517 122.872 193.568 123.112 192.522 123.112ZM192.522 121.848C193.301 121.848 194 121.667 194.618 121.304C195.248 120.941 195.738 120.424 196.09 119.752C196.453 119.08 196.634 118.301 196.634 117.416C196.634 116.52 196.453 115.741 196.09 115.08C195.738 114.408 195.253 113.891 194.634 113.528C194.016 113.165 193.312 112.984 192.522 112.984C191.733 112.984 191.029 113.165 190.41 113.528C189.792 113.891 189.301 114.408 188.938 115.08C188.586 115.741 188.41 116.52 188.41 117.416C188.41 118.301 188.586 119.08 188.938 119.752C189.301 120.424 189.792 120.941 190.41 121.304C191.04 121.667 191.744 121.848 192.522 121.848ZM207.852 111.848L204.221 118.792V123H202.765V118.792L199.117 111.848H200.733L203.485 117.496L206.237 111.848H207.852ZM211.276 111.848L211.1 119.848H209.884L209.708 111.848H211.276ZM210.556 123.096C210.279 123.096 210.044 123 209.852 122.808C209.66 122.616 209.564 122.381 209.564 122.104C209.564 121.827 209.66 121.592 209.852 121.4C210.044 121.208 210.279 121.112 210.556 121.112C210.823 121.112 211.047 121.208 211.228 121.4C211.42 121.592 211.516 121.827 211.516 122.104C211.516 122.381 211.42 122.616 211.228 122.808C211.047 123 210.823 123.096 210.556 123.096Z" fill="white"/>
<defs>
<clipPath id="clip0_157_1662">
<rect width="248" height="95" fill="white" transform="translate(9 15)"/>
</clipPath>
</defs>
</svg>
