<svg width="230" height="91" viewBox="0 0 230 91" fill="none" xmlns="http://www.w3.org/2000/svg">
<g clip-path="url(#clip0_157_1452)">
<mask id="mask0_157_1452" style="mask-type:luminance" maskUnits="userSpaceOnUse" x="2" y="0" width="226" height="90">
<path d="M2.08984 -1.90735e-06H227.91V89.3477H2.08984V-1.90735e-06Z" fill="white"/>
</mask>
<g mask="url(#mask0_157_1452)">
<path d="M2.08984 -1.90735e-06H227.91V89.3477H2.08984V-1.90735e-06Z" fill="white"/>
<path d="M2.08984 -1.90735e-06H227.91V89.3477H2.08984V-1.90735e-06Z" fill="#191919"/>
</g>
<path d="M52.0853 75.6588L29.0254 15.6768H41.7782L59.148 63.0726L76.9421 15.6768H89.1209L65.7365 75.6588H52.0853Z" fill="white"/>
<path d="M146.119 45.6678C146.119 49.9532 145.332 54.0016 143.773 57.8064C142.207 61.5981 140.079 64.8828 137.384 67.6542C134.701 70.4321 131.525 72.6176 127.85 74.2106C124.169 75.8036 120.22 76.6067 115.996 76.6067C111.834 76.6067 107.91 75.8036 104.216 74.2106C100.535 72.6176 97.3596 70.4321 94.6831 67.6542C92.0002 64.8828 89.8727 61.5981 88.2942 57.8064C86.7281 54.0016 85.9482 49.9532 85.9482 45.6678C85.9482 41.389 86.7281 37.3472 88.2942 33.5555C89.8727 29.7507 92.0002 26.4659 94.6831 23.7077C97.3596 20.9364 100.535 18.7509 104.216 17.1513C107.91 15.5385 111.834 14.7288 115.996 14.7288C120.22 14.7288 124.169 15.5385 127.85 17.1513C131.525 18.7509 134.701 20.9364 137.384 23.7077C140.079 26.4659 142.207 29.7507 143.773 33.5555C145.332 37.3472 146.119 41.389 146.119 45.6678ZM134.04 45.6678C134.04 42.8767 133.572 40.2963 132.642 37.9265C131.725 35.5567 130.471 33.5029 128.874 31.765C127.276 30.014 125.361 28.6316 123.134 27.631C120.919 26.6305 118.542 26.1302 115.996 26.1302C113.45 26.1302 111.08 26.6305 108.883 27.631C106.7 28.6316 104.815 30.014 103.218 31.765C101.621 33.5029 100.354 35.5567 99.4248 37.9265C98.5076 40.2963 98.0522 42.8767 98.0522 45.6678C98.0522 48.4062 98.5076 50.9801 99.4248 53.3828C100.354 55.7921 101.621 57.859 103.218 59.5969C104.815 61.3347 106.7 62.704 108.883 63.7045C111.08 64.7051 113.45 65.2054 115.996 65.2054C118.542 65.2054 120.919 64.7051 123.134 63.7045C125.361 62.704 127.276 61.3347 128.874 59.5969C130.471 57.859 131.725 55.7921 132.642 53.3828C133.572 50.9801 134.04 48.4062 134.04 45.6678Z" fill="white"/>
<path d="M166.019 75.6588V52.6982L142.784 15.6768H156.361L172.283 41.7181L188.28 15.6768H201.108L177.798 52.7772V75.6588H166.019Z" fill="white"/>
<path d="M99.9577 46.3031C99.5834 46.5796 99.2839 46.7639 99.0156 47.0009C98.1047 47.8106 97.0877 47.9817 95.9272 47.7184C94.1428 47.3169 92.3335 46.968 90.4992 47.093C89.451 47.1589 88.4091 47.4353 87.3671 47.6197C87.2174 47.6526 87.0739 47.7118 86.9179 47.7513C86.6559 47.8171 86.3314 47.9422 86.1879 47.6262C86.1006 47.4288 86.2066 47.1325 86.2316 46.889C84.7841 48.1397 83.4676 49.5945 82.382 51.2928C82.4631 51.0295 82.5505 50.7662 82.6628 50.3976C82.1262 50.8913 81.5897 50.9966 80.9782 50.8518C81.0718 51.5232 81.1592 52.1486 81.2465 52.774C82.1886 53.0044 82.382 53.2677 82.4382 54.4065C82.7501 54.446 83.0621 54.4855 83.3242 54.5184C83.1994 53.9523 83.0371 53.3796 82.9498 52.7937C82.8188 51.9445 83.1869 51.3126 83.8358 50.8452C84.703 50.2199 85.7075 49.9631 86.7183 49.8249C89.9377 49.3773 93.1321 49.5023 96.2704 50.3976C97.1064 50.6346 97.9051 51.0822 98.6725 51.5167C99.0468 51.7207 99.365 52.0959 99.6271 52.4514C100.357 53.4454 100.214 54.729 99.2964 55.5256C99.0468 55.7428 98.9844 55.9469 99.1092 56.2233C99.3837 56.8289 99.6583 57.428 99.964 58.0138C100.014 58.1126 100.22 58.1652 100.357 58.1587C101.624 58.0994 102.89 58.0204 104.157 57.9546C105.305 57.8954 106.453 57.6979 107.601 58.0007C108.175 58.1587 108.718 58.3759 109.023 59.0144C111.12 55.7757 112.399 52.0696 114.663 48.9099C114.27 48.8572 113.871 48.7914 113.472 48.7519C112.299 48.6268 111.126 48.5215 109.953 48.4096C109.89 48.403 109.816 48.4162 109.759 48.3833C109.678 48.3306 109.616 48.2516 109.541 48.1858C109.616 48.1199 109.678 48.008 109.759 47.9949C110.202 47.9027 110.652 47.7711 111.095 47.7711C113.428 47.7579 115.762 47.6723 118.082 47.8237C121.133 48.0212 124.166 48.403 127.204 48.7453C128.427 48.8901 129.631 49.1469 130.848 49.3509C130.985 49.3707 131.122 49.3904 131.328 49.4168C131.328 48.2516 131.347 47.1194 131.322 45.9937C131.31 45.4605 131.228 44.9339 131.135 44.4073C131.11 44.2756 130.923 44.0913 130.792 44.0716C127.404 43.591 124.022 43.0841 120.628 42.6694C117.484 42.2876 114.327 42.1099 111.163 42.1955C108.736 42.2613 106.328 42.4719 104.013 43.3343C103.352 43.5844 102.734 43.9465 102.092 44.2559C102.104 44.3019 102.116 44.3414 102.129 44.3809C102.198 44.4073 102.266 44.4336 102.341 44.4468C103.233 44.5916 103.907 45.1116 104.344 45.9147C105.186 47.4748 105.174 49.0613 104.257 50.5753C103.283 52.1881 101.399 52.1947 100.357 50.6148C99.6208 49.5023 99.4711 48.2845 99.783 46.9811C99.8267 46.7968 99.8766 46.6191 99.9577 46.3031ZM102.491 53.6495C103.377 53.6561 104.225 54.525 104.219 55.4137C104.213 56.1773 103.564 56.8355 102.828 56.8289C102.017 56.8224 101.218 56.0719 101.212 55.3083C101.212 54.4921 101.861 53.6495 102.491 53.6495Z" fill="#7E60BF" stroke="white" stroke-width="0.0255535" stroke-miterlimit="10"/>
<mask id="mask1_157_1452" style="mask-type:luminance" maskUnits="userSpaceOnUse" x="121" y="43" width="31" height="16">
<path d="M121.389 43.8148H151.362V58.9815H121.389V43.8148Z" fill="white"/>
</mask>
<g mask="url(#mask1_157_1452)">
<path d="M140.461 45.8291C141.035 46.2965 141.272 46.935 141.26 47.6657C141.222 49.3707 141.179 51.0756 141.116 52.7805C141.091 53.452 141.004 54.1168 140.935 54.7817C140.842 55.5848 140.418 56.0785 139.65 56.2036C138.103 56.4537 136.556 56.6973 135.008 56.9277C134.366 57.0264 133.723 57.0791 133.074 57.1317C132.781 57.1581 132.481 57.1449 132.188 57.1186C131.683 57.0725 131.327 56.7697 131.184 56.276C131.065 55.8547 130.972 55.3939 130.99 54.9528C131.034 53.6889 131.14 52.4185 131.221 51.1546C131.234 51.0229 131.221 50.8847 131.221 50.7135C128.438 50.2001 125.65 49.9894 122.792 50.0092C124.021 52.82 124.551 55.7559 124.682 58.8037C124.776 58.8037 124.851 58.8169 124.92 58.8103C127.49 58.5009 130.061 58.185 132.637 57.8756C135.208 57.5596 137.778 57.2502 140.349 56.9342C140.786 56.8816 141.229 56.8552 141.659 56.7631C141.79 56.7302 141.959 56.5524 141.996 56.4076C142.408 55.0121 142.788 53.61 143.182 52.2144C143.275 51.8853 143.356 51.5561 143.462 51.2336C143.955 49.7327 144.891 49.16 146.382 49.4299C147.586 49.6471 148.217 50.2001 148.379 51.4771C148.578 53.0833 148.647 54.7093 148.766 56.3286C148.784 56.5195 148.772 56.7104 148.772 56.9013C149.583 56.8289 149.995 56.4471 150.107 55.6704C150.363 53.9588 150.6 52.2407 150.856 50.5292C150.993 49.6076 150.793 48.8243 150.188 48.1134C148.585 46.2175 146.588 45.1511 144.211 44.8944C143.381 44.8088 142.533 44.8746 141.697 44.9075C141.141 44.9339 140.723 45.2433 140.461 45.8291Z" fill="#7E60BF"/>
</g>
<mask id="mask2_157_1452" style="mask-type:luminance" maskUnits="userSpaceOnUse" x="121" y="43" width="31" height="18">
<path d="M121.389 43.8148H151.362V60.6667H121.389V43.8148Z" fill="white"/>
</mask>
<g mask="url(#mask2_157_1452)">
<path d="M140.462 45.8292C141.036 46.2965 141.273 46.9351 141.26 47.6657C141.223 49.3707 141.179 51.0756 141.117 52.7805C141.092 53.452 141.004 54.1169 140.936 54.7817C140.842 55.5848 140.418 56.0785 139.651 56.2036C138.103 56.4537 136.556 56.6973 135.009 56.9277C134.366 57.0264 133.723 57.0791 133.074 57.1318C132.781 57.1581 132.482 57.1449 132.189 57.1186C131.683 57.0725 131.328 56.7697 131.184 56.276C131.065 55.8547 130.972 55.3939 130.991 54.9529C131.034 53.689 131.14 52.4185 131.221 51.1546C131.234 51.023 131.221 50.8847 131.221 50.7136C128.439 50.2001 125.65 49.9895 122.792 50.0092C124.021 52.82 124.552 55.756 124.683 58.8038C124.776 58.8038 124.851 58.8169 124.92 58.8104C127.49 58.501 130.061 58.185 132.638 57.8756C135.208 57.5596 137.779 57.2502 140.349 56.9343C140.786 56.8816 141.229 56.8553 141.66 56.7631C141.791 56.7302 141.959 56.5525 141.996 56.4077C142.408 55.0121 142.789 53.61 143.182 52.2144C143.276 51.8853 143.357 51.5562 143.463 51.2336C143.956 49.7327 144.891 49.16 146.383 49.4299C147.587 49.6472 148.217 50.2001 148.379 51.4772C148.579 53.0834 148.647 54.7093 148.766 56.3287C148.785 56.5196 148.772 56.7105 148.772 56.9014C149.583 56.8289 149.995 56.4471 150.107 55.6704C150.363 53.9589 150.6 52.2408 150.856 50.5292C150.993 49.6077 150.794 48.8243 150.188 48.1134C148.585 46.2175 146.588 45.1511 144.211 44.8944C143.382 44.8088 142.533 44.8747 141.697 44.9076C141.142 44.9339 140.724 45.2433 140.462 45.8292Z" stroke="white" stroke-width="0.0255535" stroke-miterlimit="10"/>
</g>
<path d="M140.349 54.4526C137.579 52.8464 134.765 51.3587 131.571 50.786C131.546 51.2073 131.521 51.6022 131.496 51.9906C131.434 52.7806 131.359 53.5705 131.303 54.3538C131.284 54.6171 131.284 54.8739 131.29 55.1372C131.315 56.4932 131.702 56.9145 132.968 56.7631C135.177 56.4932 137.379 56.1773 139.582 55.8547C140.262 55.756 140.543 55.4992 140.605 54.7685C140.749 53.1163 140.83 51.4508 140.917 49.7854C140.942 49.1929 140.917 48.5939 140.905 47.9883C140.823 48.3043 140.761 48.6334 140.349 48.5742C140.062 48.5347 140 48.2582 140.125 47.5407C139.688 47.5078 139.257 47.488 138.827 47.4288C138.621 47.4024 138.247 47.2774 138.247 47.2115C138.259 46.8561 138.584 46.9021 138.814 46.8758C139.095 46.8429 139.382 46.8758 139.663 46.8495C139.994 46.8297 140.318 46.7771 140.643 46.7376C140.661 46.6849 140.68 46.6388 140.699 46.5862C140.524 46.4084 140.374 46.1912 140.175 46.053C139.488 45.5658 138.683 45.4474 137.891 45.3091C135.882 44.9405 133.861 44.5916 131.845 44.2427C131.733 44.223 131.621 44.2295 131.477 44.2164C131.521 44.664 131.596 45.0853 131.602 45.5132C131.627 46.6981 131.633 47.8896 131.621 49.0745C131.614 49.3773 131.639 49.5221 131.983 49.5879C134.597 50.0619 137.024 51.0032 139.077 52.8464C139.451 53.1821 139.8 53.5507 140.143 53.9194C140.262 54.0379 140.337 54.1958 140.43 54.3407C140.405 54.3802 140.38 54.4131 140.349 54.4526Z" fill="#7E60BF" stroke="white" stroke-width="0.0255535" stroke-miterlimit="10"/>
<path d="M86.5054 47.5078C86.6988 47.4551 86.9047 47.4222 87.0919 47.3564C89.2756 46.5796 91.4967 46.6059 93.7366 46.968C94.6849 47.1194 95.627 47.3037 96.5692 47.4748C97.1931 47.5868 97.7796 47.488 98.3099 47.0996C98.8839 46.6849 99.4641 46.2702 100.038 45.8489C100.113 45.7962 100.182 45.7238 100.232 45.6514C101.267 44.0584 102.746 43.1763 104.462 42.6563C106.34 42.0901 108.268 41.8597 110.208 41.7742C110.57 41.7544 110.938 41.7676 111.3 41.6952C111.013 41.6688 110.726 41.6293 110.433 41.6162C106.533 41.4319 102.64 41.4384 98.7466 41.7873C97.6236 41.8861 96.513 42.0836 95.4024 42.2613C95.078 42.314 94.7723 42.4785 94.4666 42.6431C95.3712 42.7813 96.488 42.3798 96.8312 43.7885C100.125 42.2152 103.644 41.8861 106.895 41.7544C105.017 42.1231 102.833 42.4983 100.681 43.0051C99.4641 43.2948 98.2912 43.8017 97.1057 44.2295C96.7626 44.3546 96.5068 44.3744 96.3321 43.9794C96.3009 43.9004 96.1761 43.8148 96.095 43.8214C95.3463 43.8346 94.5976 43.828 93.8614 43.9202C93.3497 43.9794 93.3248 44.0255 93.3186 43.4857C93.3123 43.433 93.3123 43.3804 93.3061 43.2685C93.069 43.3409 92.8569 43.4067 92.6447 43.4857C90.9102 44.1308 89.1882 44.8154 87.6971 45.9871C87.3539 46.257 87.0357 46.5598 86.73 46.8692C86.5927 47.014 86.5116 47.2181 86.4056 47.3958C86.4368 47.4288 86.4742 47.4683 86.5054 47.5078ZM91.3283 46.2768C91.0849 46.1978 90.8728 46.1715 90.7043 46.0595C90.4735 45.9081 90.4298 45.6712 90.6357 45.4408C90.9414 45.0853 91.7276 44.9602 92.1206 45.1906C92.4451 45.3749 92.4825 45.7304 92.1643 45.9345C91.9085 46.0925 91.6028 46.1715 91.3283 46.2768Z" fill="#7E60BF" stroke="white" stroke-width="0.0255535" stroke-miterlimit="10"/>
<path d="M141.703 57.1252C140.998 57.2173 140.337 57.2963 139.675 57.3753C135.87 57.8361 132.064 58.2903 128.258 58.7445C127.16 58.8762 126.068 59.021 124.976 59.1395C124.77 59.1658 124.683 59.2382 124.689 59.4686C124.708 59.8768 124.695 60.2849 124.695 60.7523C125.294 60.6667 125.868 60.6009 126.436 60.5087C129.867 59.9755 133.293 59.4423 136.724 58.9025C137.991 58.6984 139.251 58.4746 140.511 58.2574C141.11 58.1521 141.447 57.7308 141.703 57.1252Z" fill="#7E60BF" stroke="white" stroke-width="0.0255535" stroke-miterlimit="10"/>
<path d="M92.2334 43.1829C88.6521 43.3211 85.0958 43.5186 81.6643 44.8417C83.249 45.816 83.5797 47.3037 83.274 49.1403C85.6948 46.1188 88.6022 44.0518 92.2334 43.1829Z" fill="#7E60BF" stroke="white" stroke-width="0.0255535" stroke-miterlimit="10"/>
<path d="M99.8829 60.9761C100.008 61.0222 100.126 61.088 100.251 61.1012C102.51 61.2855 104.774 61.4171 107.027 61.0288C107.382 60.9695 107.732 60.851 108.056 60.6865C108.505 60.4692 108.724 60.0611 108.686 59.5213C108.649 59.021 108.374 58.7116 107.95 58.5734C107.57 58.4549 107.164 58.3232 106.777 58.3298C105.136 58.3693 103.489 58.4549 101.848 58.5273C101.374 58.5471 100.894 58.5734 100.413 58.5734C100.139 58.5668 99.9515 58.6326 99.8517 58.9354C99.7955 59.1263 99.6645 59.2909 99.5335 59.5345C99.6957 59.5476 99.8142 59.5674 99.9328 59.5608C102.166 59.4884 104.406 59.4028 106.64 59.3238C106.852 59.3172 107.077 59.258 107.258 59.3304C107.463 59.4094 107.75 59.5871 107.782 59.7583C107.807 59.936 107.601 60.2059 107.432 60.3507C107.283 60.4824 107.045 60.535 106.846 60.5416C104.806 60.6601 102.765 60.7523 100.725 60.851C100.457 60.8642 100.182 60.8576 99.9141 60.8576C99.9016 60.8971 99.8953 60.9366 99.8829 60.9761Z" fill="#7E60BF" stroke="white" stroke-width="0.0255535" stroke-miterlimit="10"/>
<path d="M83.5546 55.0648C83.4048 55.8547 83.5733 56.5854 83.9227 57.2634C83.9851 57.3885 84.2222 57.4477 84.3906 57.4806C86.9424 57.948 89.513 58.2772 92.1084 58.3101C93.4249 58.3232 94.7476 58.2772 96.0703 58.2574C96.1327 58.2574 96.1951 58.2442 96.2824 58.2311C96.3261 57.8624 96.3636 57.5004 96.4072 57.1383C95.2592 57.2239 94.1549 57.3292 93.0506 57.3819C90.7171 57.4806 88.3837 57.4609 86.1189 56.7631C85.5885 56.5986 85.0707 56.3616 84.5715 56.1048C84.141 55.8876 83.748 55.5914 83.5546 55.0648Z" fill="#7E60BF" stroke="white" stroke-width="0.0255535" stroke-miterlimit="10"/>
<path d="M130.703 37.265C130.498 38.417 130.292 39.5558 130.098 40.6946C130.017 41.1356 129.93 41.5833 129.905 42.0309C129.88 42.3732 129.743 42.4522 129.462 42.3995C128.482 42.2021 127.503 42.0046 126.529 41.8005C124.708 41.4319 122.861 41.3134 120.977 41.366C121.089 41.4187 121.195 41.5174 121.314 41.524C123.853 41.6425 126.361 41.9387 128.825 42.6563C129.967 42.9854 130.08 42.8669 130.285 41.6491C130.523 40.2536 130.741 38.8514 130.99 37.4559C131.034 37.1794 130.978 37.0609 130.722 36.949C129.399 36.3631 128.014 36.1262 126.598 36.0406C122.724 35.7904 118.855 35.9221 115.037 36.6989C113.633 36.9819 112.267 37.469 110.888 37.8706C110.757 37.9101 110.607 37.9891 110.532 38.0944C109.908 39.016 109.297 39.9507 108.685 40.8789L108.754 40.9513C108.841 40.8592 108.935 40.7802 109.01 40.6749C109.522 39.9376 110.021 39.1871 110.551 38.463C110.701 38.2656 110.919 38.0878 111.144 37.9891C112.816 37.2913 114.575 36.9556 116.341 36.6791C119.473 36.1986 122.624 36.0406 125.793 36.1854C127.621 36.271 129.181 36.6001 130.703 37.265Z" fill="#7E60BF" stroke="white" stroke-width="0.0255535" stroke-miterlimit="10"/>
<path d="M85.2146 55.5716C84.8527 55.4466 84.5408 55.3478 84.2226 55.2425L84.1789 55.3215C84.4035 55.4795 84.6157 55.6572 84.859 55.7823C85.9633 56.3484 87.1488 56.6315 88.3654 56.7697C90.8236 57.0593 93.2756 56.9935 95.7276 56.6973C96.495 56.6051 96.495 56.6051 96.6572 55.7625C96.0832 55.835 95.5217 55.9074 94.9103 55.9864C94.8853 55.3544 94.8604 54.7488 94.8354 54.1366C94.8104 54.13 94.7855 54.13 94.7605 54.1234C94.7418 54.209 94.7106 54.2946 94.7044 54.3802C94.6794 54.8278 94.6545 55.282 94.6545 55.7296C94.6545 55.9798 94.5546 56.0588 94.3363 56.0917C91.5099 56.5196 88.6961 56.5986 85.9009 55.7823C85.539 55.677 85.3831 55.5387 85.4267 55.1306C85.4642 54.7751 85.433 54.4131 85.433 54.0576L85.3269 54.051C85.2895 54.5381 85.2583 55.0319 85.2146 55.5716Z" fill="#7E60BF" stroke="white" stroke-width="0.0255535" stroke-miterlimit="10"/>
<path d="M99.1276 59.9228C99.0527 59.4818 99.1463 59.0803 99.4146 58.738C99.633 58.4615 99.633 58.2047 99.452 57.9217C99.3585 57.7769 99.2898 57.6057 99.2087 57.4543C98.8406 56.796 98.591 56.0983 98.6347 55.3215C98.6534 55.0384 98.5411 54.9463 98.2791 54.9397C97.5304 54.9265 97.3557 54.9989 97.1248 55.7428C96.6881 57.1713 96.4822 58.6458 96.7193 60.1401C96.7879 60.5877 97.0063 61.0551 97.2808 61.4106C98.0108 62.3519 99.034 62.3256 99.8389 61.404C99.2586 61.088 99.2711 60.4561 99.1214 59.9097C99.1151 60.0743 99.1089 60.2388 99.0964 60.3968C99.0714 60.8115 98.9092 61.1407 98.5224 61.2855C98.1481 61.4237 97.8423 61.2657 97.5741 60.9893C97.2683 60.6733 97.181 60.252 97.1997 59.8241C97.2309 59.0605 97.2683 58.2969 97.3619 57.5465C97.4368 56.9409 97.5803 56.3418 97.73 55.7494C97.8111 55.4268 97.9858 55.1503 98.3103 55.2096C98.4538 56.0851 98.5848 56.9277 98.7345 57.7703C98.8593 58.4878 98.9966 59.2053 99.1276 59.9228Z" fill="#7E60BF" stroke="white" stroke-width="0.0255535" stroke-miterlimit="10"/>
<path d="M89.7188 53.4191C89.7063 52.7279 89.5253 52.0959 89.0137 51.6286C88.552 51.2073 88.0155 51.2402 87.5974 51.7076C86.8238 52.5633 87.0734 54.367 88.0467 54.9594C88.5084 55.2359 88.9451 55.1701 89.307 54.7488C89.6252 54.3736 89.7312 53.9194 89.7188 53.4191Z" fill="#7E60BF" stroke="white" stroke-width="0.0255535" stroke-miterlimit="10"/>
<path d="M84.1908 57.8624C84.0785 58.0402 83.9787 58.2113 83.8601 58.422C87.9405 59.1395 92.0272 59.4028 96.1575 59.5015C96.1762 59.2317 96.1887 59.0078 96.2012 58.7379C92.1395 58.9091 88.1464 58.58 84.1908 57.8624Z" fill="#7E60BF" stroke="white" stroke-width="0.0255535" stroke-miterlimit="10"/>
<path d="M83.9473 60.1927C83.6228 60.0348 83.3857 59.857 82.9864 59.9689C82.3563 60.1401 81.6949 59.541 81.6388 58.8169C81.5577 57.7505 81.6575 56.6907 82.0069 55.6704C82.1816 55.1701 82.4249 55.0253 82.9303 55.0977C82.7057 56.3682 82.9365 57.5991 83.1986 58.7709C83.3296 58.5076 83.4856 58.2245 83.6166 57.9217C83.654 57.8427 83.6603 57.711 83.6228 57.632C83.261 56.875 83.0488 56.0785 83.105 55.2293C83.1175 54.9989 83.0239 54.9134 82.818 54.887C82.1504 54.8146 81.8447 54.9858 81.6263 55.6506C81.3393 56.513 81.096 57.3885 81.1584 58.3232C81.1958 58.8893 81.3705 59.3896 81.7136 59.8241C82.2752 60.535 83.1175 60.6864 83.9473 60.1927Z" fill="#7E60BF" stroke="white" stroke-width="0.0255535" stroke-miterlimit="10"/>
<path d="M121.046 42.1362C124.209 42.5575 127.373 42.9788 130.536 43.4001C131.091 41.9124 131.709 37.6402 131.391 37.1926C131.222 38.1273 131.06 39.016 130.898 39.9112C130.754 40.7275 130.617 41.5438 130.449 42.36C130.324 42.9722 130.049 43.1895 129.444 43.1039C128.752 43.0051 128.078 42.8077 127.385 42.7155C125.407 42.4588 123.43 42.235 121.445 42.0046C121.308 41.9914 121.165 42.0309 121.021 42.0506C121.027 42.077 121.034 42.1099 121.046 42.1362Z" fill="#7E60BF" stroke="white" stroke-width="0.0255535" stroke-miterlimit="10"/>
<path d="M131.278 49.8578C124.921 48.5873 118.513 47.8764 112.037 48.0212C118.488 48.2253 124.902 48.8441 131.278 49.8578Z" fill="#7E60BF" stroke="white" stroke-width="0.0255535" stroke-miterlimit="10"/>
<path d="M96.2197 60.93C96.2696 60.5745 96.1449 60.4824 95.8579 60.4692C93.1064 60.3112 90.3549 60.1532 87.6097 59.9623C86.4991 59.8833 85.401 59.7122 84.2967 59.5871C84.2094 59.574 84.1158 59.5805 84.0284 59.5937C88.0527 60.3705 92.1081 60.8708 96.2197 60.93Z" fill="#7E60BF" stroke="white" stroke-width="0.0255535" stroke-miterlimit="10"/>
<path d="M99.6143 53.373C99.4832 53.3138 99.3522 53.215 99.215 53.2018C98.0545 53.1228 96.894 53.0636 95.7335 52.9912C95.4465 52.978 95.172 52.9451 94.8538 52.9122V51.2138C94.8288 51.2138 94.8101 51.2138 94.7914 51.2138C94.754 51.7602 94.7165 52.3 94.6728 52.8793H91.5034C91.4971 52.9583 91.4784 53.0636 91.4659 53.2018C94.1862 53.3203 96.869 53.4322 99.5456 53.5507C99.5706 53.4915 99.5893 53.4322 99.6143 53.373Z" fill="#7E60BF" stroke="white" stroke-width="0.0255535" stroke-miterlimit="10"/>
<path d="M103.962 48.087C104.081 47.7382 104.212 47.5209 104.518 47.7645C104.649 46.7968 103.875 45.4474 102.927 44.98C102.166 44.5982 101.392 44.7364 100.88 45.3486C102.571 44.98 103.501 45.7831 103.962 48.087Z" fill="#7E60BF" stroke="white" stroke-width="0.0255535" stroke-miterlimit="10"/>
<path d="M90.0619 53.1097C90.0931 52.899 90.1243 52.7345 90.1679 52.4777C90.3364 52.6357 90.4549 52.7345 90.5672 52.8398C90.5797 51.7339 89.7562 50.7201 88.7142 50.5556C88.0466 50.4503 87.5787 50.7136 87.379 51.3521C87.7908 51.0098 88.2026 50.8255 88.6893 51.0295C89.2383 51.2534 89.6002 51.6812 89.8061 52.2605C89.8997 52.5238 89.9683 52.8003 90.0619 53.1097Z" fill="#7E60BF" stroke="white" stroke-width="0.0255535" stroke-miterlimit="10"/>
<path d="M82.5942 47.9488C82.6379 47.8369 82.6815 47.7316 82.7314 47.5868C82.8437 47.6394 82.9373 47.6855 83.0684 47.7513C82.9685 46.7639 82.6503 45.9345 81.8767 45.3684C81.4399 45.0458 81.0968 45.0787 80.71 45.4408C82.0701 45.6712 82.3821 46.7573 82.5942 47.9488Z" fill="#7E60BF" stroke="white" stroke-width="0.0255535" stroke-miterlimit="10"/>
<path d="M131.614 49.9434C133.736 50.4437 135.782 51.1349 137.691 52.2276C135.87 50.8781 133.798 50.233 131.614 49.9434Z" fill="#7E60BF" stroke="white" stroke-width="0.0255535" stroke-miterlimit="10"/>
<path d="M86.7988 53.0504C86.3496 52.978 85.9066 52.899 85.4262 52.82V51.7734C85.4075 51.7734 85.3825 51.7734 85.3576 51.7668C85.3326 51.9577 85.2765 52.1486 85.2952 52.3329C85.3326 52.7674 85.1455 52.8859 84.7711 52.8332C84.4654 52.7937 84.1534 52.7937 83.8352 52.8266C84.8148 52.9649 85.7881 53.1097 86.7614 53.2545C86.7739 53.1887 86.7863 53.1163 86.7988 53.0504Z" fill="#7E60BF" stroke="white" stroke-width="0.0255535" stroke-miterlimit="10"/>
<mask id="mask3_157_1452" style="mask-type:luminance" maskUnits="userSpaceOnUse" x="78" y="55" width="4" height="4">
<path d="M78.626 55.6111H81.4586V58.9815H78.626V55.6111Z" fill="white"/>
</mask>
<g mask="url(#mask3_157_1452)">
<path d="M79.7798 57.5333C80.0856 57.6189 80.3913 57.711 80.7469 57.8098C80.7095 57.4609 81.0464 57.1449 80.6533 56.8619C80.7719 56.7631 80.8842 56.6775 80.9902 56.592L80.9341 56.513C80.541 56.8092 80.1479 57.112 79.7549 57.4148C79.7674 57.4543 79.7736 57.4938 79.7798 57.5333Z" fill="#7E60BF" stroke="white" stroke-width="0.0255535" stroke-miterlimit="10"/>
</g>
<path d="M119.698 41.2541C118.581 41.2936 117.458 41.3331 116.298 41.3792C116.66 41.5833 119.286 41.5372 119.698 41.2541Z" fill="#7E60BF" stroke="white" stroke-width="0.0255535" stroke-miterlimit="10"/>
<path d="M80.9275 54.1103C81.3018 54.0576 81.6387 54.0115 82.0068 53.9589C81.9132 53.6034 81.776 53.373 81.4703 53.4059C81.1396 53.4388 80.9711 53.6824 80.9275 54.1103Z" fill="#7E60BF" stroke="white" stroke-width="0.0255535" stroke-miterlimit="10"/>
<path d="M102.135 54.1103C102.977 54.2156 103.296 54.9199 103.789 55.4137C103.951 54.6501 102.99 53.847 102.135 54.1103Z" fill="#7E60BF" stroke="white" stroke-width="0.0255535" stroke-miterlimit="10"/>
<path d="M101.667 55.0911C101.941 55.1438 102.172 55.1898 102.428 55.2425C102.44 55.124 102.453 55.0187 102.471 54.8936C102.584 54.9331 102.696 54.9792 102.846 55.0384C102.79 54.6895 102.59 54.5711 102.34 54.5513C101.991 54.5316 101.791 54.7554 101.667 55.0911Z" fill="#7E60BF" stroke="white" stroke-width="0.0255535" stroke-miterlimit="10"/>
<path d="M92.0215 45.5263C91.5847 45.3354 91.2354 45.3947 90.886 45.6185C91.1917 45.9345 91.591 45.9147 92.0215 45.5263Z" fill="#7E60BF" stroke="white" stroke-width="0.0255535" stroke-miterlimit="10"/>
<mask id="mask4_157_1452" style="mask-type:luminance" maskUnits="userSpaceOnUse" x="78" y="35" width="74" height="34">
<path d="M78.626 35.2309H151.362V68.7371H78.626V35.2309Z" fill="white"/>
</mask>
<g mask="url(#mask4_157_1452)">
<path d="M146.932 61.3447C147.625 60.14 147.924 58.8367 148.062 57.4674C148.923 57.7834 149.584 57.3753 150.183 56.8487C150.37 56.6907 150.514 56.401 150.551 56.1509C150.857 54.1827 151.138 52.2144 151.412 50.2462C151.531 49.3838 151.287 48.6334 150.763 47.962C149.247 46.0003 147.275 44.8681 144.942 44.4007C144.324 44.269 143.682 44.1505 143.058 44.1769C141.885 44.2229 140.756 44.0057 139.664 43.6305C137.405 42.8669 135.097 42.7352 132.757 42.8866C132.302 42.913 131.846 42.8998 131.397 42.8998C131.359 42.8998 131.322 42.8801 131.266 42.8669C131.441 41.9321 131.628 40.9974 131.79 40.0561C131.915 39.3451 132.021 38.6342 132.108 37.9167C132.208 37.1267 131.933 36.7449 131.241 36.4421C129.163 35.5403 126.967 35.3691 124.765 35.3165C120.921 35.2309 117.103 35.5008 113.347 36.4421C112.424 36.6725 111.519 37.0214 110.62 37.3637C110.371 37.4559 110.128 37.6797 109.972 37.9101C109.317 38.8251 108.705 39.7796 108.056 40.7012C107.963 40.8328 107.75 40.9447 107.595 40.9447C104.381 40.8855 101.168 40.9645 97.9675 41.287C97.094 41.3792 96.2143 41.4911 95.3595 41.6952C94.8292 41.8137 94.3426 42.1296 93.8309 42.3534C93.6874 42.4127 93.5439 42.4785 93.3942 42.4917C91.2167 42.6628 89.0268 42.7879 86.8493 42.9986C85.0025 43.1829 83.1994 43.6239 81.4649 44.3283C79.2189 45.2367 78.4639 48.2911 79.9987 50.2527C80.0986 50.3844 80.1859 50.549 80.2234 50.7135C80.3793 51.3784 80.5353 52.0367 80.6414 52.7081C80.6788 52.9188 80.6039 53.1887 80.4916 53.373C80.0861 54.0378 80.161 54.6566 80.7599 55.1306C81.0656 55.3807 81.0469 55.7954 80.7225 56.0324C80.1859 56.4208 79.6494 56.8026 79.1315 57.2107C78.7072 57.5464 78.6885 57.8295 79.0067 58.2903C79.3998 58.8564 79.9738 59.1329 80.5603 59.3962C80.8161 59.5015 81.0844 59.6661 81.2403 59.8899C81.9329 60.8839 82.9623 61.2789 84.4473 60.3902C84.5159 60.3507 84.6157 60.3178 84.6906 60.3244C85.1273 60.3968 85.5641 60.4626 85.9883 60.5613C86.0882 60.5877 86.2005 60.7127 86.2379 60.8181C86.7308 62.0885 87.4421 63.1747 88.6213 64.0041C88.0161 64.116 87.492 64.2016 86.9741 64.3201C85.9759 64.5505 84.9838 64.7875 83.9918 65.0508C83.7235 65.1232 83.4615 65.268 83.2244 65.426C82.9187 65.6301 82.9062 65.9329 83.2244 66.104C83.6674 66.341 84.1415 66.5451 84.622 66.6899C86.5998 67.2626 88.6337 67.5193 90.6615 67.7563C96.0084 68.3751 101.374 68.691 106.746 68.7832C109.647 68.8359 112.548 68.7898 115.443 68.6318C116.841 68.5594 118.22 68.1447 119.611 67.8748C125.258 66.7689 130.904 65.6696 136.55 64.5505C139.92 63.8856 143.282 63.201 146.652 62.5098C146.988 62.4374 147.319 62.3058 147.637 62.1544C147.918 62.0096 147.912 61.8055 147.631 61.6475C147.431 61.529 147.207 61.4632 146.932 61.3447ZM99.1217 59.9096C99.2715 60.456 99.259 61.088 99.8392 61.4039C99.0344 62.3255 98.0112 62.3519 97.2812 61.4105C97.0067 61.055 96.7883 60.5877 96.7197 60.14C96.4826 58.6458 96.6885 57.1712 97.1252 55.7428C97.3561 54.9989 97.5308 54.9265 98.2795 54.9397C98.5415 54.9463 98.6538 55.0384 98.6351 55.3215C98.5914 56.0982 98.841 56.796 99.2091 57.4543C99.2902 57.6057 99.3588 57.7768 99.4524 57.9217C99.6334 58.2047 99.6334 58.4614 99.415 58.7379C99.1467 59.0802 99.0531 59.4818 99.128 59.9228L99.1217 59.9096ZM99.9578 46.3031C99.8767 46.6191 99.8268 46.7968 99.7831 46.9811C99.4711 48.2845 99.6209 49.5023 100.357 50.6148C101.399 52.1947 103.283 52.1881 104.257 50.5753C105.174 49.0613 105.186 47.4748 104.344 45.9147C103.907 45.1116 103.233 44.5916 102.341 44.4468C102.266 44.4336 102.198 44.4073 102.129 44.3809C102.117 44.3414 102.104 44.3019 102.092 44.2559C102.734 43.9465 103.352 43.5844 104.013 43.3343C106.328 42.4719 108.736 42.2613 111.163 42.1955C114.327 42.1099 117.484 42.2876 120.628 42.6694C124.022 43.0841 127.404 43.591 130.792 44.0715C130.923 44.0913 131.11 44.2756 131.135 44.4073C131.228 44.9339 131.31 45.4605 131.322 45.9937C131.347 47.1194 131.328 48.2516 131.328 49.4167C131.122 49.3904 130.985 49.3707 130.848 49.3509C129.631 49.1468 128.427 48.8901 127.204 48.7453C124.166 48.403 121.133 48.0212 118.083 47.8237C115.762 47.6723 113.428 47.7579 111.095 47.7711C110.652 47.7711 110.202 47.9027 109.759 47.9949C109.678 48.008 109.616 48.1199 109.541 48.1858C109.616 48.2516 109.678 48.3306 109.759 48.3832C109.816 48.4162 109.891 48.403 109.953 48.4096C111.126 48.5215 112.299 48.6268 113.472 48.7519C113.871 48.7914 114.27 48.8572 114.663 48.9099C112.399 52.0696 111.12 55.7757 109.023 59.0144C108.718 58.3759 108.175 58.1586 107.601 58.0007C106.453 57.6978 105.305 57.8953 104.157 57.9546C102.89 58.0204 101.624 58.0994 100.357 58.1586C100.22 58.1652 100.014 58.1126 99.964 58.0138C99.6583 57.428 99.3838 56.8289 99.1093 56.2233C98.9845 55.9468 99.0469 55.7428 99.2964 55.5255C100.214 54.729 100.357 53.4454 99.6271 52.4514C99.3651 52.0959 99.0469 51.7207 98.6725 51.5166C97.9051 51.0822 97.1065 50.6345 96.2705 50.3976C93.1322 49.5023 89.9377 49.3772 86.7183 49.8249C85.7076 49.9631 84.7031 50.2198 83.8358 50.8452C83.187 51.3126 82.8188 51.9445 82.9499 52.7937C83.0372 53.3796 83.1994 53.9523 83.3242 54.5184C83.0622 54.4855 82.7502 54.446 82.4383 54.4065C82.3821 53.2677 82.1887 53.0043 81.2466 52.7739C81.1592 52.1486 81.0719 51.5232 80.9783 50.8518C81.5897 50.9966 82.1263 50.8913 82.6629 50.3976C82.5506 50.7662 82.4632 51.0295 82.3821 51.2928C83.4677 49.5945 84.7842 48.1397 86.2317 46.889C86.2067 47.1325 86.1006 47.4287 86.188 47.6262C86.3315 47.9422 86.6559 47.8171 86.918 47.7513C87.0739 47.7118 87.2174 47.6526 87.3672 47.6196C88.4091 47.4353 89.4511 47.1589 90.4992 47.093C92.3335 46.968 94.1429 47.3168 95.9273 47.7184C97.0878 47.9817 98.1048 47.8105 99.0157 47.0009C99.284 46.7639 99.5834 46.5796 99.9578 46.3031ZM140.462 45.8291C140.724 45.2433 141.142 44.9339 141.698 44.9076C142.534 44.8746 143.382 44.8088 144.212 44.8944C146.589 45.1511 148.586 46.2175 150.189 48.1134C150.794 48.8243 150.994 49.6076 150.857 50.5292C150.601 52.2407 150.364 53.9588 150.108 55.6704C149.996 56.4471 149.584 56.8289 148.773 56.9013C148.773 56.7104 148.785 56.5195 148.767 56.3286C148.648 54.7093 148.579 53.0833 148.38 51.4771C148.218 50.2001 147.587 49.6471 146.383 49.4299C144.892 49.16 143.956 49.7327 143.463 51.2336C143.357 51.5561 143.276 51.8853 143.183 52.2144C142.79 53.61 142.409 55.0121 141.997 56.4076C141.96 56.5524 141.791 56.7302 141.66 56.7631C141.23 56.8553 140.787 56.8816 140.35 56.9342C137.78 57.2502 135.209 57.5596 132.638 57.8756C130.062 58.185 127.491 58.5009 124.921 58.8103C124.852 58.8169 124.777 58.8037 124.684 58.8037C124.553 55.7559 124.022 52.82 122.793 50.0092C125.651 49.9894 128.44 50.2001 131.222 50.7135C131.222 50.8847 131.235 51.0229 131.222 51.1546C131.141 52.4185 131.035 53.6889 130.991 54.9528C130.973 55.3939 131.066 55.8547 131.185 56.276C131.328 56.7697 131.684 57.0725 132.189 57.1186C132.482 57.1449 132.782 57.1581 133.075 57.1317C133.724 57.0791 134.367 57.0264 135.009 56.9277C136.557 56.6973 138.104 56.4537 139.651 56.2036C140.419 56.0785 140.843 55.5848 140.937 54.7817C141.005 54.1168 141.092 53.452 141.117 52.7805C141.18 51.0756 141.224 49.3707 141.261 47.6657C141.273 46.935 141.036 46.2965 140.462 45.8291ZM140.35 54.4525C140.381 54.413 140.406 54.3801 140.431 54.3406C140.338 54.1958 140.263 54.0378 140.144 53.9193C139.801 53.5507 139.452 53.1821 139.077 52.8464C137.025 51.0032 134.598 50.0618 131.983 49.5879C131.64 49.5221 131.615 49.3772 131.621 49.0744C131.634 47.8895 131.628 46.6981 131.603 45.5132C131.597 45.0853 131.522 44.664 131.478 44.2164C131.621 44.2295 131.734 44.2229 131.846 44.2427C133.861 44.5916 135.883 44.9405 137.892 45.3091C138.684 45.4473 139.489 45.5658 140.175 46.053C140.375 46.1912 140.525 46.4084 140.699 46.5862C140.681 46.6388 140.662 46.6849 140.643 46.7376C140.319 46.7771 139.994 46.8297 139.664 46.8495C139.383 46.8758 139.096 46.8429 138.815 46.8758C138.584 46.9021 138.26 46.856 138.247 47.2115C138.247 47.2773 138.622 47.4024 138.828 47.4287C139.258 47.488 139.689 47.5077 140.125 47.5407C140.001 48.2582 140.063 48.5346 140.35 48.5741C140.762 48.6334 140.824 48.3043 140.905 47.9883C140.918 48.5939 140.943 49.1929 140.918 49.7854C140.83 51.4508 140.749 53.1162 140.606 54.7685C140.543 55.4992 140.263 55.7559 139.583 55.8547C137.38 56.1772 135.178 56.4932 132.969 56.7631C131.703 56.9145 131.316 56.4932 131.291 55.1372C131.285 54.8738 131.285 54.6171 131.303 54.3538C131.359 53.5705 131.434 52.7805 131.497 51.9906C131.522 51.6022 131.547 51.2072 131.572 50.786C134.766 51.3587 137.58 52.8464 140.35 54.4525ZM129.544 42.0901C129.269 42.0441 129.014 42.0243 128.764 41.9651C126.275 41.3463 123.754 40.9711 121.19 40.9513C121.127 40.9513 121.021 40.9711 121.002 40.9382C120.772 40.4313 120.516 40.7736 120.254 40.8921C120.148 40.9447 120.004 40.9447 119.879 40.9513C118.831 40.9842 117.783 40.9842 116.735 41.0566C116.173 41.1027 115.662 41.1291 115.281 40.5893C115.219 40.4971 115.1 40.4379 115 40.372C113.684 39.4636 112.118 39.4899 111.07 40.8657C111.014 40.9382 110.901 41.0106 110.814 41.0106C110.502 41.0106 110.184 40.9776 109.778 40.9513C110.39 40.0363 110.939 39.1871 111.513 38.3709C111.625 38.1997 111.837 38.0417 112.031 37.9957C113.59 37.627 115.156 37.2716 116.735 36.949C117.334 36.8239 117.958 36.791 118.582 36.712C118.488 37.5875 118.482 37.5744 117.771 37.7455C117.583 37.7916 117.303 37.9496 117.278 38.101C117.215 38.4894 117.134 38.9304 117.465 39.2464C117.321 39.4768 117.134 39.6743 117.066 39.9112C117.028 40.0429 117.14 40.2996 117.259 40.3918C117.44 40.5366 117.59 40.3786 117.664 40.1746C117.721 40.0231 117.783 39.8652 117.814 39.7072C117.87 39.4044 118.026 39.299 118.326 39.2925C118.968 39.2727 119.617 39.2003 120.26 39.1608C120.503 39.1411 120.69 39.016 120.647 38.7593C120.578 38.3577 120.84 37.8508 120.366 37.5678C120.285 37.5217 120.16 37.5612 120.06 37.5612C119.698 37.5612 119.337 37.5612 118.981 37.5612C119.087 36.7713 119.168 36.6528 119.667 36.6133C122.082 36.4421 124.503 36.35 126.923 36.6067C128.096 36.7318 129.251 36.9556 130.349 37.469C130.08 39.0094 129.818 40.5366 129.544 42.0901ZM86.5062 47.5077C86.475 47.4682 86.4376 47.4287 86.4064 47.3958C86.5124 47.2181 86.5935 47.014 86.7308 46.8692C87.0365 46.5598 87.3547 46.257 87.6979 45.9871C89.189 44.8154 90.911 44.1308 92.6455 43.4857C92.8576 43.4067 93.0698 43.3409 93.3069 43.2684C93.3131 43.3804 93.3131 43.433 93.3193 43.4857C93.3256 44.0255 93.3505 43.9794 93.8621 43.9201C94.5984 43.828 95.3471 43.8346 96.0958 43.8214C96.1769 43.8148 96.3016 43.9004 96.3328 43.9794C96.5075 44.3743 96.7633 44.3546 97.1065 44.2295C98.2919 43.8016 99.4649 43.2948 100.682 43.0051C102.834 42.4983 105.018 42.123 106.896 41.7544C103.645 41.8861 100.126 42.2152 96.832 43.7885C96.4888 42.3798 95.372 42.7813 94.4673 42.6431C94.7731 42.4785 95.0788 42.3139 95.4032 42.2613C96.5138 42.0835 97.6243 41.8861 98.7474 41.7873C102.641 41.4384 106.534 41.4319 110.433 41.6162C110.727 41.6293 111.014 41.6688 111.301 41.6952C110.939 41.7676 110.571 41.7544 110.209 41.7742C108.268 41.8597 106.34 42.0901 104.462 42.6562C102.747 43.1763 101.268 44.0584 100.232 45.6514C100.182 45.7238 100.114 45.7962 100.039 45.8489C99.4649 46.2702 98.8847 46.6849 98.3107 47.0996C97.7803 47.488 97.1938 47.5867 96.5699 47.4748C95.6278 47.3037 94.6857 47.1194 93.7374 46.968C91.4975 46.6059 89.2764 46.5796 87.0927 47.3563C86.9055 47.4222 86.6996 47.4551 86.5062 47.5077ZM141.704 57.1251C141.448 57.7308 141.111 58.1521 140.512 58.2574C139.252 58.4746 137.992 58.6984 136.725 58.9025C133.294 59.4423 129.868 59.9755 126.437 60.5087C125.869 60.6008 125.295 60.6667 124.696 60.7522C124.696 60.2849 124.708 59.8767 124.69 59.4686C124.684 59.2382 124.771 59.1658 124.977 59.1395C126.069 59.021 127.16 58.8762 128.259 58.7445C132.064 58.2903 135.87 57.8361 139.676 57.3753C140.338 57.2963 140.999 57.2173 141.704 57.1251ZM120.666 58.7708C120.647 59.0341 120.628 59.5015 120.559 59.9557C120.285 61.7792 119.592 63.3853 118.207 64.5702C116.342 66.1633 113.921 65.8802 112.417 63.912C111.506 62.7271 111.082 61.3381 110.964 59.8372C110.808 57.7373 111.201 55.7888 112.392 54.0642C114.364 51.227 117.658 51.2994 119.511 54.2221C120.341 55.5321 120.647 57.0132 120.666 58.7708ZM92.2337 43.1829C88.6025 44.0518 85.6951 46.1188 83.2743 49.1403C83.58 47.3037 83.2493 45.816 81.6646 44.8417C85.0961 43.5186 88.6524 43.3211 92.2337 43.1829ZM99.8829 60.9761C99.8954 60.9366 99.9016 60.8971 99.9141 60.8576C100.182 60.8576 100.457 60.8641 100.725 60.851C102.765 60.7522 104.806 60.6601 106.846 60.5416C107.045 60.535 107.283 60.4823 107.432 60.3507C107.601 60.2059 107.807 59.936 107.782 59.7582C107.75 59.5871 107.463 59.4094 107.258 59.3304C107.077 59.258 106.852 59.3172 106.64 59.3238C104.406 59.4028 102.166 59.4884 99.9328 59.5608C99.8143 59.5673 99.6957 59.5476 99.5335 59.5344C99.6645 59.2909 99.7956 59.1263 99.8517 58.9354C99.9515 58.6326 100.139 58.5668 100.413 58.5734C100.894 58.5734 101.374 58.547 101.848 58.5273C103.489 58.4549 105.136 58.3693 106.777 58.3298C107.164 58.3232 107.57 58.4549 107.95 58.5734C108.374 58.7116 108.649 59.021 108.686 59.5213C108.724 60.0611 108.505 60.4692 108.056 60.6864C107.732 60.851 107.382 60.9695 107.027 61.0287C104.774 61.4171 102.51 61.2854 100.251 61.1011C100.126 61.088 100.008 61.0221 99.8829 60.9761ZM83.5551 55.0647C83.7485 55.5914 84.1415 55.8876 84.572 56.1048C85.0712 56.3615 85.589 56.5985 86.1194 56.7631C88.3842 57.4609 90.7176 57.4806 93.051 57.3819C94.1554 57.3292 95.2597 57.2239 96.4077 57.1383C96.364 57.5004 96.3266 57.8624 96.2829 58.231C96.1956 58.2442 96.1332 58.2574 96.0708 58.2574C94.7481 58.2771 93.4254 58.3232 92.1089 58.31C89.5135 58.2771 86.9429 57.948 84.3911 57.4806C84.2227 57.4477 83.9856 57.3885 83.9232 57.2634C83.5738 56.5854 83.4053 55.8547 83.5551 55.0647ZM100.738 48.3372C100.725 47.5012 100.937 46.7507 101.518 46.1451C101.911 45.7436 102.304 45.7041 102.697 46.0332C103.795 46.9416 103.882 49.1929 102.865 50.1869C102.316 50.7267 101.674 50.6675 101.231 50.0289C100.881 49.5286 100.725 48.9559 100.738 48.3372ZM130.704 37.265C129.182 36.6001 127.622 36.271 125.794 36.1854C122.625 36.0406 119.474 36.1986 116.342 36.6791C114.576 36.9556 112.817 37.2913 111.145 37.9891C110.92 38.0878 110.702 38.2656 110.552 38.463C110.022 39.1871 109.522 39.9376 109.011 40.6748C108.936 40.7802 108.842 40.8592 108.755 40.9513L108.686 40.8789C109.298 39.9507 109.909 39.016 110.533 38.0944C110.608 37.9891 110.758 37.9101 110.889 37.8706C112.268 37.469 113.634 36.9819 115.038 36.6989C118.856 35.9221 122.724 35.7904 126.599 36.0406C128.015 36.1262 129.4 36.3566 130.723 36.949C130.979 37.0609 131.035 37.1794 130.991 37.4559C130.742 38.8514 130.523 40.2535 130.286 41.6491C130.08 42.8669 129.968 42.9854 128.826 42.6562C126.362 41.9387 123.854 41.6425 121.314 41.524C121.196 41.5174 121.09 41.4187 120.977 41.366C122.862 41.3134 124.708 41.4319 126.53 41.8005C127.504 42.0046 128.483 42.202 129.463 42.3995C129.743 42.4522 129.881 42.3732 129.906 42.0309C129.931 41.5833 130.018 41.1356 130.099 40.6946C130.293 39.5558 130.498 38.417 130.704 37.265ZM139.689 58.9683C139.901 59.5805 140.088 60.14 140.294 60.7457C137.449 60.6008 134.629 60.456 131.802 60.3046C131.802 60.2783 131.796 60.2585 131.796 60.2322C134.429 59.8109 137.056 59.3896 139.689 58.9683ZM85.2147 55.5716C85.2584 55.0318 85.2895 54.5381 85.327 54.051L85.433 54.0576C85.433 54.413 85.4642 54.7751 85.4268 55.1306C85.3831 55.5387 85.5391 55.6769 85.901 55.7823C88.6961 56.5985 91.51 56.5195 94.3363 56.0917C94.5547 56.0587 94.6545 55.9797 94.6545 55.7296C94.6545 55.282 94.6795 54.8278 94.7044 54.3801C94.7107 54.2946 94.7419 54.209 94.7606 54.1234C94.7855 54.13 94.8105 54.13 94.8354 54.1366C94.8604 54.7488 94.8854 55.3544 94.9103 55.9863C95.5218 55.9073 96.0833 55.8349 96.6573 55.7625C96.4951 56.6051 96.4951 56.6051 95.7276 56.6973C93.2757 56.9935 90.8237 57.0593 88.3654 56.7697C87.1488 56.6314 85.9634 56.3484 84.859 55.7823C84.6157 55.6572 84.4036 55.4795 84.179 55.3215L84.2227 55.2425C84.5409 55.3478 84.8528 55.4465 85.2147 55.5716ZM89.7193 53.4191C89.7318 53.9193 89.6258 54.3736 89.3013 54.7488C88.9457 55.1701 88.5089 55.2359 88.0473 54.9594C87.0739 54.367 86.8244 52.5633 87.598 51.7075C88.0161 51.2402 88.5526 51.2072 89.0143 51.6285C89.5259 52.0959 89.7069 52.7279 89.7193 53.4191ZM84.1915 57.8624C88.1471 58.5799 92.1401 58.9091 96.2018 58.7379C96.1893 59.0078 96.1769 59.2316 96.1581 59.5015C92.0278 59.4028 87.9412 59.1395 83.8608 58.4219C83.9793 58.2113 84.0792 58.0401 84.1915 57.8624ZM82.1887 47.8566C82.1949 48.6136 82.0514 49.1929 81.6022 49.6471C81.3152 49.9434 80.9783 49.9039 80.7287 49.5813C80.0986 48.7585 80.2296 47.0469 80.9721 46.336C81.2591 46.0661 81.44 46.0661 81.6958 46.3821C82.0639 46.8363 82.1949 47.3827 82.1887 47.8566ZM97.5495 63.0035C97.5308 62.964 97.512 62.9246 97.4933 62.8916C97.6743 62.7731 97.8739 62.5428 98.0361 62.5691C98.8535 62.7073 99.5273 62.4572 100.145 61.8976C100.264 61.7857 100.457 61.7133 100.619 61.7133C101.836 61.7199 103.046 61.7594 104.263 61.7726C104.843 61.7792 104.843 61.766 104.999 62.444C102.516 62.6283 100.033 62.8192 97.5495 63.0035ZM144.012 59.5081C144.112 59.6595 144.206 59.8241 144.318 59.9755C144.83 60.6535 145.566 60.6798 146.115 60.0347C146.234 59.8899 146.346 59.7385 146.427 59.5673C147.294 57.6189 147.319 55.6374 146.527 53.6692C146.296 53.1031 145.915 52.5896 145.26 52.6094C144.618 52.6291 144.281 53.1623 144.037 53.7219C143.856 54.1234 143.744 54.5513 143.601 54.9594C143.75 53.9654 144.012 53.0241 144.774 52.3395C145.192 51.9708 145.747 51.9445 146.109 52.3658C146.464 52.7805 146.801 53.2677 146.976 53.7877C147.475 55.2556 147.506 56.7828 147.238 58.31C147.101 59.0934 146.876 59.8504 146.358 60.4626C145.965 60.9366 145.529 61.0616 145.042 60.8312C144.487 60.5811 144.187 60.0874 144.012 59.5081ZM83.9481 60.1927C83.1183 60.6864 82.276 60.535 81.7145 59.8241C81.3714 59.3896 81.1967 58.8893 81.1592 58.3232C81.0968 57.3885 81.3402 56.5129 81.6272 55.6506C81.8455 54.9857 82.1513 54.8146 82.8188 54.887C83.0247 54.9133 83.1183 54.9989 83.1058 55.2293C83.0497 56.0785 83.2618 56.875 83.6237 57.632C83.6611 57.711 83.6549 57.8427 83.6175 57.9217C83.4864 58.2245 83.3305 58.5075 83.1994 58.7708C82.9374 57.5991 82.7065 56.3681 82.9311 55.0977C82.4258 55.0252 82.1825 55.1701 82.0078 55.6704C81.6584 56.6907 81.5585 57.7505 81.6396 58.8169C81.6958 59.541 82.3571 60.14 82.9873 59.9689C83.3866 59.857 83.6237 60.0347 83.9481 60.1927ZM121.046 42.1362C121.034 42.1099 121.027 42.077 121.021 42.0506C121.165 42.0309 121.308 41.9914 121.445 42.0046C123.429 42.235 125.407 42.4588 127.385 42.7155C128.078 42.8077 128.751 43.0051 129.444 43.1039C130.049 43.1895 130.324 42.9722 130.449 42.36C130.617 41.5438 130.754 40.7275 130.898 39.9112C131.06 39.016 131.222 38.1273 131.391 37.1926C131.709 37.6402 131.091 41.9124 130.536 43.4001C127.373 42.9788 124.209 42.5575 121.046 42.1362ZM131.278 49.8578C124.902 48.844 118.488 48.2253 112.037 48.0212C118.513 47.8764 124.921 48.5873 131.278 49.8578ZM96.2205 60.93C92.1089 60.8707 88.0535 60.3704 84.0292 59.5937C84.1166 59.5805 84.2102 59.5739 84.2975 59.5871C85.4019 59.7122 86.4999 59.8833 87.6105 59.9623C90.3557 60.1532 93.1072 60.3112 95.8587 60.4692C96.1457 60.4823 96.2705 60.5745 96.2205 60.93ZM99.6146 53.373C99.5897 53.4322 99.571 53.4915 99.546 53.5507C96.8694 53.4322 94.1866 53.3203 91.4663 53.2018C91.4788 53.0636 91.4975 52.9583 91.5037 52.8793H94.6732C94.7169 52.3 94.7543 51.7602 94.7918 51.2138C94.8105 51.2138 94.8292 51.2138 94.8542 51.2138V52.9122C95.1724 52.9451 95.4469 52.978 95.7339 52.9912C96.8944 53.0636 98.0548 53.1228 99.2153 53.2018C99.3526 53.215 99.4836 53.3137 99.6146 53.373ZM118.563 66.4858C122.026 62.1083 122.643 57.3819 119.967 52.2802C123.074 56.4735 122.138 63.28 118.563 66.4858ZM103.963 48.087C103.502 45.7831 102.572 44.98 100.881 45.3486C101.393 44.7364 102.166 44.5982 102.928 44.98C103.876 45.4473 104.65 46.7968 104.519 47.7645C104.213 47.5209 104.082 47.7381 103.963 48.087ZM90.0625 53.1097C89.9689 52.8003 89.9003 52.5238 89.8067 52.2605C89.6008 51.6812 89.2389 51.2533 88.6899 51.0295C88.2032 50.8254 87.7914 51.0098 87.3797 51.3521C87.5793 50.7135 88.0473 50.4502 88.7148 50.5556C89.7568 50.7201 90.5803 51.7339 90.5679 52.8398C90.4556 52.7344 90.337 52.6357 90.1686 52.4777C90.1249 52.7344 90.0937 52.899 90.0625 53.1097ZM145.709 57.8492C145.547 58.2508 145.366 58.5602 145.004 58.6128C144.668 58.6655 144.48 58.3693 144.337 58.0862C143.888 57.1976 143.744 56.2562 143.969 55.2754C144.031 54.9989 144.162 54.7027 144.349 54.492C144.499 54.3209 144.792 54.1563 144.992 54.1827C145.279 54.2287 145.51 54.492 145.597 54.8673C145.004 54.5118 144.736 54.5776 144.443 55.1766C144.094 55.8744 144.062 56.6183 144.256 57.3621C144.468 58.1521 145.011 58.3495 145.709 57.8492ZM144.923 52.9648C145.329 52.7739 145.603 52.8859 145.797 53.1162C146.046 53.4125 146.296 53.7482 146.439 54.1168C146.901 55.2886 146.907 56.5129 146.714 57.7439C146.595 58.5009 146.421 59.2448 145.922 59.8438C145.66 60.1532 145.354 60.3573 144.867 60.1664C145.697 59.9886 146.071 59.4028 146.29 58.6918C146.427 58.2442 146.521 57.7703 146.57 57.2963C146.683 56.0851 146.627 54.8936 146.04 53.7943C145.816 53.3664 145.522 53.0043 144.923 52.9648ZM82.5942 47.9488C82.3821 46.7573 82.0701 45.6712 80.71 45.4408C81.0968 45.0787 81.44 45.0458 81.8767 45.3683C82.6504 45.9345 82.9686 46.7639 83.0684 47.7513C82.9374 47.6855 82.8438 47.6394 82.7315 47.5867C82.6816 47.7316 82.6379 47.8369 82.5942 47.9488ZM111.943 41.0698C112.43 40.247 114.071 40.3655 114.757 41.32C113.827 41.2344 112.898 41.1554 111.943 41.0698ZM131.615 49.9434C133.799 50.233 135.87 50.8781 137.692 52.2276C135.783 51.1348 133.737 50.4436 131.615 49.9434ZM143.389 53.5639C143.488 53.2479 143.538 52.899 143.7 52.616C144 52.0893 144.318 51.5561 144.717 51.1085C145.123 50.6609 145.616 50.6477 146.04 50.911C144.374 50.9242 144.025 52.3856 143.389 53.5639ZM86.7994 53.0504C86.7869 53.1162 86.7745 53.1887 86.762 53.2545C85.7887 53.1097 84.8154 52.9648 83.8358 52.8266C84.154 52.7937 84.466 52.7937 84.7717 52.8332C85.146 52.8859 85.3332 52.7674 85.2958 52.3329C85.2771 52.1486 85.3332 51.9577 85.3582 51.7668C85.3831 51.7734 85.4081 51.7734 85.4268 51.7734V52.82C85.9072 52.899 86.3502 52.978 86.7994 53.0504ZM79.7804 57.5333C79.7741 57.4938 79.7679 57.4543 79.7554 57.4148C80.1485 57.112 80.5416 56.8092 80.9346 56.5129L80.9908 56.5919C80.8847 56.6775 80.7724 56.7631 80.6539 56.8618C81.0469 57.1449 80.71 57.4609 80.7474 57.8098C80.3918 57.711 80.0861 57.6189 79.7804 57.5333ZM145.391 55.5914C145.703 55.9337 145.784 56.5064 145.578 56.8289C145.447 57.0264 145.31 57.0922 145.154 56.8618C144.898 56.4932 144.998 55.8942 145.391 55.5914ZM119.698 41.2541C119.287 41.5372 116.66 41.5833 116.298 41.3792C117.459 41.3331 118.582 41.2936 119.698 41.2541ZM80.9284 54.1102C80.9721 53.6824 81.1405 53.4388 81.4712 53.4059C81.7769 53.373 81.9142 53.6034 82.0078 53.9588C81.6396 54.0115 81.3027 54.0576 80.9284 54.1102ZM145.66 55.3544C144.842 54.6566 144.824 55.6769 144.437 55.9468C144.493 55.6967 144.568 55.4531 144.692 55.2491C145.004 54.7356 145.379 54.7685 145.66 55.3544ZM145.822 56.9606C145.741 57.5728 145.485 57.9085 145.142 57.9151C144.836 57.9282 144.537 57.632 144.474 57.2502C144.998 58.0072 145.291 57.9546 145.822 56.9606Z" fill="black"/>
</g>
<path d="M102.491 53.6495C101.861 53.6495 101.212 54.492 101.212 55.3083C101.218 56.0719 102.017 56.8223 102.828 56.8289C103.564 56.8355 104.213 56.1772 104.219 55.4136C104.225 54.525 103.377 53.656 102.491 53.6495ZM102.135 54.1102C102.99 53.8469 103.951 54.65 103.789 55.4136C103.296 54.9199 102.978 54.2156 102.135 54.1102ZM101.667 55.0911C101.792 54.7554 101.992 54.5315 102.341 54.5513C102.591 54.571 102.79 54.6895 102.847 55.0384C102.697 54.9792 102.585 54.9331 102.472 54.8936C102.454 55.0187 102.441 55.124 102.429 55.2425C102.173 55.1898 101.942 55.1437 101.667 55.0911Z" fill="black"/>
<path d="M91.3286 46.2768C91.6031 46.1714 91.9088 46.0924 92.1647 45.9345C92.4828 45.7304 92.4454 45.3749 92.121 45.1906C91.7279 44.9602 90.9418 45.0853 90.6361 45.4408C90.4302 45.6712 90.4738 45.9081 90.7047 46.0595C90.8731 46.1714 91.0853 46.1978 91.3286 46.2768ZM92.0212 45.5263C91.5906 45.9147 91.1913 45.9345 90.8856 45.6185C91.235 45.3947 91.5844 45.3354 92.0212 45.5263Z" fill="black"/>
<path d="M111.294 58.9749C111.319 60.4823 111.562 61.7923 112.292 62.964C113.602 65.0837 116.142 65.4655 117.945 63.7935C119.062 62.76 119.667 61.4237 119.904 59.8965C120.185 58.0665 119.96 56.3286 118.981 54.7488C118.4 53.8008 117.602 53.1097 116.541 52.8529C115.275 52.5567 114.17 52.9583 113.259 53.8864C111.874 55.3083 111.313 57.0988 111.294 58.9749ZM114.077 61.1867C113.958 61.0419 113.883 60.9563 113.815 60.8641C113.128 59.9886 112.685 58.9946 112.61 57.8558C112.511 56.3879 113.421 55.2622 114.757 55.1701C114.975 55.1569 115.193 55.1701 115.412 55.1701C113.646 54.8409 112.704 55.8744 112.043 57.5201C112.199 56.0192 113.003 54.9792 114.189 54.6434C115.324 54.3275 116.354 54.7356 117.115 55.802C118.357 57.5464 118.126 60.6469 116.647 62.1675C116.136 62.6942 115.524 62.9377 114.807 62.8324C114.332 62.76 113.971 62.5098 113.727 62.128C114.351 62.1544 114.95 62.2597 115.537 62.1873C116.16 62.1149 116.747 61.5553 116.934 61.0682C115.998 62.082 115.449 62.2399 114.569 61.7331C114.282 61.5685 114.014 61.371 113.733 61.1933C113.746 61.1735 113.752 61.1472 113.765 61.1275C113.846 61.1406 113.921 61.1604 114.077 61.1867ZM114.089 53.6297C115.324 52.7081 116.978 52.9583 118.076 54.2485C119.58 56.0192 119.842 58.1126 119.355 60.3441C118.999 61.9503 118.194 63.2603 116.791 64.0765C115.805 64.6492 114.545 64.6097 113.771 63.991C115.431 64.5571 116.722 63.9712 117.783 62.681C119.274 60.8641 119.604 57.7505 118.55 55.6243C118.038 54.5842 117.327 53.7745 116.204 53.452C115.474 53.2347 114.775 53.3466 114.089 53.6297ZM117.277 62.5493C116.029 64.2345 113.964 64.4057 112.617 62.7402C114.095 63.912 115.574 64.1621 117.277 62.5493Z" fill="black"/>
<path d="M99.1276 59.9228C98.9965 59.2053 98.8593 58.4878 98.7345 57.7703C98.5848 56.9277 98.4537 56.0851 98.3102 55.2096C97.9858 55.1503 97.8111 55.4268 97.73 55.7493C97.5803 56.3418 97.4368 56.9408 97.3619 57.5464C97.2683 58.2969 97.2309 59.0605 97.1997 59.8241C97.181 60.252 97.2683 60.6732 97.574 60.9892C97.8423 61.2657 98.148 61.4237 98.5224 61.2854C98.9092 61.1406 99.0714 60.8115 99.0964 60.3968C99.1088 60.2388 99.1151 60.0742 99.1213 59.9096L99.1276 59.9228Z" fill="black"/>
<path d="M113.646 60.015C113.59 59.6134 113.452 59.2053 113.483 58.8169C113.527 58.2574 113.689 57.711 113.808 57.1581C113.253 58.0796 113.228 59.0341 113.646 60.015Z" fill="black"/>
<path d="M117.065 57.1317C117.171 57.5201 117.359 57.9151 117.352 58.3035C117.346 58.863 117.196 59.4159 117.109 59.9755C117.565 59.2448 117.527 58.4614 117.327 57.6649C117.278 57.474 117.153 57.3095 117.065 57.1317Z" fill="black"/>
<path d="M115.986 61.1538C115.349 61.4105 114.788 61.2394 114.264 60.8246C114.588 61.3579 115.518 61.5356 115.986 61.1538Z" fill="black"/>
<path d="M113.89 58.6589C113.921 59.1987 114.002 59.8109 114.52 60.0413C114.975 60.2454 115.524 60.219 116.036 60.2717C116.105 60.2849 116.192 60.1861 116.254 60.1203C116.897 59.4884 116.972 58.3166 116.417 57.5925C116.379 57.5399 116.323 57.4938 116.298 57.4345C116.005 56.7236 115.318 56.5261 114.707 56.9935C114.183 57.395 113.908 57.948 113.89 58.6589ZM116.554 58.6128C116.548 59.3172 116.217 59.7648 115.755 59.7977C115.287 59.8372 114.913 59.4554 114.832 58.8432C114.813 58.7116 114.813 58.5668 114.832 58.4351C114.894 57.9743 115.2 57.6057 115.537 57.5662C115.905 57.5267 116.31 57.8098 116.466 58.2376C116.523 58.3825 116.535 58.547 116.554 58.6128ZM115.169 57.4148C114.957 57.7044 114.763 57.9677 114.557 58.2574C114.451 58.2113 114.339 58.1586 114.233 58.106C114.401 57.4082 114.757 57.1515 115.169 57.4148Z" fill="black"/>
<path d="M129.543 42.0901C129.817 40.5366 130.08 39.0094 130.348 37.469C129.25 36.9556 128.095 36.7318 126.923 36.6067C124.502 36.35 122.081 36.4421 119.666 36.6133C119.167 36.6528 119.086 36.7713 118.98 37.5612C119.336 37.5612 119.698 37.5612 120.059 37.5612C120.159 37.5612 120.284 37.5217 120.365 37.5678C120.839 37.8508 120.577 38.3577 120.646 38.7593C120.69 39.016 120.502 39.1411 120.259 39.1608C119.616 39.2003 118.968 39.2727 118.325 39.2925C118.025 39.299 117.87 39.4044 117.813 39.7072C117.782 39.8652 117.72 40.0231 117.664 40.1746C117.589 40.3786 117.439 40.5366 117.258 40.3918C117.14 40.2996 117.027 40.0429 117.065 39.9112C117.133 39.6743 117.32 39.4768 117.464 39.2464C117.133 38.9304 117.214 38.4894 117.277 38.101C117.302 37.9496 117.583 37.7916 117.77 37.7455C118.481 37.5744 118.487 37.5875 118.581 36.712C117.957 36.791 117.333 36.8239 116.734 36.949C115.155 37.2716 113.589 37.627 112.03 37.9957C111.836 38.0417 111.624 38.1997 111.512 38.3709C110.938 39.1871 110.389 40.0363 109.777 40.9513C110.183 40.9776 110.501 41.0106 110.813 41.0106C110.9 41.0106 111.013 40.9382 111.069 40.8657C112.117 39.4899 113.683 39.4636 115 40.372C115.099 40.4379 115.218 40.4971 115.28 40.5893C115.661 41.1291 116.172 41.1027 116.734 41.0566C117.782 40.9842 118.83 40.9842 119.879 40.9513C120.003 40.9447 120.147 40.9447 120.253 40.8921C120.515 40.7736 120.771 40.4313 121.002 40.9382C121.02 40.9711 121.126 40.9513 121.189 40.9513C123.753 40.9711 126.274 41.3463 128.763 41.9651C129.013 42.0243 129.268 42.0441 129.543 42.0901Z" fill="white"/>
<path d="M120.665 58.7708C120.646 57.0132 120.341 55.5321 119.511 54.2221C117.658 51.2994 114.364 51.227 112.392 54.0642C111.2 55.7888 110.807 57.7373 110.963 59.8372C111.082 61.3381 111.506 62.7271 112.417 63.912C113.921 65.8802 116.341 66.1633 118.207 64.5702C119.592 63.3853 120.285 61.7792 120.559 59.9557C120.628 59.5015 120.646 59.0341 120.665 58.7708ZM111.294 58.9749C111.313 57.0988 111.874 55.3083 113.259 53.8864C114.17 52.9583 115.274 52.5567 116.541 52.8529C117.602 53.1097 118.4 53.8009 118.981 54.7488C119.96 56.3286 120.185 58.0665 119.904 59.8965C119.667 61.4237 119.062 62.76 117.945 63.7935C116.142 65.4655 113.602 65.0837 112.292 62.964C111.562 61.7923 111.319 60.4824 111.294 58.9749Z" fill="white"/>
<path d="M100.737 48.3372C100.725 48.9559 100.881 49.5286 101.23 50.0289C101.673 50.6675 102.316 50.7267 102.865 50.1869C103.882 49.1929 103.794 46.9416 102.696 46.0332C102.303 45.7041 101.91 45.7436 101.517 46.1451C100.937 46.7507 100.725 47.5012 100.737 48.3372Z" fill="white"/>
<path d="M82.1887 47.8566C82.195 47.3827 82.0639 46.8363 81.6958 46.3821C81.44 46.0661 81.2591 46.0661 80.9721 46.336C80.2296 47.0469 80.0986 48.7585 80.7288 49.5813C80.9783 49.9039 81.3152 49.9434 81.6022 49.6471C82.0515 49.1929 82.195 48.6136 82.1887 47.8566Z" fill="white"/>
<path d="M144.012 59.5081C144.187 60.0874 144.487 60.5811 145.042 60.8312C145.528 61.0616 145.965 60.9366 146.358 60.4626C146.876 59.8504 147.101 59.0934 147.238 58.31C147.506 56.7828 147.475 55.2556 146.976 53.7877C146.801 53.2676 146.464 52.7805 146.109 52.3658C145.747 51.9445 145.192 51.9708 144.774 52.3395C144.012 53.0241 143.75 53.9654 143.601 54.9594C143.744 54.5513 143.856 54.1234 144.037 53.7219C144.281 53.1623 144.618 52.6291 145.26 52.6094C145.915 52.5896 146.296 53.1031 146.527 53.6692C147.319 55.6374 147.294 57.6189 146.427 59.5673C146.346 59.7385 146.234 59.8899 146.115 60.0347C145.566 60.6798 144.83 60.6535 144.318 59.9755C144.206 59.8241 144.112 59.6595 144.012 59.5081Z" fill="white"/>
<path d="M118.562 66.4858C122.138 63.28 123.073 56.4734 119.966 52.2802C122.643 57.3819 122.025 62.1083 118.562 66.4858Z" fill="white"/>
<path d="M145.709 57.8492C145.01 58.3495 144.467 58.1521 144.255 57.3621C144.061 56.6183 144.093 55.8744 144.442 55.1766C144.735 54.5776 145.004 54.5118 145.596 54.8673C145.509 54.492 145.278 54.2287 144.991 54.1827C144.791 54.1563 144.498 54.3209 144.349 54.492C144.161 54.7027 144.03 54.9989 143.968 55.2754C143.743 56.2562 143.887 57.1976 144.336 58.0862C144.48 58.3693 144.667 58.6655 145.004 58.6128C145.365 58.5602 145.546 58.2508 145.709 57.8492Z" fill="white"/>
<path d="M144.923 52.9648C145.522 53.0043 145.816 53.3664 146.04 53.7943C146.627 54.8936 146.683 56.0851 146.57 57.2963C146.521 57.7703 146.427 58.2442 146.29 58.6918C146.071 59.4028 145.697 59.9886 144.867 60.1664C145.354 60.3573 145.66 60.1532 145.922 59.8438C146.421 59.2448 146.595 58.5009 146.714 57.7439C146.907 56.5129 146.901 55.2886 146.439 54.1168C146.296 53.7482 146.046 53.4125 145.797 53.1162C145.603 52.8858 145.329 52.7739 144.923 52.9648Z" fill="white"/>
<path d="M111.942 41.0698C112.897 41.1554 113.827 41.2344 114.756 41.32C114.07 40.3655 112.429 40.247 111.942 41.0698Z" fill="white"/>
<path d="M143.388 53.5639C144.024 52.3856 144.373 50.9242 146.039 50.911C145.615 50.6477 145.122 50.6609 144.717 51.1085C144.317 51.5561 143.999 52.0893 143.7 52.616C143.537 52.899 143.488 53.2479 143.388 53.5639Z" fill="white"/>
<path d="M145.391 55.5914C144.998 55.8942 144.898 56.4932 145.154 56.8618C145.31 57.0922 145.447 57.0264 145.578 56.8289C145.784 56.5064 145.703 55.9337 145.391 55.5914Z" fill="white"/>
<path d="M145.659 55.3544C145.379 54.7685 145.004 54.7356 144.692 55.2491C144.568 55.4531 144.493 55.6967 144.437 55.9468C144.823 55.6769 144.842 54.6566 145.659 55.3544Z" fill="white"/>
<path d="M145.821 56.9606C145.291 57.9546 144.998 58.0072 144.474 57.2502C144.536 57.632 144.836 57.9282 145.141 57.9151C145.484 57.9085 145.74 57.5728 145.821 56.9606Z" fill="white"/>
<path d="M114.077 61.1867C113.921 61.1604 113.846 61.1406 113.765 61.1275C113.752 61.1472 113.746 61.1735 113.734 61.1933C114.015 61.371 114.283 61.5685 114.57 61.7331C115.45 62.2399 115.999 62.082 116.934 61.0682C116.747 61.5553 116.161 62.1149 115.537 62.1873C114.95 62.2597 114.351 62.1544 113.728 62.128C113.971 62.5098 114.333 62.76 114.807 62.8324C115.524 62.9377 116.136 62.6942 116.647 62.1675C118.126 60.6469 118.357 57.5464 117.115 55.802C116.354 54.7356 115.325 54.3275 114.189 54.6434C113.004 54.9792 112.199 56.0192 112.043 57.5201C112.704 55.8744 113.646 54.8409 115.412 55.1701C115.194 55.1701 114.975 55.1569 114.757 55.1701C113.422 55.2622 112.511 56.3879 112.611 57.8558C112.686 58.9946 113.129 59.9886 113.815 60.8641C113.884 60.9563 113.958 61.0419 114.077 61.1867ZM113.646 60.015C113.228 59.0341 113.253 58.0796 113.809 57.1581C114.258 56.5919 114.732 56.1246 115.531 56.1706C116.229 56.2101 116.666 56.6117 117.065 57.1317C117.153 57.3095 117.278 57.474 117.328 57.6649C117.527 58.4614 117.565 59.2448 117.109 59.9755C116.878 60.5218 116.535 60.9497 115.986 61.1538C115.518 61.5356 114.589 61.3579 114.264 60.8247C114.058 60.5548 113.852 60.2849 113.646 60.015Z" fill="white"/>
<path d="M114.089 53.6297C114.775 53.3466 115.474 53.2347 116.204 53.452C117.327 53.7745 118.038 54.5842 118.55 55.6243C119.604 57.7505 119.273 60.8641 117.782 62.681C116.722 63.9712 115.43 64.5571 113.771 63.991C114.544 64.6097 115.804 64.6492 116.79 64.0765C118.194 63.2603 118.999 61.9503 119.355 60.3441C119.841 58.1126 119.579 56.0192 118.076 54.2485C116.977 52.9583 115.324 52.7081 114.089 53.6297Z" fill="white"/>
<path d="M117.277 62.5493C115.574 64.1621 114.095 63.912 112.616 62.7402C113.964 64.4057 116.029 64.2345 117.277 62.5493Z" fill="white"/>
<path d="M117.065 57.1317C116.666 56.6117 116.229 56.2101 115.53 56.1706C114.732 56.1246 114.258 56.5919 113.808 57.1581C113.69 57.711 113.528 58.2574 113.484 58.8169C113.453 59.2053 113.59 59.6134 113.646 60.015C113.852 60.2849 114.058 60.5548 114.264 60.8247C114.788 61.2394 115.35 61.4105 115.986 61.1538C116.535 60.9497 116.878 60.5218 117.109 59.9755C117.196 59.4159 117.346 58.863 117.352 58.3035C117.359 57.9151 117.171 57.5201 117.065 57.1317ZM113.89 58.6589C113.908 57.948 114.183 57.395 114.707 56.9935C115.318 56.5261 116.005 56.7236 116.298 57.4345C116.323 57.4938 116.379 57.5399 116.416 57.5925C116.972 58.3166 116.897 59.4884 116.254 60.1203C116.192 60.1861 116.104 60.2849 116.036 60.2717C115.524 60.219 114.975 60.2454 114.52 60.0413C114.002 59.8109 113.921 59.1987 113.89 58.6589Z" fill="white"/>
<path d="M116.553 58.6128C116.535 58.547 116.522 58.3824 116.466 58.2376C116.31 57.8098 115.905 57.5267 115.536 57.5662C115.2 57.6057 114.894 57.9743 114.831 58.4351C114.813 58.5668 114.813 58.7116 114.831 58.8432C114.913 59.4554 115.287 59.8372 115.755 59.7977C116.217 59.7648 116.547 59.3172 116.553 58.6128Z" fill="white"/>
<path d="M115.168 57.4148C114.757 57.1515 114.401 57.4082 114.232 58.106C114.338 58.1586 114.451 58.2113 114.557 58.2574C114.763 57.9677 114.956 57.7044 115.168 57.4148Z" fill="white"/>
</g>
<defs>
<clipPath id="clip0_157_1452">
<rect width="230" height="91" fill="white"/>
</clipPath>
</defs>
</svg>
